<svg xmlns="http://www.w3.org/2000/svg" width="442" height="323" viewBox="0 0 442 323">
  <metadata><?xpacket begin="﻿" id="W5M0MpCehiHzreSzNTczkc9d"?>
<x:xmpmeta xmlns:x="adobe:ns:meta/" x:xmptk="Adobe XMP Core 5.6-c138 79.159824, 2016/09/14-01:09:01        ">
   <rdf:RDF xmlns:rdf="http://www.w3.org/1999/02/22-rdf-syntax-ns#">
      <rdf:Description rdf:about=""/>
   </rdf:RDF>
</x:xmpmeta>
                                                                                                    
                                                                                                    
                                                                                                    
                                                                                                    
                                                                                                    
                                                                                                    
                                                                                                    
                                                                                                    
                                                                                                    
                                                                                                    
                                                                                                    
                                                                                                    
                                                                                                    
                                                                                                    
                                                                                                    
                                                                                                    
                                                                                                    
                                                                                                    
                                                                                                    
                                                                                                    
                           
<?xpacket end="w"?></metadata>
<defs>
    <style>
      .cls-1 {
        fill-rule: evenodd;
      }
    </style>
  </defs>
  <path class="cls-1" d="M0,324l1-8,1-33s20.41-88.727,65-110l18-8,9-2,8-2,9-3,5-5,9-9,8-6,3-3,1-4-3-11s-7.22-28.848-4-39V48s0.553-7.509,3-10c0,0,1.853-16.031,10-18l5-5,3-3a6.487,6.487,0,0,1,2-2c0.961-.411,3.336-3.071,4-3s3,0,3,0l2-2,4-1h6l6-3,4-1a14.15,14.15,0,0,0,3,0c1.4-.187,7,0,7,0h31s29.96,2.566,48,22l2,3v3l-1,1-1,3-1,3,1,2,1,2s2.068,0.011,2,1,2,4,2,4l1,5,1,3,1,7s-0.412,5.72,0,6,0,4,0,4v5l1,2,2,2,3,1v2l-2,2-1,1v3l-1,3-3,2-1,2v7s14.846,10.523,4,19l-1,3,1,2v5l-1,6v8l-1,5s-5.266,13.318-14,21l-1,3-1,2v6s16.474,6.485,20,14l2,1h2s3.643-1.186,10,12l1,2,3,1,3,1s1.24-.724,2,0,4,4,4,4l3,3,2,3,2,3,2,2,3,2,17,9,2,1s4.507,0.868,5,1,4.724,4.281,5,4,3,3,3,3,2.286,3.3,3,3,9,5,9,5h4l1-2-1-3-3-3-2-2s-5.8-14.14-3-17l-2-3-5-4-3-3-4-3-7-3-5-4-6-4-4-4-2-3-3-4-4-4-3-2-2-4v-9l-1-2v-4l2-2s4.949-1.313,8,1h1l1-2,1-2v-6l1-6,1-3,1-3s3.538-16.423,18-7l2,1s2.92,0.222,3,0,4,1,4,1,4.538,1.015,5,1,36.08,17.8,42,26l2,6s1.023,5.938,1,6,0,6,0,6l1,5v8l1,4,1,4,1,3,4,4,3,3,2,3s10.19,2.171,11,30l2,3,2,2s12.981,13.783,10,39v5l-1,7-1,4-1,5-3,6v3Z"/>
</svg>
