<?xml version="1.0" encoding="UTF-8"?>
<svg width="37.769mm" height="20mm" version="1.1" viewBox="0 0 37.769135 20" xmlns="http://www.w3.org/2000/svg" xmlns:cc="http://creativecommons.org/ns#" xmlns:dc="http://purl.org/dc/elements/1.1/" xmlns:rdf="http://www.w3.org/1999/02/22-rdf-syntax-ns#">
  <metadata>
    <rdf:RDF>
      <cc:Work rdf:about="">
        <dc:format>image/svg+xml</dc:format>
        <dc:type rdf:resource="http://purl.org/dc/dcmitype/StillImage"/>
        <dc:title/>
      </cc:Work>
    </rdf:RDF>
  </metadata>
  <g transform="translate(-18.115 -.82467)">
    <g transform="scale(.8447 1.1838)" stroke-width=".71829" aria-label="AHEM">
      <path d="m26.641 4.4662q-0.11493 0.94239-0.29881 2.7582-0.18388 1.7928-0.39075 4.2982 0.27582 0.02299 0.52866 0.02299 0.25284-0.02299 0.43672-0.02299h0.43672q-0.13791-1.4481-0.27582-2.7352-0.11492-1.2872-0.22985-2.2525-0.11492-1.1263-0.20687-2.0687zm-5.1946 12.297q0.29881-1.8388 0.66657-4.2522 0.32179-2.0457 0.73552-4.9188 0.41373-2.8961 0.89642-6.5278 1.2412-0.04597 2.2985-0.068955 1.0803-0.022985 1.8848-0.022985h1.7009q0.29881 2.2985 0.71254 4.9648 0.34478 2.2985 0.80448 5.2636 0.48269 2.9651 1.0573 6.252-0.52866-0.02298-1.1952-0.02298-0.57463 0-1.3791 0-0.80448 0.02298-1.8158 0.04597-0.02299-0.22985-0.04597-0.59761-0.02299-0.32179-0.06896-0.80448-0.02298-0.48269-0.06895-1.1722-0.32179-0.02299-0.82746-0.02299t-1.1033 0l-0.13791 1.9308q-0.39075 0-0.98836-0.02298-0.50567-0.02299-1.2872-0.02299-0.75851 0-1.8388 0z"/>
      <path d="m38.012 12.396q-0.22985 0-0.50567 0-0.27582 0-0.64358 0.02299l0.06896 4.1833q-0.52866-0.02299-1.1722-0.02299-0.55164 0-1.3331 0-0.75851 0-1.6549 0.04597v-4.1603q0-1.9997-0.02298-4.7579-0.02299-2.7582-0.06896-6.16h0.87344q0.4597 0 1.2412 0 0.80448 0 1.9767-0.022985 0 0.89642 0.02298 2.0227 0 0.96538 0 2.3445 0.02298 1.3561 0.04597 3.0111 0.1609 0.022985 0.34478 0.022985h0.80448q0-1.7928-0.02299-3.8385-0.02298-2.0687-0.04597-4.3672h1.0803q0.52866 0 1.3102 0 0.78149 0 1.8158-0.022985v4.9188q0 2.2985 0 5.3785 0.02299 3.057 0.06896 6.5967-0.50567-0.02299-1.1263-0.04597-0.55164-0.02299-1.3331-0.02299-0.75851 0.02299-1.7239 0.04597z"/>
      <path d="m43.279 17.039q-0.02298-1.9997-0.04597-4.4821-0.02299-2.1376-0.06896-5.0337-0.02299-2.8961-0.06896-6.3899 0.64358 0 1.6779-0.022985 0.87344 0 2.2985 0 1.4251-0.022985 3.5167-0.04597v1.1493q0 0.52866 0 1.2872 0 0.73552 0.04597 1.6319-0.64358 0.022985-1.2642 0.022985-0.52866 0.022985-1.1263 0.022985-0.57463 0-1.0343 0.022985-0.02299 0.4597-0.02299 0.85045 0.02299 0.36776 0.02299 0.66657v0.6206q0.13791 0 0.80448 0.022985 0.66657 0 2.0457-0.04597v1.1033q0 0.52866 0 1.2412 0 0.68955 0.02299 1.54h-0.80448q-0.39075 0-0.89642 0-0.50567-0.02298-1.0803-0.02298v0.55164q0 0.55164 0.06896 1.471 0.36776 0.02298 0.87343 0.04597 0.41373 0.02299 1.0113 0.06896 0.59761 0.02299 1.3331 0.04597-0.02298 0.39075-0.02298 0.96538-0.02298 0.48269-0.02298 1.1952t0 1.6779q-1.0113-0.02299-2.1836-0.06895-1.0113-0.02299-2.3215-0.04597-1.3102-0.02298-2.7582-0.04597z"/>
      <path d="m51.081 16.832q0.13791-1.9537 0.22985-4.3672 0.09194-2.0687 0.18388-4.8269 0.09194-2.7812 0.18388-6.0911h1.7239q0.80448 0 1.8388 0 1.0343-0.022985 2.2296-0.068955 0.11493 1.1263 0.27582 2.4134 0.13791 1.1033 0.32179 2.5743 0.18388 1.4481 0.41373 3.057 0.25284-1.8158 0.52866-4.0914 0.27582-2.2755 0.48269-4.689 0.89642 0.022985 1.9078 0.068955 0.85045 0.04597 1.9078 0.068955 1.0803 0.022985 2.1836 0.068955 0 1.9537 0.09194 4.4591 0.06896 2.1606 0.18388 5.1717 0.13791 3.0111 0.39075 6.8036-0.64358 0.02298-1.3561 0.06895-0.59761 0.04597-1.3791 0.06896-0.75851 0.02299-1.54 0.04597 0.02298-1.517 0.02298-3.4018 0-1.609-0.04597-3.8155-0.02298-2.2296-0.11492-4.8728-0.1609 0.96538-0.32179 2.1146-0.1609 1.1493-0.32179 2.3905-0.1609 1.2182-0.29881 2.4824-0.13791 1.2412-0.22985 2.4364-0.6206 0-1.3102-0.02299-0.59761-0.02299-1.3331-0.02299-0.71254-0.02299-1.4481-0.06896-0.09194-0.96538-0.25284-2.2296-0.13791-1.1033-0.34478-2.6433-0.20687-1.563-0.52866-3.5857 0 2.0916 0 4.8269 0.02298 2.7122 0.09194 5.7693-0.78149-0.02299-1.54-0.04597-0.66657-0.02298-1.4251-0.02298-0.73552 0-1.4021-0.02298z"/>
    </g>
  </g>
</svg>
