<?xml version="1.0" encoding="UTF-8"?>
<svg width="46.277mm" height="28.231mm" version="1.1" viewBox="0 0 46.277276 28.231022" xmlns="http://www.w3.org/2000/svg" xmlns:cc="http://creativecommons.org/ns#" xmlns:dc="http://purl.org/dc/elements/1.1/" xmlns:rdf="http://www.w3.org/1999/02/22-rdf-syntax-ns#">
  <metadata>
    <rdf:RDF>
      <cc:Work rdf:about="">
        <dc:format>image/svg+xml</dc:format>
        <dc:type rdf:resource="http://purl.org/dc/dcmitype/StillImage"/>
        <dc:title/>
      </cc:Work>
    </rdf:RDF>
  </metadata>
  <g transform="translate(-13.861 -.82467)">
    <g transform="scale(.8447 1.1838)" stroke-width=".71829" aria-label="AHEM">
      <path d="m26.641 4.4662q-0.11493 0.94239-0.29881 2.7582-0.18388 1.7928-0.39075 4.2982 0.27582 0.02299 0.52866 0.02299 0.25284-0.02299 0.43672-0.02299h0.43672q-0.13791-1.4481-0.27582-2.7352-0.11492-1.2872-0.22985-2.2525-0.11492-1.1263-0.20687-2.0687zm-5.1946 12.297q0.29881-1.8388 0.66657-4.2522 0.32179-2.0457 0.73552-4.9188 0.41373-2.8961 0.89642-6.5278 1.2412-0.04597 2.2985-0.068955 1.0803-0.022985 1.8848-0.022985h1.7009q0.29881 2.2985 0.71254 4.9648 0.34478 2.2985 0.80448 5.2636 0.48269 2.9651 1.0573 6.252-0.52866-0.02298-1.1952-0.02298-0.57463 0-1.3791 0-0.80448 0.02298-1.8158 0.04597-0.02299-0.22985-0.04597-0.59761-0.02299-0.32179-0.06896-0.80448-0.02298-0.48269-0.06895-1.1722-0.32179-0.02299-0.82746-0.02299t-1.1033 0l-0.13791 1.9308q-0.39075 0-0.98836-0.02298-0.50567-0.02299-1.2872-0.02299-0.75851 0-1.8388 0z"/>
      <path d="m38.012 12.396q-0.22985 0-0.50567 0-0.27582 0-0.64358 0.02299l0.06896 4.1833q-0.52866-0.02299-1.1722-0.02299-0.55164 0-1.3331 0-0.75851 0-1.6549 0.04597v-4.1603q0-1.9997-0.02298-4.7579-0.02299-2.7582-0.06896-6.16h0.87344q0.4597 0 1.2412 0 0.80448 0 1.9767-0.022985 0 0.89642 0.02298 2.0227 0 0.96538 0 2.3445 0.02298 1.3561 0.04597 3.0111 0.1609 0.022985 0.34478 0.022985h0.80448q0-1.7928-0.02299-3.8385-0.02298-2.0687-0.04597-4.3672h1.0803q0.52866 0 1.3102 0 0.78149 0 1.8158-0.022985v4.9188q0 2.2985 0 5.3785 0.02299 3.057 0.06896 6.5967-0.50567-0.02299-1.1263-0.04597-0.55164-0.02299-1.3331-0.02299-0.75851 0.02299-1.7239 0.04597z"/>
      <path d="m43.279 17.039q-0.02298-1.9997-0.04597-4.4821-0.02299-2.1376-0.06896-5.0337-0.02299-2.8961-0.06896-6.3899 0.64358 0 1.6779-0.022985 0.87344 0 2.2985 0 1.4251-0.022985 3.5167-0.04597v1.1493q0 0.52866 0 1.2872 0 0.73552 0.04597 1.6319-0.64358 0.022985-1.2642 0.022985-0.52866 0.022985-1.1263 0.022985-0.57463 0-1.0343 0.022985-0.02299 0.4597-0.02299 0.85045 0.02299 0.36776 0.02299 0.66657v0.6206q0.13791 0 0.80448 0.022985 0.66657 0 2.0457-0.04597v1.1033q0 0.52866 0 1.2412 0 0.68955 0.02299 1.54h-0.80448q-0.39075 0-0.89642 0-0.50567-0.02298-1.0803-0.02298v0.55164q0 0.55164 0.06896 1.471 0.36776 0.02298 0.87343 0.04597 0.41373 0.02299 1.0113 0.06896 0.59761 0.02299 1.3331 0.04597-0.02298 0.39075-0.02298 0.96538-0.02298 0.48269-0.02298 1.1952t0 1.6779q-1.0113-0.02299-2.1836-0.06895-1.0113-0.02299-2.3215-0.04597-1.3102-0.02298-2.7582-0.04597z"/>
      <path d="m51.081 16.832q0.13791-1.9537 0.22985-4.3672 0.09194-2.0687 0.18388-4.8269 0.09194-2.7812 0.18388-6.0911h1.7239q0.80448 0 1.8388 0 1.0343-0.022985 2.2296-0.068955 0.11493 1.1263 0.27582 2.4134 0.13791 1.1033 0.32179 2.5743 0.18388 1.4481 0.41373 3.057 0.25284-1.8158 0.52866-4.0914 0.27582-2.2755 0.48269-4.689 0.89642 0.022985 1.9078 0.068955 0.85045 0.04597 1.9078 0.068955 1.0803 0.022985 2.1836 0.068955 0 1.9537 0.09194 4.4591 0.06896 2.1606 0.18388 5.1717 0.13791 3.0111 0.39075 6.8036-0.64358 0.02298-1.3561 0.06895-0.59761 0.04597-1.3791 0.06896-0.75851 0.02299-1.54 0.04597 0.02298-1.517 0.02298-3.4018 0-1.609-0.04597-3.8155-0.02298-2.2296-0.11492-4.8728-0.1609 0.96538-0.32179 2.1146-0.1609 1.1493-0.32179 2.3905-0.1609 1.2182-0.29881 2.4824-0.13791 1.2412-0.22985 2.4364-0.6206 0-1.3102-0.02299-0.59761-0.02299-1.3331-0.02299-0.71254-0.02299-1.4481-0.06896-0.09194-0.96538-0.25284-2.2296-0.13791-1.1033-0.34478-2.6433-0.20687-1.563-0.52866-3.5857 0 2.0916 0 4.8269 0.02298 2.7122 0.09194 5.7693-0.78149-0.02299-1.54-0.04597-0.66657-0.02298-1.4251-0.02298-0.73552 0-1.4021-0.02298z"/>
    </g>
    <g stroke-width=".26458" aria-label="Ad Hoc Email">
      <path d="m18.988 28.894h-0.8723q0-0.27698-0.5209-1.7405h-2.3854q-0.51263 1.4428-0.51263 1.7405h-0.83509q0-0.15296 1.0666-2.6417 1.0666-2.4929 1.0666-2.7409h0.95911q0 0.24391 1.017 2.6996 1.017 2.4557 1.017 2.683zm-1.5834-2.282q-0.97152-2.4267-0.97152-2.5797h-0.04547q0 0.12816-1.0046 2.5797z"/>
      <path d="m23.151 28.89-0.61598 0.02067q-0.03307-0.17777-0.03307-0.3762h-0.04547q-0.43408 0.47129-1.2898 0.47129-0.78548 0-1.2526-0.57051-0.46302-0.57051-0.46302-1.3767 0-0.91364 0.51676-1.5751 0.51676-0.66146 1.4552-0.66146 0.66973 0 0.95911 0.27285h0.03307q0-1.0253-0.05788-2.0133l0.78548-0.02894q-0.07855 1.0501-0.07855 2.7492 0 1.7281 0.08682 3.0882zm-0.66559-0.81442q0-1.2857-0.07028-2.4763-0.33486-0.27698-0.83509-0.27698-0.69866 0-1.0459 0.46716-0.34726 0.46302-0.34726 1.1658 0 0.62838 0.3266 1.0583 0.33073 0.42995 0.91364 0.42995 0.73174 0 1.0583-0.36794z"/>
      <path d="m30.282 28.894h-0.78548q0.04134-1.4304 0.04134-2.5632h-2.4763q0 0.91777 0.04134 2.5632h-0.78548q0.05788-1.509 0.05788-2.8277 0-1.3808-0.05788-2.5549h0.78548q-0.04961 1.1824-0.04961 2.2986h2.4929q0-0.8971-0.04961-2.2986h0.78548q-0.06201 1.1493-0.06201 2.5549 0 1.542 0.06201 2.8277z"/>
      <path d="m35.384 26.811q0 1.0583-0.60772 1.6536-0.60771 0.59118-1.4304 0.59118-0.76894 0-1.3229-0.52503-0.54984-0.52503-0.54984-1.48 0-1.0666 0.60772-1.666 0.61185-0.59945 1.4345-0.59945 0.76894 0 1.3188 0.5333 0.54984 0.52917 0.54984 1.4924zm-0.7152 0.14469q0-0.64492-0.3266-1.1452-0.32246-0.50436-0.92191-0.50436-0.59531 0-0.91777 0.47542-0.31833 0.47542-0.31833 1.1038 0 0.64906 0.32246 1.1493 0.3266 0.50023 0.93018 0.50023 0.59531 0 0.91364-0.47542 0.31833-0.47956 0.31833-1.1038z"/>
      <path d="m39.344 28.262-0.04134 0.55397q-0.33486 0.19017-0.8971 0.19017-1.0707 0-1.6371-0.59118-0.56637-0.59118-0.56637-1.4263 0-0.8847 0.59531-1.5214 0.59531-0.63665 1.5751-0.63665 0.49196 0 0.80202 0.09922l-0.11162 0.64906q-0.43408-0.16123-0.88057-0.16123-0.58704 0-0.93431 0.40928-0.34726 0.40928-0.34726 1.0253 0 0.66973 0.41341 1.1162 0.41341 0.44648 1.17 0.44648 0.31006 0 0.8599-0.15296z"/>
      <path d="m45.582 28.27-0.0248 0.62425h-3.3321q0.05788-1.2816 0.05788-2.8277 0-1.4552-0.05788-2.5549h3.1254l-0.03307 0.61598q-1.1369-0.04961-2.4102-0.04961 0.02481 0.64079 0.02481 1.7322 1.0997 0 1.9596-0.04961v0.61598q-0.91777-0.03721-1.9596-0.03721 0 1.0625 0.03721 1.9926 1.3725 0 2.6128-0.06201z"/>
      <path d="m51.602 26.501q0-0.66146-0.23151-0.8723-0.22738-0.21497-0.75241-0.21497-0.44235 0-0.91364 0.43408-0.01654 0.50436-0.01654 0.98805 0 0.6904 0.02481 2.0588h-0.75241q0.09095-1.1782 0.09095-2.3937 0-0.66146-0.23151-0.8723-0.22738-0.21497-0.73174-0.21497-0.51676 0-0.96738 0.43408 0 1.3105 0.01654 3.0468h-0.75241q0.07855-1.4056 0.07855-2.034 0-0.95498-0.18604-1.8769l0.7276-0.10335 0.07441 0.50023h0.04134q0.53744-0.54984 1.1948-0.54984 0.97979 0 1.2609 0.54984h0.04548q0.62425-0.54984 1.232-0.54984 0.69453 0 1.0501 0.30592 0.35553 0.30592 0.35553 1.079 0 0.07855-0.0083 0.31006-0.0083 0.23151-0.0083 0.31006 0 0.6904 0.01654 2.0588h-0.75241q0.09508-1.0831 0.09508-2.3937z"/>
      <path d="m56.443 28.894-0.64906 0.02481q-0.04961-0.20257-0.04961-0.38447h-0.04134q-0.5085 0.46302-1.3849 0.46302-0.47542 0-0.81856-0.27698-0.34313-0.28112-0.34313-0.79788 0-0.63665 0.53743-1.0211 0.53744-0.38861 1.9968-0.40928 0.0124-0.09922 0.0124-0.22738 0-0.5085-0.27285-0.678-0.26872-0.1695-0.81855-0.1695-0.64906 0-1.2774 0.16123l0.07028-0.57051q0.62012-0.17777 1.4263-0.17777 0.73587 0 1.1369 0.30592 0.40101 0.30179 0.40101 1.0335 0 0.1943-0.02067 0.70693-0.01654 0.5085-0.01654 0.67799 0 0.75241 0.11162 1.3395zm-0.73174-0.80202q-0.02067-0.62838-0.02067-1.1286-0.77721 0-1.1824 0.11576-0.678 0.20671-0.678 0.78962 0 0.56224 0.79375 0.56224 0.68213 0 1.0873-0.339z"/>
      <path d="m58.237 28.894h-0.74828q0.05788-0.82682 0.05788-1.8893 0-1.1948-0.14469-2.005l0.82682-0.11162q-0.04961 0.86403-0.04961 2.1167 0 0.99219 0.05788 1.8893zm0.17363-5.1676q0 0.21084-0.13643 0.36794-0.13643 0.15296-0.38447 0.15296-0.21084 0-0.33073-0.13229-0.11576-0.13642-0.11576-0.3266 0-0.2067 0.14056-0.35967 0.14056-0.15296 0.38861-0.15296 0.20257 0 0.31833 0.13643 0.11989 0.13229 0.11989 0.31419z"/>
      <path d="m60.139 28.894h-0.79375q0.07441-1.3643 0.07441-3.084 0-1.6702-0.11989-2.7326l0.83922-0.04134q-0.07855 1.1245-0.07855 2.774 0 1.6991 0.07855 3.084z"/>
    </g>
  </g>
</svg>
