<?xml version="1.0" encoding="UTF-8" standalone="no"?>
<svg
   xmlns:dc="http://purl.org/dc/elements/1.1/"
   xmlns:cc="http://creativecommons.org/ns#"
   xmlns:rdf="http://www.w3.org/1999/02/22-rdf-syntax-ns#"
   xmlns:svg="http://www.w3.org/2000/svg"
   xmlns="http://www.w3.org/2000/svg"
   id="svg5262"
   version="1.1"
   viewBox="0 0 460 200"
   height="200mm"
   width="460mm">
  <defs
     id="defs5256" />
  <metadata
     id="metadata5259">
    <rdf:RDF>
      <cc:Work
         rdf:about="">
        <dc:format>image/svg+xml</dc:format>
        <dc:type
           rdf:resource="http://purl.org/dc/dcmitype/StillImage" />
        <dc:title></dc:title>
      </cc:Work>
    </rdf:RDF>
  </metadata>
  <g
     transform="translate(0,-97)"
     id="layer1">
    <rect
       y="98.097527"
       x="1.0975289"
       height="197.80495"
       width="457.80493"
       id="rect4078"
       style="opacity:1;fill:none;fill-opacity:1;stroke:#000000;stroke-width:2.19505787;stroke-miterlimit:4;stroke-dasharray:none;stroke-opacity:1" />
    <g
       id="text3919"
       style="font-style:normal;font-variant:normal;font-weight:normal;font-stretch:normal;font-size:62.6704216px;line-height:1.25;font-family:'Guttman Mantova-Decor';-inkscape-font-specification:'Guttman Mantova-Decor';letter-spacing:0px;word-spacing:0px;fill:#000000;fill-opacity:1;stroke:none;stroke-width:0.73441881"
       transform="scale(0.87937476,1.1371716)"
       aria-label="AHEM">
      <path
         id="path823"
         style="font-style:normal;font-variant:normal;font-weight:normal;font-stretch:normal;font-size:141.00845337px;font-family:'Burbank Big Condensed';-inkscape-font-specification:'Burbank Big Condensed, ';stroke-width:0.73441881"
         d="m 246.58152,134.46804 q -0.70504,5.78135 -1.83311,16.92101 -1.12807,10.99866 -2.39715,26.36859 1.69211,0.141 3.2432,0.141 1.55109,-0.141 2.67916,-0.141 h 2.67916 q -0.84605,-8.88354 -1.6921,-16.78001 -0.70504,-7.89647 -1.41009,-13.81883 -0.70504,-6.90941 -1.26907,-12.69076 z m -31.86791,75.43952 q 1.83311,-11.28067 4.08924,-26.08656 1.97412,-12.54975 4.51227,-30.17581 2.53816,-17.76707 5.49933,-40.0464 7.61446,-0.28202 14.10085,-0.42303 6.6274,-0.141 11.56269,-0.141 h 10.43463 q 1.83311,14.10084 4.37126,30.45782 2.11513,14.10085 4.9353,32.29094 2.96117,18.19009 6.48638,38.3543 -3.24319,-0.14101 -7.33244,-0.14101 -3.52521,0 -8.4605,0 -4.9353,0.14101 -11.13967,0.28202 -0.14101,-1.41009 -0.28202,-3.66622 -0.14101,-1.97412 -0.42302,-4.9353 -0.14101,-2.96118 -0.42303,-7.19143 -1.97412,-0.14101 -5.0763,-0.14101 -3.10219,0 -6.76841,0 l -0.84605,11.84471 q -2.39714,0 -6.06336,-0.14101 -3.10219,-0.14101 -7.89648,-0.14101 -4.65327,0 -11.28067,0 z" />
      <path
         id="path825"
         style="font-style:normal;font-variant:normal;font-weight:normal;font-stretch:normal;font-size:141.00845337px;font-family:'Burbank Big Condensed';-inkscape-font-specification:'Burbank Big Condensed, ';stroke-width:0.73441881"
         d="m 316.34545,183.11596 q -1.41009,0 -3.10219,0 -1.6921,0 -3.94823,0.14101 l 0.42302,25.66353 q -3.24319,-0.141 -7.19143,-0.141 -3.3842,0 -8.17849,0 -4.65328,0 -10.15261,0.28201 v -25.52253 q 0,-12.26773 -0.14101,-29.18875 -0.14101,-16.92101 -0.42302,-37.79026 h 5.35832 q 2.82017,0 7.61445,0 4.9353,0 12.12673,-0.14101 0,5.49933 0.14101,12.40874 0,5.92236 0,14.38286 0.14101,8.3195 0.28202,18.47211 0.98706,0.14101 2.11512,0.14101 h 4.9353 q 0,-10.99866 -0.14101,-23.54841 -0.14101,-12.69076 -0.28202,-26.79161 h 6.6274 q 3.2432,0 8.03748,0 4.79429,0 11.13967,-0.14101 v 30.17581 q 0,14.10085 0,32.99598 0.14101,18.75413 0.42303,40.46943 -3.10219,-0.14101 -6.90942,-0.28202 -3.3842,-0.14101 -8.17849,-0.14101 -4.65328,0.14101 -10.57563,0.28202 z" />
      <path
         id="path827"
         style="font-style:normal;font-variant:normal;font-weight:normal;font-stretch:normal;font-size:141.00845337px;font-family:'Burbank Big Condensed';-inkscape-font-specification:'Burbank Big Condensed, ';stroke-width:0.73441881"
         d="m 348.654,211.59966 q -0.14101,-12.26773 -0.28202,-27.49664 -0.141,-13.11379 -0.42302,-30.88086 -0.14101,-17.76706 -0.42303,-39.20035 3.94824,0 10.29362,-0.141 5.35832,0 14.10085,0 8.74252,-0.14101 21.57429,-0.28202 v 7.05042 q 0,3.2432 0,7.89648 0,4.51227 0.28202,10.0116 -3.94824,0.141 -7.75547,0.141 -3.24319,0.14101 -6.90941,0.14101 -3.52521,0 -6.34538,0.14101 -0.14101,2.82017 -0.14101,5.21731 0.14101,2.25614 0.14101,4.08925 v 3.80723 q 0.84605,0 4.93529,0.14101 4.08925,0 12.54976,-0.28202 v 6.7684 q 0,3.2432 0,7.61446 0,4.23025 0.141,9.44757 h -4.93529 q -2.39715,0 -5.49933,0 -3.10219,-0.14101 -6.6274,-0.14101 v 3.3842 q 0,3.3842 0.42303,9.02454 2.25613,0.14101 5.35832,0.28202 2.53815,0.14101 6.20437,0.42303 3.66622,0.141 8.17849,0.28201 -0.14101,2.39715 -0.14101,5.92236 -0.14101,2.96117 -0.14101,7.33244 0,4.37126 0,10.29361 -6.20437,-0.141 -13.3958,-0.42302 -6.20437,-0.14101 -14.24185,-0.28202 -8.03749,-0.14101 -16.92102,-0.28202 z" />
      <path
         id="path829"
         style="font-style:normal;font-variant:normal;font-weight:normal;font-stretch:normal;font-size:141.00845337px;font-family:'Burbank Big Condensed';-inkscape-font-specification:'Burbank Big Condensed, ';stroke-width:0.73441881"
         d="m 396.51535,210.33059 q 0.84606,-11.98572 1.41009,-26.79161 0.56403,-12.69076 1.12807,-29.61177 0.56403,-17.06203 1.12806,-37.36724 h 10.57564 q 4.93529,0 11.28067,0 6.34539,-0.14101 13.67782,-0.42303 0.70505,6.90942 1.69211,14.80589 0.84605,6.7684 1.97411,15.79295 1.12807,8.88353 2.53816,18.75412 1.55109,-11.13967 3.24319,-25.0995 1.6921,-13.95984 2.96118,-28.76573 5.49933,0.14101 11.7037,0.42303 5.21731,0.28201 11.7037,0.42302 6.6274,0.14101 13.39581,0.42303 0,11.98572 0.56403,27.35564 0.42302,13.25479 1.12807,31.7269 0.84605,18.47211 2.39714,41.7385 -3.94824,0.14101 -8.3195,0.42303 -3.66622,0.28201 -8.46051,0.42302 -4.65327,0.14101 -9.44756,0.28202 0.14101,-9.30656 0.14101,-20.86925 0,-9.87059 -0.28202,-23.40741 -0.14101,-13.67782 -0.70504,-29.89379 -0.98706,5.92236 -1.97412,12.97278 -0.98706,7.05042 -1.97412,14.66488 -0.98706,7.47345 -1.83311,15.22891 -0.84605,7.61446 -1.41008,14.9469 -3.80723,0 -8.03749,-0.14101 -3.66622,-0.14101 -8.17849,-0.14101 -4.37126,-0.14101 -8.88353,-0.42302 -0.56403,-5.92236 -1.55109,-13.67782 -0.84605,-6.76841 -2.11513,-16.21598 -1.26907,-9.58857 -3.24319,-21.99731 0,12.83176 0,29.61177 0.14101,16.639 0.56403,35.39312 -4.79429,-0.14101 -9.44757,-0.28201 -4.08924,-0.14101 -8.74252,-0.14101 -4.51227,0 -8.60152,-0.14101 z" />
    </g>
    <g
       id="g3953"
       transform="matrix(0.0543113,0,0,-0.05401421,20.286263,263.94226)"
       style="fill:#000000;stroke:none;stroke-width:14.24538994;stroke-miterlimit:4;stroke-dasharray:none">
      <path
         style="stroke-width:14.24538994;stroke-miterlimit:4;stroke-dasharray:none"
         id="path3943"
         d="m 804,2672 c -22,-11 -50,-32 -62,-47 -28,-36 -64,-132 -60,-163 3,-23 6,-21 43,28 25,33 61,65 95,84 51,29 62,31 148,30 50,0 92,3 92,7 0,14 -125,69 -170,74 -32,4 -57,0 -86,-13 z" />
      <path
         style="stroke-width:14.24538994;stroke-miterlimit:4;stroke-dasharray:none"
         id="path3945"
         d="m 1411,2664 c -55,-20 -123,-62 -117,-73 3,-4 30,-3 60,2 108,20 208,-23 283,-121 17,-23 34,-38 37,-34 7,11 -17,99 -37,137 -20,39 -65,81 -100,94 -38,15 -73,13 -126,-5 z" />
      <path
         style="stroke:#000000;stroke-width:14.24538994;stroke-miterlimit:4;stroke-dasharray:none;stroke-opacity:1"
         id="path3947"
         d="m 853,2493 c -56,-19 -138,-94 -174,-158 l -29,-52 -226,-6 c -125,-3 -229,-8 -231,-11 -3,-3 2,-209 11,-458 l 16,-453 -28,-19 C 36,1226 -39,1015 30,880 64,815 165,741 223,740 c 15,0 17,-10 17,-74 0,-41 3,-77 7,-79 5,-3 154,8 333,24 372,32 337,38 369,-66 24,-79 35,-172 26,-235 l -7,-51 -36,8 c -21,4 -73,7 -117,7 C 716,272 641,246 577,190 532,150 484,71 498,59 c 4,-4 146,-1 317,7 472,20 420,14 418,47 -2,34 -32,34 377,-2 179,-16 329,-25 334,-21 16,16 -16,81 -65,130 -73,73 -136,95 -276,95 h -112 l -6,37 c -9,51 3,139 31,230 39,122 11,111 373,141 173,14 317,29 321,34 4,4 13,132 20,283 7,151 15,277 17,280 10,10 139,-138 158,-180 19,-43 19,-43 0,-54 -11,-6 -39,-30 -62,-52 -35,-33 -43,-48 -43,-77 0,-19 8,-45 19,-58 19,-24 19,-24 -15,-61 -46,-52 -45,-86 3,-129 28,-24 34,-34 23,-37 -26,-9 -80,-69 -80,-89 0,-50 71,-73 152,-49 75,21 103,54 104,119 0,48 2,51 30,59 83,23 102,-35 34,-108 -44,-47 -51,-84 -25,-121 19,-27 68,-38 104,-23 24,10 34,8 62,-9 103,-63 198,30 170,167 -6,30 -18,68 -26,85 -8,16 -15,45 -15,64 0,66 -54,153 -107,174 -20,7 -21,12 -12,38 24,70 -49,140 -147,141 -41,0 -42,0 -48,43 -16,103 -110,269 -213,374 l -56,58 12,260 c 6,143 15,309 18,368 l 6,109 -319,-7 -319,-7 -25,42 c -27,44 -92,97 -150,121 -75,30 -180,14 -267,-41 -19,-12 -24,-12 -40,2 -10,9 -43,28 -73,42 -44,21 -70,26 -130,25 -41,0 -94,-7 -117,-16 z m 240,-31 c 79,-35 155,-132 173,-220 l 6,-32 -43,19 c -65,29 -165,44 -237,36 -106,-11 -228,-86 -296,-180 -14,-19 -15,-19 -22,-2 -14,37 3,152 31,215 35,78 115,155 183,177 59,19 145,13 205,-13 z m 405,-18 c 97,-48 172,-166 172,-270 v -45 l -29,33 c -51,58 -113,83 -211,83 -47,0 -95,-2 -108,-5 -20,-4 -26,2 -46,51 -12,31 -32,70 -44,87 l -22,30 35,22 c 78,48 174,54 253,14 z m 759,-186 c -3,-29 -21,-372 -39,-761 -18,-390 -35,-713 -39,-718 -6,-10 -1888,-174 -1897,-165 -3,4 -7,30 -10,59 l -4,52 129,1 c 140,2 235,23 370,84 36,17 67,30 69,30 2,0 11,-14 20,-31 41,-80 108,-101 170,-54 l 33,26 41,-30 c 23,-16 54,-32 70,-36 35,-8 91,15 120,48 18,20 31,25 72,25 65,0 102,25 106,74 2,22 13,44 28,58 30,29 32,77 3,113 -16,21 -18,31 -10,46 6,11 11,38 11,61 0,79 -71,120 -157,90 -27,-10 -33,-7 -71,30 -48,45 -76,55 -128,46 -46,-9 -106,-69 -129,-130 -16,-41 -21,-46 -39,-40 -12,4 -44,9 -73,11 -47,4 -53,3 -69,-22 -10,-15 -19,-51 -22,-80 l -4,-53 -77,-21 C 548,922 411,920 313,965 l -53,24 v 78 c 0,43 -9,326 -19,628 -11,303 -18,551 -18,551 1,1 96,5 210,9 l 209,8 -7,-65 c -18,-164 62,-320 197,-388 66,-32 59,-39 -13,-15 -25,9 -68,36 -97,61 -61,53 -67,51 -15,-7 72,-80 156,-102 285,-75 95,20 124,31 167,63 27,21 37,24 50,14 48,-35 109,-54 191,-59 127,-7 208,26 264,107 39,56 31,60 -15,7 -38,-42 -115,-94 -125,-83 -3,2 14,16 36,31 76,50 140,182 140,291 0,22 -6,64 -14,93 -7,29 -13,53 -12,53 1,1 105,5 231,9 127,3 259,7 294,8 l 63,2 z m -1038,-47 56,-17 3,-47 c 6,-100 -57,-236 -136,-291 -116,-80 -248,-72 -352,21 -49,44 -100,125 -100,158 0,22 73,99 129,134 26,17 50,31 53,31 2,0 3,-24 0,-54 -4,-48 -1,-56 24,-85 72,-80 204,-30 204,77 0,16 -11,46 -26,67 l -25,37 57,-7 c 32,-4 83,-14 113,-24 z m 111,-28 c -24,-46 -25,-65 -4,-109 41,-85 167,-85 208,0 20,42 20,63 1,100 -21,39 -20,39 25,16 55,-28 110,-78 110,-101 0,-38 -42,-129 -81,-172 -22,-25 -64,-58 -95,-73 -48,-23 -63,-26 -124,-22 -50,4 -81,12 -115,32 l -46,27 22,31 c 46,64 69,138 69,226 0,81 0,82 25,82 h 25 z m 1055,-778 c 80,-112 145,-277 145,-367 0,-24 -4,-28 -29,-28 -31,0 -33,4 -46,70 -16,82 -110,220 -182,268 -21,13 -23,22 -23,110 v 96 l 46,-44 c 25,-25 65,-72 89,-105 z M 225,1179 c 4,-77 4,-143 1,-146 -3,-3 -15,15 -27,41 -26,59 -38,52 -15,-8 26,-68 100,-129 180,-151 83,-23 265,-16 374,13 39,11 74,17 76,14 2,-4 6,-24 10,-45 l 7,-37 -68,-31 C 628,768 537,747 405,746 301,746 277,749 226,769 56,837 1,988 84,1163 c 25,50 109,157 125,157 5,0 12,-63 16,-141 z m 1018,69 42,-43 -27,-3 c -33,-4 -37,-18 -8,-27 12,-4 44,5 80,21 52,23 63,25 89,15 55,-23 69,-105 25,-146 -32,-30 -88,-34 -103,-7 -8,13 -10,7 -11,-30 0,-27 5,-48 10,-48 6,0 10,6 10,13 0,7 23,18 52,25 45,10 54,10 70,-5 46,-42 -1,-113 -75,-113 -36,0 -46,4 -54,23 -10,19 -11,17 -11,-21 0,-31 3,-41 11,-33 6,6 30,11 54,11 37,0 43,-3 43,-22 0,-29 -28,-58 -57,-58 -13,0 -39,6 -58,14 -34,14 -34,14 -54,-20 -41,-69 -100,-69 -164,-2 l -39,41 -35,-41 c -46,-55 -79,-57 -118,-6 -58,76 -87,204 -65,294 11,47 14,50 43,50 18,0 51,-9 73,-19 23,-10 46,-16 51,-12 5,3 15,26 22,50 15,52 53,116 78,130 40,23 81,13 126,-31 z m 1407,-183 c 79,-41 54,-120 -55,-171 -133,-63 -314,6 -248,94 24,33 79,66 93,57 17,-10 12,-45 -7,-46 -10,-1 -2,-5 17,-10 41,-9 102,4 121,28 12,14 11,15 -9,9 -19,-7 -22,-4 -22,23 0,30 2,31 40,31 23,0 54,-7 70,-15 z m 106,-167 c 21,-21 40,-51 49,-80 8,-27 12,-48 10,-48 -2,0 -20,8 -40,17 -37,18 -64,9 -30,-9 66,-36 109,-123 109,-218 0,-79 -52,-127 -106,-100 -69,36 -99,88 -107,190 l -6,75 -65,-1 c -36,0 -78,-6 -93,-12 -26,-11 -27,-13 -13,-28 29,-28 13,-85 -34,-121 -28,-22 -97,-27 -126,-9 -39,26 -28,55 35,96 59,38 60,31 -14,83 -32,23 -32,57 0,95 25,30 26,30 108,25 95,-6 171,11 228,51 45,32 53,32 95,-6 z M 1515,673 c -51,-122 -75,-254 -61,-344 l 6,-44 h 133 c 119,0 136,-2 177,-24 54,-28 106,-75 127,-114 8,-16 13,-30 11,-32 -5,-5 -650,54 -656,59 -8,8 69,79 107,99 l 34,18 -6,122 c -5,105 -13,152 -44,249 -4,15 4,18 58,21 35,2 77,4 93,5 23,2 27,-1 21,-15 z m -193,-61 c 23,-67 43,-236 34,-285 -4,-24 -12,-37 -22,-37 -9,0 -42,-27 -74,-59 -49,-51 -60,-58 -71,-45 -6,8 -29,24 -51,36 l -39,22 7,86 c 11,141 53,278 100,324 11,12 29,16 57,14 40,-3 41,-5 59,-56 z m -184,-9 c -38,-80 -58,-161 -65,-274 l -6,-96 36,-22 c 36,-22 102,-90 94,-97 -2,-3 -103,-9 -223,-14 C 854,95 707,88 648,85 523,78 519,82 575,148 c 72,84 210,121 346,92 47,-10 63,-10 72,-1 8,8 12,52 12,134 -1,104 -4,133 -26,194 l -25,72 40,6 c 53,7 103,11 142,13 l 31,2 z m 1506,-95 c 17,-25 16,-27 -4,-33 -35,-11 -67,3 -80,34 -12,31 -5,56 29,94 15,18 16,16 27,-25 6,-24 19,-56 28,-70 z" />
      <path
         style="stroke-width:14.24538994;stroke-miterlimit:4;stroke-dasharray:none"
         id="path3949"
         d="m 1938,2234 c -4,-3 -48,-6 -98,-6 h -91 v -66 c 0,-88 -6,-185 -15,-246 l -7,-48 34,7 c 19,5 67,7 108,6 41,-1 79,3 87,9 9,8 18,8 34,0 14,-8 36,-8 73,-1 29,5 71,7 94,4 l 40,-5 7,41 c 3,23 2,50 -3,59 -6,11 -6,24 1,36 6,10 8,40 6,67 -3,27 -1,52 3,55 5,3 9,25 9,49 v 44 l -107,-4 c -60,-2 -115,-5 -123,-6 -8,-1 -22,1 -31,5 -8,4 -18,4 -21,0 z m 262,-45 c 0,-15 -5,-31 -10,-34 -6,-4 -8,-25 -4,-53 3,-26 1,-58 -4,-71 -5,-16 -5,-35 2,-52 7,-19 7,-35 -1,-52 -11,-23 -14,-24 -48,-13 -34,10 -35,11 -11,14 31,4 33,10 41,162 l 6,115 -83,-3 c -57,-2 -78,0 -69,7 8,5 52,9 98,8 l 83,-1 z m -360,11 c 22,-7 21,-8 -12,-9 l -38,-1 v -48 c 0,-27 -3,-90 -6,-140 -6,-85 -6,-92 11,-92 24,0 17,-6 -19,-14 -28,-7 -28,-7 -21,31 3,21 6,64 5,95 0,31 4,59 9,63 7,3 8,29 4,65 -6,59 -5,60 18,59 13,-1 35,-5 49,-9 z m 298,-131 c -4,-61 -8,-113 -10,-115 -2,-2 -76,-6 -164,-10 l -161,-7 4,84 c 2,46 6,98 9,116 l 5,32 72,4 c 40,1 113,4 162,5 l 90,2 z" />
      <path
         style="stroke-width:14.24538994;stroke-miterlimit:4;stroke-dasharray:none"
         id="path3951"
         d="m 775,1661 c -42,-18 -67,-48 -77,-88 -7,-26 7,-32 16,-7 9,24 23,8 30,-36 16,-102 79,-216 136,-245 30,-15 32,-15 63,11 70,59 173,81 282,62 l 40,-7 -30,14 c -16,8 -41,14 -55,15 -14,0 -38,14 -54,31 -17,16 -40,32 -53,35 -32,9 -45,35 -30,64 10,20 26,27 101,41 48,10 90,20 93,23 3,2 -53,2 -124,-1 -118,-5 -133,-4 -178,16 -83,37 -109,71 -54,71 17,0 28,4 24,10 -10,16 -87,11 -130,-9 z m 318,-248 32,-16 -25,-7 c -14,-4 -43,-13 -66,-19 -22,-6 -61,-24 -85,-40 -38,-26 -47,-28 -64,-17 -21,14 -65,73 -65,87 0,4 17,11 37,15 34,6 78,-1 128,-21 17,-8 18,-7 8,7 -7,8 -10,18 -6,21 12,13 74,7 106,-10 z" />
    </g>
    <text
       id="text4074"
       y="275.86282"
       x="217.94778"
       style="font-style:normal;font-weight:normal;font-size:29.07556915px;line-height:1.25;font-family:sans-serif;letter-spacing:0px;word-spacing:0px;fill:#000000;fill-opacity:1;stroke:none;stroke-width:0.90861154"
       xml:space="preserve"><tspan
         style="stroke-width:0.90861154"
         y="275.86282"
         x="217.94778"
         id="tspan4072">Ad Hoc Email</tspan></text>
  </g>
</svg>
