<?xml version="1.0" encoding="UTF-8" standalone="no"?>
<svg
   xmlns:dc="http://purl.org/dc/elements/1.1/"
   xmlns:cc="http://creativecommons.org/ns#"
   xmlns:rdf="http://www.w3.org/1999/02/22-rdf-syntax-ns#"
   xmlns:svg="http://www.w3.org/2000/svg"
   xmlns="http://www.w3.org/2000/svg"
   xmlns:sodipodi="http://sodipodi.sourceforge.net/DTD/sodipodi-0.dtd"
   xmlns:inkscape="http://www.inkscape.org/namespaces/inkscape"
   width="506.26413"
   height="571.77209"
   version="1.1"
   viewBox="0 0 506.26081 571.76676"
   xml:space="preserve"
   id="svg182"
   sodipodi:docname="ahem-happy-top-bottom.svg"
   inkscape:version="0.92.3 (2405546, 2018-03-11)"><defs
     id="defs186" /><sodipodi:namedview
     pagecolor="#ffffff"
     bordercolor="#666666"
     borderopacity="1"
     objecttolerance="10"
     gridtolerance="10"
     guidetolerance="10"
     inkscape:pageopacity="0"
     inkscape:pageshadow="2"
     inkscape:window-width="1349"
     inkscape:window-height="781"
     id="namedview184"
     showgrid="false"
     fit-margin-top="0"
     fit-margin-left="0"
     fit-margin-right="0"
     fit-margin-bottom="0"
     inkscape:zoom="0.62022242"
     inkscape:cx="253.1349"
     inkscape:cy="240.19164"
     inkscape:window-x="0"
     inkscape:window-y="0"
     inkscape:window-maximized="0"
     inkscape:current-layer="svg182" /><metadata
     id="metadata2"><rdf:RDF><cc:Work
         rdf:about=""><dc:format>image/svg+xml</dc:format><dc:type
           rdf:resource="http://purl.org/dc/dcmitype/StillImage" /><dc:title></dc:title></cc:Work></rdf:RDF></metadata><g
     transform="matrix(1.3333,0,0,-1.3333,-9.840388e-5,509.53442)"
     id="g180"
     inkscape:export-xdpi="96"
     inkscape:export-ydpi="96"><g
       transform="scale(0.1)"
       id="g178"><path
         d="m 1359.3,2170 -480,3.33 36.664,-1556.7 1970,116.66 50,1413.3 -553.33,6.66 -1023.3,16.67"
         id="path4"
         inkscape:connector-curvature="0"
         style="fill:#dbeaff" /><path
         d="M 2486.8,110.26 C 2486.8,49.369 2074.68,0 1566.3,0 1057.91,0 645.8,49.371 645.8,110.26 c 0,60.886 412.11,110.24 920.5,110.24 508.38,0 920.5,-49.352 920.5,-110.24"
         id="path6"
         inkscape:connector-curvature="0"
         style="fill:#c3d0e2" /><path
         d="m 1306.3,2174.6 c -12.86,-111.21 -4.77,-266.77 107.61,-374.51 l 61.19,-52.91 82.68,-26.46 72.76,-3.32 44.65,14.89 -109.14,23.16 c 0,0 -133.96,102.52 -135.61,107.49 -1.65,4.96 -85.85,207.76 -85.85,207.76 l 25.06,96.52 -63.35,7.38"
         id="path8"
         inkscape:connector-curvature="0"
         style="fill:#c3d0e2" /><path
         d="m 1854.7,1799.6 c 0,0 91.25,-122.11 286.25,-44.61 l -120.89,0.51 -124.93,69.84 -40.43,-25.74"
         id="path10"
         inkscape:connector-curvature="0"
         style="fill:#c3d0e2" /><path
         d="m 1560.1,597.65 47.25,-138.6 9.46,-141.75 -7.87,-102.38 -114.98,20.476 -99.23,-3.136 -89.77,-26.793 -55.13,-34.637 -44.1,-36.242 -42.53,-85.039 675.68,25.199 -23.62,44.109 c 0,0 -74.03,67.711 -75.61,72.442 -1.56,4.719 -33.07,20.48 -33.07,20.48 l 17.33,207.9 61.43,163.8 36.22,45.668 -261.46,-31.5"
         id="path12"
         inkscape:connector-curvature="0"
         style="fill:#dbeaff" /><path
         d="m 1920.8,649.37 c 0,0 55.13,-173.25 56.7,-225.23 1.57,-51.969 3.15,-148.05 3.15,-148.05 l -67.73,-36.219 -64.57,-64.582 -9.45,-22.039 675.68,-64.59 c 0,0 -18.92,44.11 -20.48,48.828 -1.58,4.731 -45.68,72.461 -45.68,72.461 l -91.35,53.539 -99.22,31.512 -89.78,-1.578 -91.35,-17.332 c 0,0 -11.02,121.29 -7.88,151.2 3.17,29.93 39.38,154.35 39.38,154.35 l 39.37,81.898 -226.79,-14.168"
         id="path14"
         inkscape:connector-curvature="0"
         style="fill:#dbeaff" /><path
         d="m 1587.6,539.38 c 4.73,6.293 118.04,88.269 188.92,56.769 l 36.94,68.84 -270.86,-16.859 45,-108.75"
         id="path16"
         inkscape:connector-curvature="0"
         style="fill:#c3d0e2" /><path
         d="m 1950.6,582.62 c 0,0 80.71,71.098 167.35,42.75 l 24.72,59.617 -227.24,-16.117 35.17,-86.25"
         id="path18"
         inkscape:connector-curvature="0"
         style="fill:#c3d0e2" /><path
         d="m 2072,266.64 c 0,0 307.13,48.82 420.51,-163.79 l 11.03,4.707 -74.02,102.39 -85.06,58.262 -69.29,17.328 -99.23,7.883 -67.73,-9.453 -31.5,-7.879 -4.71,-9.449"
         id="path20"
         inkscape:connector-curvature="0"
         style="fill:#fffdd1" /><path
         d="m 1605.8,203.9 c 0,0 -275.64,64.582 -428.41,-148.04 l 29.93,70.871 c 0,0 81.9,66.141 86.63,66.141 4.72,0 100.79,39.391 100.79,39.391 h 114.98 l 69.3,-12.614 26.78,-15.75"
         id="path22"
         inkscape:connector-curvature="0"
         style="fill:#fffdd1" /><path
         d="m 2922.6,1380 c 0,0 76.66,-216.67 163.33,-223.33 0,0 90,-3.33 130,33.33 l 63.33,-93.33 c 0,0 -43.33,-60.01 -63.33,-73.34 -20,-13.33 -80,-26.66 -80,-26.66 0,0 -66.67,-0.012 -100,6.66 C 3002.6,1010 2902.6,1090 2902.6,1090 l 20,290"
         id="path24"
         inkscape:connector-curvature="0"
         style="fill:#dbeaff" /><path
         d="m 882.63,1423.3 c 3.328,13.34 13.328,-293.33 13.328,-293.33 l -70,-60 -60,-30 c 0,0 -86.66,-3.33 -103.33,-3.33 -16.672,0 -126.66,56.66 -150,86.66 l 66.664,96.67 c 0,0 91.383,-45.68 146.66,-23.33 78.336,31.67 143.34,196.66 143.34,196.66 l 13.336,30"
         id="path26"
         inkscape:connector-curvature="0"
         style="fill:#dbeaff" /><path
         d="m 1663.5,2445 c 0,0 -202.5,-22.5 -267.5,-157.5 -65,-135 -27.5,-257.5 -30,-265 -2.5,-7.5 41.44,-129.19 64.47,-159.59 23.03,-30.41 120.68,-104.58 135.61,-107.49 C 1581,1752.5 1651,1740 1651,1740 l 125,15 119.18,70.35 c 0,0 138.32,-85.35 205.82,-72.85 67.5,12.5 172.5,80 172.5,80 0,0 70,95 82.5,125 12.5,30 17.5,210 17.5,210 0,0 -57.5,225 -252.5,262.5 0,0 -177.5,-7.5 -232.5,-75 0,0 -132.5,107.5 -225,90"
         id="path28"
         inkscape:connector-curvature="0"
         style="fill:#ffffff" /><path
         d="m 1203.5,1662.5 80,35 c 0,0 125,-162.5 157.5,-195 32.5,-32.5 142.5,-90 142.5,-90 l 120,-37.5 c 0,0 -57.5,-15 -70,-17.5 -12.5,-2.5 -135,-5 -157.5,5 -22.5,10 -192.5,90 -192.5,90 l -47.5,37.5 -32.5,172.5"
         id="path30"
         inkscape:connector-curvature="0"
         style="fill:#ffffff" /><path
         d="m 1396,2262.5 c 0,0 -20,-275 120,-410 0,0 87.5,-107.5 272.5,-90 l -57.5,-20 c 0,0 -105,-12.5 -130,2.5 -25,15 -157.5,70 -190,137.5 -32.5,67.5 -62.5,197.5 -62.5,197.5 l 22.5,117.5 25,65"
         id="path32"
         inkscape:connector-curvature="0"
         style="fill:#d6f2fc" /><path
         d="m 1933.5,1885 c 0,0 82.5,-145 280,-95 l -55,-30 -95,-5 c 0,0 -70,7.5 -72.5,15 -2.5,7.5 -95.82,55.35 -95.82,55.35 l 38.32,59.65"
         id="path34"
         inkscape:connector-curvature="0"
         style="fill:#d6f2fc" /><path
         d="m 1211,1590 c 0,0 47.5,75 97.5,67.5 l -25,40 -47.5,-22.5 -32.5,-12.5 7.5,-72.5"
         id="path36"
         inkscape:connector-curvature="0"
         style="fill:#d6f2fc" /><path
         d="m 1103.5,1685 c 0,0 72.5,-2.5 120,20 0,0 62.5,25 92.5,87.5 l -22.5,-75 -37.5,-30 -52.5,-25 -45,2.5 -55,20"
         id="path38"
         inkscape:connector-curvature="0"
         style="fill:#fffdd1" /><path
         d="m 1391,954.99 c 0,0 195,-72.5 310,72.502 l -47.5,-82.502 -57.5,-25 -90,-15 -70,15 -45,35"
         id="path40"
         inkscape:connector-curvature="0"
         style="fill:#fffdd1" /><path
         d="m 2916,1275 c 0,0 97.5,-235 297.5,-97.5 l -72.5,-20 -90,15 -87.5,105 -42.5,80 -5,-82.5"
         id="path42"
         inkscape:connector-curvature="0"
         style="fill:#fffdd1" /><path
         d="m 579.3,1220 c 0,0 54.164,-97.5 169.16,-47.5 0,0 100,32.5 142.5,187.5 l -15,52.5 -45,-112.5 -50,-75 -55,-28.33 -70,-6.67 -76.664,30"
         id="path44"
         inkscape:connector-curvature="0"
         style="fill:#fffdd1" /><path
         d="m 535.96,1142.5 c 0,0 215,-165 352.5,45 l 7.5,-47.5 -52.5,-60 -77.5,-40 -67.5,-7.5 -80,15 -65,32.5 -32.5,47.5 15,15"
         id="path46"
         inkscape:connector-curvature="0"
         style="fill:#c3d0e2" /><path
         d="m 553.46,1080 c 0,0 -5,97.5 55,120 l -29.164,20 -66.664,-96.67 40.828,-43.33"
         id="path48"
         inkscape:connector-curvature="0"
         style="fill:#c3d0e2" /><path
         d="m 3188.5,1167.5 c 0,0 77.5,-75 25,-135 l 65.83,64.17 -63.33,93.33 -27.5,-22.5"
         id="path50"
         inkscape:connector-curvature="0"
         style="fill:#c3d0e2" /><path
         d="m 2908.5,1142.5 c 0,0 202.5,-212.5 362.5,-40 l 8.33,-5.83 -33.33,-49.17 -62.5,-35 -70,-12.502 c 0,0 -92.5,0 -92.5,7.502 0,7.5 -70,45 -70,45 l -48.33,37.5 5.83,52.5"
         id="path52"
         inkscape:connector-curvature="0"
         style="fill:#c3d0e2" /><path
         d="m 2386,2125 510,-17.5 -27.5,-1375 67.5,1414.2 -553.33,6.66 3.33,-28.33"
         id="path54"
         inkscape:connector-curvature="0"
         style="fill:#fffdd1" /><path
         d="m 1236,1490 75,-57.5 110,-52.5 135,-27.5 77.5,5 70,17.5 75,-2.5 27.5,-72.5 -12.5,-110 c 0,0 -102.5,125 -217.5,60 0,0 -147.5,80 -240,-7.5 l -77.5,160 -22.5,87.5"
         id="path56"
         inkscape:connector-curvature="0"
         style="fill:#bf1b2c" /><path
         d="m 1342.6,1250 85,33.33 71.67,-3.33 63.33,-15 13.33,-15 c 0,0 45.01,30 63.34,21.67 18.33,-8.34 81.66,-16.67 81.66,-16.67 l 56.67,-45 15.83,-20 -32.5,-55 -86.66,-43.33 c 0,0 -81.67,-8.34 -83.34,-3.34 -1.66,5 -133.33,43.34 -133.33,43.34 l -95,90 -20,28.33"
         id="path58"
         inkscape:connector-curvature="0"
         style="fill:#f8a3d6" /><path
         d="m 1412.6,1266.7 c 0,0 161.67,-6.67 228.33,-80 0,0 -96.67,131.66 -228.33,80"
         id="path60"
         inkscape:connector-curvature="0"
         style="fill:#ffffff" /><path
         d="m 1597.6,1240 c 0,0 96.67,20 161.67,-18.33 0,0 -71.67,78.33 -181.67,35 l 20,-16.67"
         id="path62"
         inkscape:connector-curvature="0"
         style="fill:#ffffff" /><path
         d="m 3322.6,1323.3 c 0,0 -84.99,10 -96.66,-6.66 -11.67,-16.67 -13.34,-78.34 -13.34,-78.34 l 48.34,-106.66 68.33,-70 40,-20 35,-3.34 31.67,11.67 15,20 11.66,43.33 50,-20 45,1.67 35,25 5,10 58.34,1.67 85,31.66 35,38.34 5,36.66 -20,23.34 -21.67,5 c 0,0 38.33,53.33 40,71.66 1.67,18.34 -5,43.34 -5,43.34 l -21.67,23.33 c 0,0 10,51.67 5,76.67 -5,25 -43.33,43.33 -43.33,43.33 l -93.33,28.33 c 0,0 41.66,113.34 -8.34,181.67 0,0 -86.66,95 -143.33,56.67 0,0 -29.99,-55 -28.33,-76.67 1.66,-21.67 6.66,-101.67 6.66,-101.67 v -43.33 l -20,-18.33 -41.66,-6.67 -53.34,-5 -23.33,-28.33 -11.67,-68.34 13.34,-61.66 11.66,-58.34"
         id="path64"
         inkscape:connector-curvature="0"
         style="fill:#ffffff" /><path
         d="m 3566,1298.3 c 0,0 161.66,-5 208.33,83.34 l -21.67,23.33 -36.66,-38.33 -45,-25 -40,-11.67 -51.67,1.67 -11.67,-25 -1.66,-8.34"
         id="path66"
         inkscape:connector-curvature="0"
         style="fill:#d6f2fc" /><path
         d="m 3579.3,1203.3 c 0,0 143.34,-1.66 181.67,58.34 l -28.34,8.33 -40,-23.33 -40,-15 -51.66,-1.67 -21.67,-26.67"
         id="path68"
         inkscape:connector-curvature="0"
         style="fill:#d6f2fc" /><path
         d="m 454.3,1343.3 70,16.66 51.664,-16.66 c 0,0 13.336,-51.67 10,-66.67 -3.332,-15 -26.664,-76.67 -26.664,-76.67 0,0 -43.328,-56.66 -55,-71.66 -11.668,-15 -61.668,-51.67 -61.668,-51.67 l -43.332,-6.67 c 0,0 -26.664,3.33 -35,11.67 -8.336,8.33 -30,60 -30,60 l -26.668,-18.33 -66.668,1.66 -40,41.67 -51.664,-5 -88.336,30 -41.664,51.67 1.664,35 11.668,15 28.332,6.66 c 0,0 -41.668,50 -43.332,76.67 -1.668,26.67 8.332,40 8.332,40 l 25,20 c 0,0 -29.992,28.33 -6.664,73.33 23.332,45 53.332,56.67 53.332,56.67 l 63.332,15 20,6.67 c 0,0 -31.668,86.66 -3.332,151.66 28.332,65 48.332,70 48.332,70 l 65,26.67 51.668,-16.67 10,-45 v -70 l -5,-81.66 11.668,-36.67 48.332,-6.67 78.332,-16.66 18.336,-53.34 -10,-70 -16.668,-51.66 -23.332,-45"
         id="path70"
         inkscape:connector-curvature="0"
         style="fill:#ffffff" /><path
         d="m 29.297,1410 c 0,0 95,-111.66 200,-75 l -5,23.34 c 0,0 -60.004,3.33 -61.668,8.33 -1.668,5 -74.996,35 -78.332,40 -3.336,5 -33.336,30 -33.336,30 l -25,-20 3.336,-6.67"
         id="path72"
         inkscape:connector-curvature="0"
         style="fill:#d6f2fc" /><path
         d="m 32.629,1286.7 c 0,0 78.332,-91.66 183.33,-53.33 l -10,25 -48.332,5 -81.668,28.33 -23.332,5 -20,-10"
         id="path74"
         inkscape:connector-curvature="0"
         style="fill:#d6f2fc" /><path
         d="m 1621,923.74 c 0,0 -70,-72.5 -128.75,-53.75 0,0 -68.75,0 -92.5,66.25 l 52.5,-21.25 81.25,-8.75 62.5,13.75 40,16.25 -15,-12.5"
         id="path76"
         inkscape:connector-curvature="0"
         style="fill:#c3d0e2" /><path
         d="m 2358.9,2141.8 c 186.67,-3.9 373.34,-7.78 560,-11.67 -3.82,2.42 -7.64,4.82 -11.46,7.23 -19.78,-466.61 -39.57,-933.21 -59.35,-1399.8 -0.22,-5.051 -0.43,-10.11 -0.65,-15.168 9.01,4.238 18.02,8.468 27.03,12.687 -492.29,-28.73 -984.58,-57.469 -1476.9,-86.211 -120.24,-7.019 -240.5,-14.039 -360.75,-21.058 -33.85,-1.969 -67.708,-3.95 -101.56,-5.918 -8.09,-0.481 -16.187,-0.953 -24.277,-1.422 -14.242,-0.84 4.918,-2 4.957,-3.82 -4.82,215.63 -9.645,431.26 -14.469,646.89 -6.832,305.58 -13.668,611.17 -20.504,916.76 -9.031,-5.04 -18.066,-10.09 -27.097,-15.14 160,-2.71 319.99,-5.42 479.99,-8.13 13.2,-0.23 41.61,19.48 15.57,19.92 -160,2.72 -320,5.43 -479.99,8.13 -8.18,0.14 -27.344,-4.21 -27.101,-15.13 10.968,-490.4 21.933,-980.8 32.902,-1471.2 0.695,-31.269 1.394,-62.531 2.098,-93.801 0.093,-4.289 8.98,-4.941 11.535,-4.789 492.29,28.739 984.57,57.481 1476.8,86.207 164.39,9.602 328.77,19.192 493.15,28.793 6.13,0.36 26.62,3.438 27.02,12.688 19.79,466.61 39.57,933.22 59.36,1399.8 0.21,5.06 0.43,10.11 0.64,15.17 0.27,6.42 -6.23,7.13 -11.45,7.23 -186.67,3.89 -373.34,7.78 -560,11.67 -13.23,0.28 -41.62,-19.38 -15.57,-19.92"
         id="path78"
         inkscape:connector-curvature="0"
         style="fill:#231f20" /><path
         d="m 1990.2,2092.8 h -9.92 c 0.01,-95.57 -34.41,-181.92 -89.77,-244.25 -55.4,-62.32 -131.43,-100.55 -215.35,-100.56 -83.92,0.01 -159.95,38.24 -215.35,100.56 -55.36,62.33 -89.78,148.68 -89.77,244.25 -0.01,95.56 34.41,181.91 89.77,244.23 55.4,62.34 131.43,100.56 215.35,100.57 83.92,-0.01 159.95,-38.23 215.35,-100.57 55.36,-62.32 89.78,-148.67 89.77,-244.23 h 19.85 c -0.01,100.34 -36.11,191.35 -94.78,257.41 -58.63,66.06 -140.11,107.25 -230.19,107.23 -90.08,0.02 -171.56,-41.17 -230.18,-107.23 -58.68,-66.06 -94.78,-157.07 -94.79,-257.41 0.01,-100.34 36.11,-191.36 94.79,-257.43 58.62,-66.05 140.1,-107.24 230.18,-107.23 90.08,-0.01 171.56,41.18 230.19,107.23 58.67,66.07 94.77,157.09 94.78,257.43 h -9.93"
         id="path80"
         inkscape:connector-curvature="0"
         style="fill:#231f20" /><path
         d="m 1901.6,2348.5 c 49.63,44.75 112.24,71.32 180.38,71.34 79.57,-0.01 151.66,-36.25 204.21,-95.38 52.5,-59.1 85.15,-141.03 85.15,-231.69 0,-90.67 -32.65,-172.59 -85.15,-231.7 -52.55,-59.12 -124.64,-95.36 -204.21,-95.37 -71.27,0.01 -136.48,29.07 -187.11,77.6 l -13.74,-14.33 c 53.86,-51.69 124.09,-83.13 200.85,-83.11 85.72,-0.02 163.27,39.19 219.04,102.03 55.82,62.86 90.16,149.43 90.17,244.88 -0.01,95.44 -34.35,182.02 -90.17,244.87 -55.77,62.85 -133.32,102.06 -219.04,102.04 -73.38,0 -140.82,-28.74 -193.67,-76.45 l 13.29,-14.73"
         id="path82"
         inkscape:connector-curvature="0"
         style="fill:#231f20" /><path
         d="m 1520.4,646.11 c 65.43,-137.14 106.84,-280.97 73.53,-433.66 6.95,3.352 13.91,6.692 20.86,10.039 -176.27,55.313 -392.66,18.481 -464.29,-171.22 -2.97,-7.8789 4.7,-11.988 11.56,-11.711 225.75,9.4531 451.49,18.891 677.24,28.34 5.65,0.2305 17.19,5.9532 14.21,13.524 -15.59,39.59 -44.12,73.137 -75.94,100.66 -9.95,8.609 -56.08,30.699 -55.88,34.668 0.83,16.09 2.16,32.16 3.59,48.211 11.93,133.37 33.4,289.13 116.71,398.38 10.23,13.422 -14.55,18.269 -22.15,8.308 -95.02,-124.59 -118.74,-309.68 -125.11,-462.34 -0.18,-4.161 2.25,-6.61 5.83,-8.239 54.5,-24.89 104.27,-69.832 126.66,-126.69 4.74,4.5 9.47,9.0117 14.21,13.52 -225.75,-9.4492 -451.49,-18.887 -677.24,-28.34 3.85,-3.8984 7.7,-7.7969 11.56,-11.699 66.01,174.82 261.67,207.29 424.01,156.36 8.12,-2.547 18.89,1 20.86,10.031 33.6,154.03 -7.79,300.27 -73.93,438.9 -5.67,11.883 -31.7,4.293 -26.29,-7.039"
         id="path84"
         inkscape:connector-curvature="0"
         style="fill:#231f20" /><path
         d="m 1339.5,2408.4 c 0,0 105.75,251.62 404.76,171.37 0,0 -331.82,269.84 -404.76,-171.37"
         id="path86"
         inkscape:connector-curvature="0"
         style="fill:#231f20" /><path
         d="m 1339.5,2408.4 7.26,-3.05 0.18,0.42 c 2.14,4.91 23.04,50.73 68.49,94.96 45.53,44.23 115.12,86.92 216.21,86.96 33.3,0 70.06,-4.65 110.58,-15.52 l 7.01,13.72 c -0.26,0.2 -25.7,20.89 -64.27,41.66 -38.58,20.73 -90.3,41.73 -143.66,41.78 -43.57,0.09 -88.45,-14.47 -125.78,-54.61 -37.36,-40.09 -67.22,-104.88 -83.8,-205.04 l 15.04,-4.33 -7.26,3.05 7.77,-1.29 c 16.24,98.31 45.38,160.04 79.77,196.87 34.41,36.78 74.03,49.51 114.26,49.6 49.15,0.05 98.92,-19.8 136.19,-39.9 18.64,-10.03 34.16,-20.09 44.98,-27.61 5.41,-3.76 9.65,-6.89 12.52,-9.06 1.43,-1.09 2.52,-1.94 3.25,-2.51 l 1.05,-0.83 4.97,6.1 2.04,7.61 c -41.73,11.2 -79.89,16.06 -114.66,16.06 -109.14,0.06 -184.4,-48.05 -231.72,-95.91 -47.41,-47.89 -67.43,-95.5 -67.68,-96.08 l 7.26,-3.05 7.77,-1.29 -7.77,1.29"
         id="path88"
         inkscape:connector-curvature="0"
         style="fill:#231f20" /><path
         d="m 2412.3,2068.3 -3.79,-75.7 c 0,0 25.18,-31.99 -0.27,-65.14 l -5.88,-59.03 c 0,0 30.47,-24.79 -0.33,-66.14 l -5.41,-69.3 55.24,-4.74 c 0,0 36.62,18.93 56.4,-0.9 l 81.03,-4.24 c 0,0 32.26,30.92 67.44,1.24 l 71.19,-2.49 c 0,0 44.35,34.87 74.2,-2.02 l 41.5,-2.28 4.05,81.76 c 0,0 -25.99,35.16 3.17,63.58 l 1.24,64.96 c 0,0 -32.28,28.16 5.85,58.01 l 3.77,75.72 -49.45,1.68 c 0,0 -27.95,-24.56 -69.25,2.14 l -62.34,0.93 c 0,0 -35.56,-37.46 -77.35,-1.49 l -78.12,2.7 c 0,0 -26.6,-37.02 -56.39,1.88 l -56.5,-1.13"
         id="path90"
         inkscape:connector-curvature="0"
         style="fill:#ffffff" /><path
         d="m 2457.7,2025.6 342.56,-3.98 -4.67,-253.77 -350.45,5.38 12.56,252.37"
         id="path92"
         inkscape:connector-curvature="0"
         style="fill:#93ff51" /><path
         d="m 2795.4,1762.7 0.12,7.99 -342.57,5.23 10.54,243.76 334.78,-5.1 -10.85,-251.54 7.98,-0.34 0.12,7.99 -0.12,-7.99 7.99,-0.35 11.58,267.97 -366.79,5.59 -11.93,-275.74 366.81,-5.59 0.33,7.77 -7.99,0.35"
         id="path94"
         inkscape:connector-curvature="0"
         style="fill:#231f20" /><path
         d="m 2411.3,2070.8 -0.1,-7.2 56.44,-0.86 0.11,7.2 -6.12,-3.79 c 0.23,-0.36 3.38,-5.46 9.26,-10.77 5.83,-5.26 14.72,-11.05 26.28,-11.09 10.1,-0.04 21.22,4.71 32.03,15.76 l -5.12,5.05 -0.11,-7.2 c 0.01,0 77.55,-1.19 81.62,-1.24 l 0.07,5.81 -2.64,-5.22 c 0.33,-0.13 0.99,-0.53 2.56,-0.59 l 0.08,5.81 -2.64,-5.22 1.42,2.79 -1.68,-2.64 0.26,-0.15 1.42,2.79 -1.68,-2.64 0.02,-0.01 c 0.35,-0.23 1.87,-1.59 3.79,-3.22 5.81,-4.94 16.79,-13.08 32.91,-13.06 12.25,-0.01 26.79,4.71 43.46,17.2 l -4.3,5.76 -0.11,-7.2 67.24,-1.02 0.1,7.19 -4.41,-5.68 c 0.62,-0.38 16.89,-13.3 39.72,-13.45 10.79,-0.03 23.03,3.19 34.57,12.1 l -4.39,5.71 -0.25,-7.2 40.1,-1.43 -2.87,-65.47 7.2,-0.31 -4.9,5.27 c -0.25,-0.24 -4.84,-4.51 -9.56,-11.45 -4.66,-6.95 -9.68,-16.66 -9.74,-28.21 0,-5.33 1.16,-11 3.96,-16.49 2.77,-5.49 7.11,-10.75 13.15,-15.55 l 4.48,5.63 -7.19,0.31 -2.72,-62.14 7.2,-0.32 -5.01,5.18 c -0.27,-0.29 -4.51,-4.39 -8.84,-11.31 -4.3,-6.9 -8.81,-16.72 -8.84,-28.46 -0.05,-10.74 4.13,-22.82 14.75,-33.83 l 5.21,4.98 -7.2,0.19 -2.15,-80.58 -0.06,-1.23 7.19,-0.37 0.11,7.2 -40.27,0.62 -0.11,-7.2 5.89,4.15 c -0.31,0.43 -3.85,5.41 -10.8,10.5 -6.91,5.06 -17.45,10.22 -31.08,10.21 -11.69,0.02 -25.35,-3.82 -40.4,-13.76 l 3.96,-6.01 0.11,7.2 c -0.04,0 -17.47,0.26 -35.45,0.53 -17.97,0.27 -36.46,0.55 -38.43,0.58 h -0.04 l -0.06,-5.5 2.16,5.1 c -0.23,0.07 -0.7,0.35 -2.1,0.4 l -0.06,-5.5 2.16,5.1 -0.77,-1.81 0.92,1.74 -0.15,0.07 -0.77,-1.81 0.92,1.74 c -0.13,0.03 -1.84,1.2 -3.89,2.65 -6.36,4.39 -18.01,12.14 -33.56,12.18 -11.42,0.05 -24.43,-4.47 -37.33,-16.17 l 4.82,-5.35 0.08,7.2 -80.28,0.87 -0.07,-7.2 5.32,4.85 c -0.31,0.33 -3.6,3.92 -9.44,7.57 -5.84,3.63 -14.36,7.38 -24.89,7.39 -9.65,0.03 -20.72,-3.31 -31.83,-11.91 l 4.39,-5.7 0.11,7.2 -48.99,0.75 2.84,65.29 -7.2,0.31 4.9,-5.27 c 0.25,0.25 4.84,4.51 9.55,11.46 4.67,6.94 9.68,16.67 9.73,28.21 0.01,5.33 -1.15,11 -3.94,16.48 -2.77,5.5 -7.11,10.76 -13.13,15.57 l -4.49,-5.63 7.19,-0.31 2.66,62.13 -7.2,0.31 5,-5.18 c 0.29,0.28 4.53,4.39 8.86,11.31 4.31,6.9 8.83,16.73 8.86,28.46 0.06,10.76 -4.13,22.85 -14.79,33.85 l -5.19,-4.98 7.19,-0.19 2.17,80.65 0.04,1.31 -7.2,0.21 -0.1,-7.2 0.1,7.2 -7.19,0.22 -0.04,-1.33 -2.25,-83.69 2.08,-2.17 c 8.38,-8.83 10.71,-16.65 10.77,-23.88 0.03,-7.86 -3.2,-15.33 -6.66,-20.82 -1.71,-2.75 -3.44,-4.97 -4.71,-6.47 l -1.5,-1.68 -0.38,-0.38 -0.07,-0.08 0.85,-0.86 -0.84,0.87 -0.01,-0.01 0.85,-0.86 -0.84,0.87 -2.07,-2 -2.94,-68.65 2.86,-2.28 c 4.69,-3.74 7.54,-7.38 9.27,-10.8 1.72,-3.43 2.38,-6.69 2.39,-9.99 0.05,-7.07 -3.42,-14.54 -7.25,-20.14 -1.9,-2.8 -3.81,-5.11 -5.24,-6.69 l -1.68,-1.78 -0.43,-0.43 -0.08,-0.09 -2.17,-2.01 -3.59,-83.03 66.3,-1.02 2,1.53 c 9.03,6.92 16.6,8.89 23.04,8.92 7,0.01 12.98,-2.54 17.27,-5.21 2.14,-1.33 3.82,-2.67 4.93,-3.64 l 1.21,-1.13 0.26,-0.26 0.01,-0.01 2.11,-2.32 86.22,-0.93 2.09,1.88 c 10.92,9.76 19.95,12.41 27.69,12.46 7.72,0.01 14.59,-2.93 20.05,-6.16 2.72,-1.62 5.04,-3.26 7,-4.64 1,-0.69 1.88,-1.31 2.87,-1.91 l 1.75,-0.91 c 0.73,-0.28 1.63,-0.68 3.36,-0.73 h -0.04 c 4.02,-0.07 73.91,-1.12 73.92,-1.12 l 2.21,-0.03 1.86,1.22 c 13.21,8.69 23.91,11.37 32.47,11.38 9.94,-0.01 17.4,-3.68 22.6,-7.45 2.56,-1.87 4.53,-3.77 5.8,-5.15 l 1.39,-1.6 0.3,-0.38 0.04,-0.05 2.26,1.64 -2.28,-1.61 0.02,-0.03 2.26,1.64 -2.28,-1.61 2.11,-3 50.87,-0.78 0.42,8.26 0.01,0.1 2.23,83.74 -2.07,2.17 c -8.37,8.83 -10.69,16.65 -10.75,23.87 -0.03,7.87 3.19,15.34 6.64,20.84 1.71,2.73 3.45,4.95 4.72,6.45 l 1.49,1.68 0.37,0.39 0.08,0.07 -0.87,0.87 0.86,-0.88 0.01,0.01 -0.87,0.87 0.86,-0.88 2.06,1.99 3,68.68 -2.87,2.28 c -4.69,3.74 -7.54,7.38 -9.28,10.79 -1.72,3.43 -2.38,6.69 -2.39,9.99 -0.05,7.06 3.42,14.53 7.25,20.13 1.9,2.8 3.82,5.11 5.24,6.68 l 1.68,1.79 0.44,0.43 0.08,0.09 2.16,2.01 3.63,82.91 -57.2,2.05 -2.06,-1.58 c -9.06,-6.93 -17.71,-9.09 -25.79,-9.12 -8.5,-0.01 -16.36,2.6 -22.05,5.28 -2.85,1.34 -5.13,2.68 -6.66,3.66 l -1.73,1.16 -0.39,0.28 -0.08,0.06 -0.94,-1.25 0.96,1.24 -0.02,0.01 -0.94,-1.25 0.96,1.24 -1.91,1.47 -72.09,1.1 -1.96,-1.47 c -14.97,-11.17 -26.35,-14.32 -34.85,-14.33 -8.46,0.02 -14.67,3.1 -19.5,6.46 -2.4,1.68 -4.37,3.41 -6.08,4.89 -0.86,0.74 -1.64,1.43 -2.59,2.13 l -1.79,1.12 c -0.78,0.37 -1.84,0.89 -3.74,0.95 -1.99,0.02 -22.42,0.34 -42.3,0.64 -19.9,0.3 -39.26,0.6 -39.3,0.6 l -3.07,0.05 -2.16,-2.2 c -9.08,-9.13 -16.16,-11.42 -21.78,-11.45 -6.41,-0.04 -12.24,3.39 -16.63,7.36 -2.17,1.96 -3.9,3.96 -5.06,5.44 l -1.28,1.73 -0.29,0.43 -0.05,0.09 -1.38,-0.88 1.39,0.86 -0.01,0.02 -1.38,-0.88 1.39,0.86 -2.08,3.35 -67.47,1.03 -0.21,-7.09 7.19,-0.22"
         id="path96"
         inkscape:connector-curvature="0"
         style="fill:#231f20" /><path
         d="m 1743.4,1998.6 c 0,-61.03 -49.48,-110.52 -110.51,-110.52 -61.04,0 -110.52,49.49 -110.52,110.52 0,61.03 49.48,110.51 110.52,110.51 61.03,0 110.51,-49.48 110.51,-110.51"
         id="path98"
         inkscape:connector-curvature="0"
         style="fill:#00adef" /><path
         d="m 1743.4,1998.6 h -7.86 c 0,-28.37 -11.47,-53.98 -30.07,-72.59 -18.59,-18.59 -44.21,-30.07 -72.58,-30.07 -28.37,0 -53.99,11.48 -72.59,30.07 -18.6,18.61 -30.07,44.22 -30.08,72.59 0.01,28.37 11.48,53.99 30.08,72.59 18.6,18.58 44.22,30.06 72.59,30.06 28.37,0 53.99,-11.48 72.59,-30.06 18.59,-18.6 30.06,-44.22 30.06,-72.59 h 15.72 c 0,65.38 -53,118.36 -118.37,118.37 -65.38,0 -118.37,-52.99 -118.38,-118.37 0.01,-65.38 53,-118.37 118.38,-118.38 65.38,0.01 118.37,53 118.37,118.38 h -7.86"
         id="path100"
         inkscape:connector-curvature="0"
         style="fill:#00adef" /><path
         d="m 1686.1,1990.4 c 0,-30.88 -25.03,-55.93 -55.93,-55.93 -30.9,0 -55.95,25.05 -55.95,55.93 0,30.91 25.05,55.95 55.95,55.95 30.9,0 55.93,-25.04 55.93,-55.95"
         id="path102"
         inkscape:connector-curvature="0"
         style="fill:#231f20" /><path
         d="m 1686.1,1990.4 h -10.91 c -0.01,-12.46 -5.02,-23.64 -13.19,-31.82 -8.18,-8.17 -19.36,-13.19 -31.83,-13.19 -12.47,0 -23.66,5.02 -31.84,13.19 -8.17,8.18 -13.19,19.36 -13.19,31.82 0,12.48 5.02,23.66 13.19,31.85 8.18,8.16 19.37,13.18 31.84,13.18 12.47,-0.01 23.65,-5.02 31.83,-13.18 8.16,-8.18 13.18,-19.36 13.19,-31.85 h 21.82 c 0,36.94 -29.91,66.86 -66.84,66.86 -36.93,0 -66.85,-29.92 -66.86,-66.86 0.01,-36.92 29.93,-66.83 66.86,-66.84 36.93,0.01 66.84,29.93 66.84,66.84 h -10.91"
         id="path104"
         inkscape:connector-curvature="0"
         style="fill:#231f20" /><path
         d="m 1706.6,2024.5 c 0,-15.82 -12.82,-28.63 -28.65,-28.63 -15.83,0 -28.66,12.81 -28.66,28.63 0,15.83 12.83,28.66 28.66,28.66 15.83,0 28.65,-12.83 28.65,-28.66"
         id="path106"
         inkscape:connector-curvature="0"
         style="fill:#ffffff" /><path
         d="m 2249.2,1993.2 c 0,-61.04 -49.47,-110.51 -110.51,-110.51 -61.03,0 -110.51,49.47 -110.51,110.51 0,61.02 49.48,110.52 110.51,110.52 61.04,0 110.51,-49.5 110.51,-110.52"
         id="path108"
         inkscape:connector-curvature="0"
         style="fill:#00adef" /><path
         d="m 2249.2,1993.2 h -7.86 c 0,-28.37 -11.47,-53.99 -30.06,-72.59 -18.6,-18.59 -44.21,-30.06 -72.59,-30.06 -28.37,0 -53.98,11.47 -72.58,30.06 -18.59,18.6 -30.07,44.22 -30.07,72.59 0,28.37 11.48,53.98 30.07,72.59 18.6,18.58 44.21,30.06 72.58,30.07 28.38,-0.01 53.99,-11.49 72.59,-30.07 18.59,-18.61 30.06,-44.22 30.06,-72.59 h 15.73 c -0.01,65.37 -52.99,118.37 -118.38,118.37 -65.37,0 -118.36,-53 -118.36,-118.37 0,-65.38 52.99,-118.36 118.36,-118.37 65.39,0.01 118.37,52.99 118.38,118.37 h -7.87"
         id="path110"
         inkscape:connector-curvature="0"
         style="fill:#00adef" /><path
         d="m 2191.9,1985 c 0,-30.88 -25.04,-55.94 -55.93,-55.94 -30.91,0 -55.95,25.06 -55.95,55.94 0,30.89 25.04,55.95 55.95,55.95 30.89,0 55.93,-25.06 55.93,-55.95"
         id="path112"
         inkscape:connector-curvature="0"
         style="fill:#231f20" /><path
         d="m 2191.9,1985 h -10.92 c 0,-12.46 -5.02,-23.65 -13.18,-31.84 -8.19,-8.17 -19.37,-13.19 -31.83,-13.19 -12.47,0 -23.66,5.03 -31.84,13.19 -8.17,8.19 -13.19,19.38 -13.19,31.84 0,12.46 5.02,23.65 13.19,31.85 8.18,8.16 19.37,13.18 31.84,13.19 12.46,-0.01 23.64,-5.03 31.83,-13.19 8.16,-8.19 13.18,-19.39 13.18,-31.85 h 21.84 c -0.01,36.92 -29.92,66.86 -66.85,66.86 -36.94,0 -66.85,-29.94 -66.86,-66.86 0.01,-36.92 29.92,-66.85 66.86,-66.86 36.93,0.01 66.84,29.94 66.85,66.86 h -10.92"
         id="path114"
         inkscape:connector-curvature="0"
         style="fill:#231f20" /><path
         d="m 2212.4,2019.1 c 0,-15.82 -12.83,-28.65 -28.65,-28.65 -15.82,0 -28.66,12.83 -28.66,28.65 0,15.83 12.84,28.66 28.66,28.66 15.82,0 28.65,-12.83 28.65,-28.66"
         id="path116"
         inkscape:connector-curvature="0"
         style="fill:#ffffff" /><path
         d="m 2408.5,2346.7 c 0,0 -105.72,251.63 -404.74,171.41 0,0 331.83,269.82 404.74,-171.41"
         id="path118"
         inkscape:connector-curvature="0"
         style="fill:#231f20" /><path
         d="m 2408.5,2346.7 7.27,3.05 c -0.27,0.58 -20.29,48.2 -67.68,96.09 -47.32,47.87 -122.59,95.98 -231.73,95.93 -34.76,0 -72.92,-4.86 -114.64,-16.05 l 2.04,-7.61 4.97,-6.12 1.05,0.84 c 5.44,4.28 31.52,24.21 67.88,42.93 36.35,18.77 82.97,36.19 129.04,36.15 40.24,-0.1 79.85,-12.83 114.27,-49.61 34.39,-36.83 63.53,-98.57 79.76,-196.88 l 7.77,1.28 7.27,3.05 -7.27,-3.05 7.77,1.29 c -16.57,100.16 -46.42,164.96 -83.78,205.05 -37.33,40.14 -82.21,54.71 -125.79,54.62 -53.36,-0.06 -105.06,-21.05 -143.64,-41.78 -38.57,-20.77 -64.01,-41.45 -64.27,-41.66 l 7.01,-13.72 c 40.5,10.87 77.26,15.52 110.56,15.52 104.35,-0.05 175.15,-45.53 220.53,-91.26 22.65,-22.86 38.81,-45.77 49.27,-62.91 5.22,-8.57 9.02,-15.69 11.5,-20.64 1.24,-2.47 2.15,-4.4 2.74,-5.69 l 0.66,-1.44 0.17,-0.43 15.04,4.34 -7.77,-1.29"
         id="path120"
         inkscape:connector-curvature="0"
         style="fill:#231f20" /><path
         d="m 2140.9,684.2 c -68.59,-128.95 -103.3,-264.93 -77.81,-411.44 1.15,-6.614 10.76,-7.18 15.67,-5.883 165.77,43.922 362.24,1.082 420.66,-177.77 5.87,4.4804 11.74,8.9492 17.61,13.422 -225.1,19.61 -450.19,39.231 -675.28,58.828 2.72,-3.859 5.44,-7.718 8.16,-11.589 24.94,55.82 75.83,97.359 131.41,119.77 3.42,1.383 7.17,5.16 7.42,9.031 8.43,131.18 -3.07,277.67 -62.82,396.2 -5.51,10.929 -30.43,0.941 -24.02,-11.79 55.66,-110.41 64.42,-242.87 61.1,-364.61 -0.13,-4.762 -0.34,-9.512 -0.55,-14.269 -0.51,-11.403 0.71,-0.852 -6.77,-3.864 -29.11,-11.75 -55,-31.718 -77.48,-53.207 -21.55,-20.59 -41.28,-46.429 -53.53,-73.851 -2.62,-5.879 2.36,-11.098 8.16,-11.598 225.09,-19.613 450.18,-39.23 675.27,-58.844 6.59,-0.5664 20.67,4.043 17.61,13.41 -62.57,191.54 -274.72,236.5 -451.99,189.53 5.21,-1.961 10.44,-3.918 15.66,-5.879 -24.88,143.03 9.9,275.3 76.76,400.99 7.14,13.41 -19.56,14.082 -25.24,3.41"
         id="path122"
         inkscape:connector-curvature="0"
         style="fill:#231f20" /><path
         d="m 1660.3,1746.4 c -84.68,0 -161.48,40.11 -217.37,104.53 -55.85,64.4 -90.53,153.02 -90.52,249.25 0,96.2 35.22,181.59 91.62,242.89 56.42,61.31 133.87,98.48 218.75,98.49 v 14.29 c -89.12,0.01 -170.43,-39.12 -229.26,-103.1 -58.87,-63.98 -95.4,-152.86 -95.4,-252.57 0.01,-99.67 35.85,-191.53 94.01,-258.62 58.14,-67.07 138.86,-109.46 228.17,-109.45 v 14.29"
         id="path124"
         inkscape:connector-curvature="0"
         style="fill:#231f20" /><path
         d="m 1270.7,1696.6 c 39.12,-64.26 99.25,-143.78 181.53,-212.65 80.01,-69.76 192.72,-121.51 300.27,-112.39 104.46,5.95 198.18,35.26 256.83,72.82 59.66,36.84 82.24,76.72 80.41,77.39 -1.03,0.9 -25.57,-36.02 -85.16,-69.49 -58.62,-34.19 -150.48,-60.27 -253.04,-64.02 -215.52,-12.44 -389.76,203.39 -460.31,320.14 l -20.53,-11.8"
         id="path126"
         inkscape:connector-curvature="0"
         style="fill:#231f20" /><path
         d="m 1196,1664.4 c 0.07,-0.59 9.03,-145.28 67.95,-291.01 29.49,-72.85 71.51,-146.11 131.82,-201.53 60.23,-55.43 139.16,-92.67 240.12,-92.6 8.41,0 16.97,0.26 25.69,0.78 l 0.08,0.01 h 0.07 c 0.83,0.11 39.09,2.9 78.31,25.72 19.58,11.42 39.43,28 54.33,51.84 14.91,23.83 24.67,54.8 24.64,94.05 0,35.15 -7.71,76.93 -26.15,126.83 -1.91,5.18 -7.66,7.83 -12.84,5.91 -5.19,-1.91 -7.83,-7.66 -5.92,-12.84 17.82,-48.2 24.92,-87.7 24.91,-119.9 -0.02,-35.99 -8.77,-62.86 -21.61,-83.45 -19.24,-30.82 -48.38,-47.97 -73.13,-57.38 -12.35,-4.69 -23.52,-7.43 -31.52,-8.97 -4,-0.77 -7.21,-1.24 -9.38,-1.52 -1.08,-0.14 -1.9,-0.23 -2.44,-0.28 l -0.58,-0.06 -0.12,-0.01 0.75,-9.97 -0.59,9.98 c -8.33,-0.49 -16.49,-0.74 -24.5,-0.74 -96,0.08 -169.29,34.81 -226.59,87.33 -85.89,78.75 -134.72,198.58 -161.5,298.84 -13.42,50.12 -21.39,95.28 -26,127.86 -2.3,16.29 -3.77,29.43 -4.65,38.48 -0.45,4.52 -0.74,8.01 -0.93,10.37 -0.18,2.35 -0.26,3.5 -0.26,3.51 -0.34,5.51 -5.09,9.7 -10.6,9.35 -5.52,-0.34 -9.71,-5.09 -9.36,-10.6"
         id="path128"
         inkscape:connector-curvature="0"
         style="fill:#231f20" /><path
         d="m 1347.9,1239.4 c 40.01,26.36 127.7,50.08 193.53,20.21 66.41,-26.77 102.13,-79.53 105.74,-75.63 1.74,0.04 -28.27,57.98 -98.72,92.08 -71.01,37.02 -168.33,15.14 -214.51,-15.57 l 13.96,-21.09"
         id="path130"
         inkscape:connector-curvature="0"
         style="fill:#231f20" /><path
         d="m 1583.1,1248.6 c 0.83,0.45 27.17,13.6 63.49,13.56 19.16,-0.01 41.07,-3.57 63.96,-14.43 22.88,-10.87 46.86,-29.05 70.02,-58.9 3.39,-4.36 9.66,-5.16 14.03,-1.77 4.37,3.39 5.16,9.67 1.77,14.03 -24.83,32.04 -51.39,52.45 -77.25,64.71 -25.85,12.27 -50.89,16.37 -72.53,16.36 -42.43,-0.05 -71.89,-15.42 -72.74,-15.83 -4.9,-2.55 -6.8,-8.59 -4.25,-13.49 2.56,-4.9 8.6,-6.8 13.5,-4.24"
         id="path132"
         inkscape:connector-curvature="0"
         style="fill:#231f20" /><path
         d="m 1223.9,1499 c 54.31,-62.47 174.7,-136.2 290.59,-146.68 115.4,-12.88 205.47,23.63 204.31,24.08 -0.47,4.29 -91.17,-27.02 -202.65,-11.06 -111.74,13.2 -227.36,87.28 -278.11,145.69 L 1223.9,1499"
         id="path134"
         inkscape:connector-curvature="0"
         style="fill:#231f20" /><path
         d="m 1316,1800 c 8.36,8.14 20.9,-90.36 -71.76,-128.5 -86.35,-38.04 -157.12,10.16 -150.74,13.5 0.96,5.93 67.73,-27.91 142.12,5.9 79,31.2 76.38,111.58 80.38,109.1"
         id="path136"
         inkscape:connector-curvature="0"
         style="fill:#231f20" /><path
         d="m 1703.5,1037.5 c 1.99,-0.17 2.32,-23.99 -15.66,-57.451 -17.51,-32.859 -63.05,-70.148 -119.01,-78.117 -120.68,-24.672 -193.94,58.969 -187.83,58.066 1.6,8.293 78.01,-60.937 182.59,-37.906 113.69,16.316 135.98,120.46 139.91,115.41"
         id="path138"
         inkscape:connector-curvature="0"
         style="fill:#231f20" /><path
         d="m 1612.4,912.23 c -10.78,-26.191 -53.46,-50.949 -89.8,-49.332 -36.07,-0.988 -63.77,9.442 -63.03,11.391 0.35,2.242 28.6,-3.937 62.15,-0.168 34.41,1.949 67.69,24.219 76.67,45.66 1.76,2.84 16.01,-4.211 14.01,-7.551"
         id="path140"
         inkscape:connector-curvature="0"
         style="fill:#231f20" /><path
         d="m 3355.8,1314.8 c -36.87,36.86 -84.72,231.99 6.8,223.85 39.19,-3.48 101.57,-5.41 102,46.69 0.43,51.47 -52.31,248.41 72.42,200.68 41.33,-15.81 74.28,-64.83 86.16,-104.88 14.67,-49.45 -7.59,-116.64 -39.39,-156.53 -6.42,-8.08 19.7,-5.05 24.28,0.69 69.03,86.64 57.16,204.49 -36.84,265.72 -57.42,37.41 -134.32,15.15 -142.7,-55.6 -5.71,-48.27 6.13,-98.64 9.19,-146.51 3.4,-53.28 -87.79,-29.68 -123.04,-46.18 -67.4,-31.56 -19.56,-201.66 16.39,-237.62 5.68,-5.68 30.41,3.99 24.73,9.69"
         id="path142"
         inkscape:connector-curvature="0"
         style="fill:#231f20" /><path
         d="m 3612.2,1538 c 44.23,1.23 82.28,-8.91 115.55,-40.63 46.55,-44.39 -0.45,-96.71 -35.98,-126.23 -42.69,-35.48 -106.2,-42.57 -154.46,-14.72 -74.45,42.96 72.91,130.17 104.41,143.46 16.73,7.06 1.86,20.97 -11.62,15.28 -38.24,-16.13 -169.79,-84.24 -138.8,-143.42 30.09,-57.43 114.17,-61.94 168.51,-40.14 55.69,22.34 121.49,74.52 111.55,141.02 -10.15,67.95 -102.9,85.92 -156.74,84.43 -14.92,-0.42 -20.43,-19.55 -2.42,-19.05"
         id="path144"
         inkscape:connector-curvature="0"
         style="fill:#231f20" /><path
         d="m 3732.5,1397.7 c 30.31,-5.06 34.73,-35.1 33.74,-60.38 -1.57,-40.44 -46.36,-74.35 -78.74,-90.4 -28.88,-14.33 -102.39,-20.92 -119.85,16.33 -9.72,20.72 5.32,49.1 20.18,63.07 4.99,4.69 -19.43,1.5 -23.77,-2.59 -16.87,-15.86 -41.03,-61.22 -14.5,-80.53 32.86,-23.93 87.04,-18.9 124.1,-8.97 40.59,10.88 72.65,34.73 100.27,65.78 27.38,30.77 29.4,99.16 -19.55,107.33 -5.91,0.99 -28.29,-8.57 -21.88,-9.64"
         id="path146"
         inkscape:connector-curvature="0"
         style="fill:#231f20" /><path
         d="m 3729.5,1256.6 c 47.77,7.8 42.83,-38.05 23.46,-62.82 -17.78,-22.74 -48.27,-41.3 -75.05,-50.74 -27.45,-9.68 -65.67,-12.92 -86.58,10.53 -24.92,27.97 -4.43,53.93 16.74,74.72 11.47,11.26 -14.42,13.07 -21.64,5.99 -32.27,-31.7 -46.16,-61.73 -12.54,-99.45 26.2,-29.39 95.48,-15.86 125.13,-1.35 39.04,19.1 79.13,45.43 94.62,87.79 16.27,44.47 -29.22,57.41 -61.13,52.2 -13.46,-2.2 -21.1,-19.83 -3.01,-16.87"
         id="path148"
         inkscape:connector-curvature="0"
         style="fill:#231f20" /><path
         d="m 3422.8,1159 c 11.3,-42.81 48.15,-76.11 92.36,-79.86 37,-3.14 76.31,14.04 91.03,49.24 5.95,14.25 -20.67,14.52 -25.35,3.33 -29.35,-70.2 -117.68,-18.43 -131.62,34.37 -3.32,12.6 -29.75,5.53 -26.42,-7.08"
         id="path150"
         inkscape:connector-curvature="0"
         style="fill:#231f20" /><path
         d="m 3457.6,1120 c -0.03,5.02 24.77,-44.23 -30.87,-83.79 -64.67,-29.39 -142.37,33.21 -185.99,103.21 -24.32,36.17 -40.81,75.94 -44.13,115.3 -6.01,38.92 22.28,82.62 56.41,82.76 61.37,3.31 88.07,-29.11 86.24,-29.14 -1.17,-5.17 -32.76,19.52 -83.51,11.95 -57.27,-8.63 -40.68,-104.34 5.44,-167.15 42.11,-68.52 110.76,-120.31 157.91,-101.28 44.39,24.3 33.81,71.41 38.5,68.14"
         id="path152"
         inkscape:connector-curvature="0"
         style="fill:#231f20" /><path
         d="m 2899.3,1431.2 c 15.26,-70.57 42.45,-200.89 137.4,-265.74 108.1,-51.28 189.76,23.3 183.6,21.51 1.89,6.03 -83.06,-55.07 -173.62,-5.19 -80.32,58.8 -107.03,186.94 -120.66,253.71 l -26.72,-4.29"
         id="path154"
         inkscape:connector-curvature="0"
         style="fill:#231f20" /><path
         d="m 2883.1,1102.1 c 19.47,-32.67 51.69,-69.58 99.25,-94.1 47.66,-25.859 106.82,-26.059 155.34,-16.219 104.86,17.019 150.75,102.04 143.4,102.18 -1.85,2.63 -50.46,-69.73 -147.49,-79.14 -96.88,-23.23 -193.71,45.27 -221.42,103.07 l -29.08,-15.79"
         id="path156"
         inkscape:connector-curvature="0"
         style="fill:#231f20" /><path
         d="m 3416,1186.7 c -1.58,-2.86 -26.13,12.81 -42.12,42.8 -16.18,29.41 -21.17,56.34 -17.88,57.2 3.3,0.98 13.36,-23.26 28.7,-51.12 15.05,-28.2 33.45,-45.84 31.3,-48.88"
         id="path158"
         inkscape:connector-curvature="0"
         style="fill:#231f20" /><path
         d="m 464.46,1338 c 39.566,39.56 78.453,189.37 28.414,233.67 -34.726,30.74 -136.28,-9.35 -133.55,53.59 2.114,48.52 14.918,98.51 9.129,147.41 -9.687,81.82 -90.664,82.54 -148.68,44.75 -92.364,-60.17 -96.161,-184.63 -30.926,-266.49 7.25,-9.1 32.461,1.15 24.238,11.48 -64.062,80.38 -56.262,204.32 41.879,253.61 112.88,56.7 86.477,-121.39 78.809,-174.59 -8.864,-61.49 17.867,-77.04 76.582,-74.68 29.546,1.19 63.449,-1.02 72.39,-37.15 5.028,-20.31 2.262,-43.16 0.578,-63.72 -3.043,-37.1 -13.453,-93.13 -40.855,-120.54 -11.652,-11.66 13.973,-15.37 21.992,-7.34"
         id="path160"
         inkscape:connector-curvature="0"
         style="fill:#231f20" /><path
         d="m 188.46,1587.2 c -59.59,1.66 -126.56,-15.1 -157.39,-72.44 -35.258,-65.58 49.41,-129.72 101.37,-150.56 53.184,-21.35 127.4,-14.35 165.83,31.11 50.757,60.03 -86.196,133.4 -126.88,150.57 -8.489,3.58 -32.481,-8.5 -20.868,-13.4 43.61,-18.4 78.731,-47.77 114.47,-78.23 47.859,-40.81 -13.73,-79.94 -52.391,-84.67 -29.16,-3.57 -59.019,6.72 -84.531,19.27 -33.82,16.64 -68.644,53.82 -77.453,90.35 -16.59,68.8 80.801,93.26 127.84,91.96 10.672,-0.3 27.918,15.54 10,16.04"
         id="path162"
         inkscape:connector-curvature="0"
         style="fill:#231f20" /><path
         d="m 54.938,1442.7 c -35.094,-5.85 -58.031,-36.76 -50.707,-73.76 10.102,-51.03 54.676,-85.53 100.77,-104.12 39.656,-15.99 102.56,-16.76 138.36,9.32 29.375,21.39 10.622,68.43 -10.214,88.02 -7.774,7.31 -32.766,-3.12 -24.356,-11.02 11.996,-11.28 18.41,-24.23 21.903,-40.22 11.746,-53.82 -83.176,-38.35 -110,-29.93 -29.149,9.17 -52.778,31.45 -72.547,53.67 -15.074,16.94 -34.184,84.59 3.8477,90.93 13.531,2.26 21.004,20.13 2.9492,17.11"
         id="path164"
         inkscape:connector-curvature="0"
         style="fill:#231f20" /><path
         d="m 76.644,1303.5 c -32.367,5.16 -61.629,2.92 -74.219,-32.17 -16.84,-46.95 58.441,-90.13 90.457,-105.79 31.836,-15.58 90.023,-22.77 121.08,-0.68 44,31.3 31.058,70.69 -1.949,103.11 -6.27,6.15 -31.153,-3.66 -24.61,-10.08 18.399,-18.07 34.567,-32.6 27.692,-60.23 -11.477,-46.11 -69.563,-30.94 -101.06,-19.84 -22.586,7.96 -42.719,24.84 -60.152,40.73 -19.52,17.8 -47.289,79.85 6.3867,71.3 7.793,-1.24 31.09,11.31 16.367,13.65"
         id="path166"
         inkscape:connector-curvature="0"
         style="fill:#231f20" /><path
         d="m 347.8,1192.3 c -7.406,-28.07 -30.586,-59.32 -61.152,-64.43 -28.817,-4.82 -58.817,10.64 -69.969,37.31 -3.551,8.49 -29.504,0.27 -26.426,-7.08 15.656,-37.46 55.223,-46.68 92.426,-43.52 42.789,3.63 80.804,41.08 91.449,81.4 2.281,8.65 -24.141,4.6 -26.328,-3.68"
         id="path168"
         inkscape:connector-curvature="0"
         style="fill:#231f20" /><path
         d="m 339.29,1151.7 c 4.684,3.26 -5.895,-43.85 38.5,-68.14 47.156,-19.03 115.8,32.76 157.91,101.28 46.109,62.81 62.711,158.52 5.441,167.14 -50.753,7.58 -82.343,-17.11 -83.515,-11.95 -1.832,0.04 24.871,32.46 86.238,29.15 34.125,-0.14 62.422,-43.85 56.41,-82.76 -3.312,-39.37 -19.808,-79.13 -44.129,-115.31 -43.625,-70 -121.32,-132.59 -186,-103.2 -55.636,39.56 -30.84,88.8 -30.863,83.79"
         id="path170"
         inkscape:connector-curvature="0"
         style="fill:#231f20" /><path
         d="m 877.7,1462.5 c -15.348,-66.14 -47.242,-192.85 -128.49,-248.09 -90.047,-47.52 -172.38,12.94 -170.6,6.94 -6.132,1.69 73.25,-71.94 180.24,-23.39 95.675,60.66 128.34,189.58 145.37,259.51 l -26.516,5.03"
         id="path172"
         inkscape:connector-curvature="0"
         style="fill:#231f20" /><path
         d="m 884.75,1149.6 c -27.859,-57.98 -125.18,-125.21 -221.05,-101.03 -96.25,10.65 -142.26,81.92 -144.27,79.17 -7.196,-0.02 36.097,-83.95 140.18,-102.2 48.114,-10.28 107,-10.68 154.68,14.75 47.61,24.09 80.09,60.85 99.555,93.52 l -29.094,15.79"
         id="path174"
         inkscape:connector-curvature="0"
         style="fill:#231f20" /><path
         d="m 380.96,1218.3 c -2.148,3.04 16.25,20.68 31.301,48.88 15.34,27.87 25.398,52.1 28.699,51.12 3.293,-0.86 -1.703,-27.78 -17.875,-57.19 -15.984,-30 -40.543,-45.67 -42.125,-42.81"
         id="path176"
         inkscape:connector-curvature="0"
         style="fill:#231f20" /></g></g><text
     xml:space="preserve"
     style="font-style:normal;font-variant:normal;font-weight:normal;font-stretch:normal;font-size:31.99979019px;line-height:1.25;font-family:'Burbank Big Condensed';-inkscape-font-specification:'Burbank Big Condensed, ';letter-spacing:0px;word-spacing:0px;fill:#c3d0e2;fill-opacity:1;stroke:none;stroke-width:0.99999344"
     x="46.757011"
     y="137.08702"
     id="text995"><tspan
       sodipodi:role="line"
       id="tspan993"
       x="46.757011"
       y="137.08702"
       style="font-size:191.99873352px;fill:#c3d0e2;fill-opacity:1;stroke-width:0.99999344">AHEM</tspan></text>
<text
     xml:space="preserve"
     style="font-style:normal;font-variant:normal;font-weight:normal;font-stretch:normal;font-size:31.99979019px;line-height:1.25;font-family:sans-serif;-inkscape-font-specification:sans-serif;letter-spacing:0px;word-spacing:0px;fill:#000000;fill-opacity:0;stroke:none;stroke-width:0.99999344"
     x="45.144699"
     y="725.58173"
     id="text1588"><tspan
       sodipodi:role="line"
       id="tspan1586"
       x="45.144699"
       y="754.77606"
       style="font-style:normal;font-variant:normal;font-weight:normal;font-stretch:normal;font-family:sans-serif;-inkscape-font-specification:sans-serif;fill:#000000;fill-opacity:0;stroke-width:0.99999344" /></text>
<text
     xml:space="preserve"
     style="font-style:normal;font-variant:normal;font-weight:normal;font-stretch:normal;font-size:31.99979019px;line-height:1.25;font-family:'Burbank Big Condensed';-inkscape-font-specification:'Burbank Big Condensed, ';letter-spacing:0px;word-spacing:0px;fill:#c3d0e2;fill-opacity:1;stroke:none;stroke-width:0.99999344"
     x="33.858498"
     y="570.7995"
     id="text1592"><tspan
       sodipodi:role="line"
       id="tspan1590"
       x="33.858498"
       y="570.7995"
       style="font-style:normal;font-variant:normal;font-weight:normal;font-stretch:normal;font-size:63.99958038px;font-family:sans-serif;-inkscape-font-specification:sans-serif;fill:#c3d0e2;fill-opacity:1;stroke-width:0.99999344">Ad Hoc Email</tspan></text>
</svg>