<?xml version="1.0" standalone="no"?>
<!DOCTYPE svg PUBLIC "-//W3C//DTD SVG 20010904//EN"
 "http://www.w3.org/TR/2001/REC-SVG-20010904/DTD/svg10.dtd">
<svg version="1.0" xmlns="http://www.w3.org/2000/svg"
 width="289.000000pt" height="269.000000pt" viewBox="0 0 289.000000 269.000000"
 preserveAspectRatio="xMidYMid meet">
<metadata>
Created by potrace 1.15, written by Peter Selinger 2001-2017
</metadata>
<g transform="translate(0.000000,269.000000) scale(0.100000,-0.100000)"
fill="#000000" stroke="none">
<path d="M804 2672 c-22 -11 -50 -32 -62 -47 -28 -36 -64 -132 -60 -163 3 -23
6 -21 43 28 25 33 61 65 95 84 51 29 62 31 148 30 50 0 92 3 92 7 0 14 -125
69 -170 74 -32 4 -57 0 -86 -13z"/>
<path d="M1411 2664 c-55 -20 -123 -62 -117 -73 3 -4 30 -3 60 2 108 20 208
-23 283 -121 17 -23 34 -38 37 -34 7 11 -17 99 -37 137 -20 39 -65 81 -100 94
-38 15 -73 13 -126 -5z"/>
<path d="M853 2493 c-56 -19 -138 -94 -174 -158 l-29 -52 -226 -6 c-125 -3
-229 -8 -231 -11 -3 -3 2 -209 11 -458 l16 -453 -28 -19 c-156 -110 -231 -321
-162 -456 34 -65 135 -139 193 -140 15 0 17 -10 17 -74 0 -41 3 -77 7 -79 5
-3 154 8 333 24 372 32 337 38 369 -66 24 -79 35 -172 26 -235 l-7 -51 -36 8
c-21 4 -73 7 -117 7 -99 -2 -174 -28 -238 -84 -45 -40 -93 -119 -79 -131 4 -4
146 -1 317 7 472 20 420 14 418 47 -2 34 -32 34 377 -2 179 -16 329 -25 334
-21 16 16 -16 81 -65 130 -73 73 -136 95 -276 95 l-112 0 -6 37 c-9 51 3 139
31 230 39 122 11 111 373 141 173 14 317 29 321 34 4 4 13 132 20 283 7 151
15 277 17 280 10 10 139 -138 158 -180 19 -43 19 -43 0 -54 -11 -6 -39 -30
-62 -52 -35 -33 -43 -48 -43 -77 0 -19 8 -45 19 -58 19 -24 19 -24 -15 -61
-46 -52 -45 -86 3 -129 28 -24 34 -34 23 -37 -26 -9 -80 -69 -80 -89 0 -50 71
-73 152 -49 75 21 103 54 104 119 0 48 2 51 30 59 83 23 102 -35 34 -108 -44
-47 -51 -84 -25 -121 19 -27 68 -38 104 -23 24 10 34 8 62 -9 103 -63 198 30
170 167 -6 30 -18 68 -26 85 -8 16 -15 45 -15 64 0 66 -54 153 -107 174 -20 7
-21 12 -12 38 24 70 -49 140 -147 141 -41 0 -42 0 -48 43 -16 103 -110 269
-213 374 l-56 58 12 260 c6 143 15 309 18 368 l6 109 -319 -7 -319 -7 -25 42
c-27 44 -92 97 -150 121 -75 30 -180 14 -267 -41 -19 -12 -24 -12 -40 2 -10 9
-43 28 -73 42 -44 21 -70 26 -130 25 -41 0 -94 -7 -117 -16z m240 -31 c79 -35
155 -132 173 -220 l6 -32 -43 19 c-65 29 -165 44 -237 36 -106 -11 -228 -86
-296 -180 -14 -19 -15 -19 -22 -2 -14 37 3 152 31 215 35 78 115 155 183 177
59 19 145 13 205 -13z m405 -18 c97 -48 172 -166 172 -270 l0 -45 -29 33 c-51
58 -113 83 -211 83 -47 0 -95 -2 -108 -5 -20 -4 -26 2 -46 51 -12 31 -32 70
-44 87 l-22 30 35 22 c78 48 174 54 253 14z m759 -186 c-3 -29 -21 -372 -39
-761 -18 -390 -35 -713 -39 -718 -6 -10 -1888 -174 -1897 -165 -3 4 -7 30 -10
59 l-4 52 129 1 c140 2 235 23 370 84 36 17 67 30 69 30 2 0 11 -14 20 -31 41
-80 108 -101 170 -54 l33 26 41 -30 c23 -16 54 -32 70 -36 35 -8 91 15 120 48
18 20 31 25 72 25 65 0 102 25 106 74 2 22 13 44 28 58 30 29 32 77 3 113 -16
21 -18 31 -10 46 6 11 11 38 11 61 0 79 -71 120 -157 90 -27 -10 -33 -7 -71
30 -48 45 -76 55 -128 46 -46 -9 -106 -69 -129 -130 -16 -41 -21 -46 -39 -40
-12 4 -44 9 -73 11 -47 4 -53 3 -69 -22 -10 -15 -19 -51 -22 -80 l-4 -53 -77
-21 c-183 -49 -320 -51 -418 -6 l-53 24 0 78 c0 43 -9 326 -19 628 -11 303
-18 551 -18 551 1 1 96 5 210 9 l209 8 -7 -65 c-18 -164 62 -320 197 -388 66
-32 59 -39 -13 -15 -25 9 -68 36 -97 61 -61 53 -67 51 -15 -7 72 -80 156 -102
285 -75 95 20 124 31 167 63 27 21 37 24 50 14 48 -35 109 -54 191 -59 127 -7
208 26 264 107 39 56 31 60 -15 7 -38 -42 -115 -94 -125 -83 -3 2 14 16 36 31
76 50 140 182 140 291 0 22 -6 64 -14 93 -7 29 -13 53 -12 53 1 1 105 5 231 9
127 3 259 7 294 8 l63 2 -5 -52z m-1038 -47 l56 -17 3 -47 c6 -100 -57 -236
-136 -291 -116 -80 -248 -72 -352 21 -49 44 -100 125 -100 158 0 22 73 99 129
134 26 17 50 31 53 31 2 0 3 -24 0 -54 -4 -48 -1 -56 24 -85 72 -80 204 -30
204 77 0 16 -11 46 -26 67 l-25 37 57 -7 c32 -4 83 -14 113 -24z m111 -28
c-24 -46 -25 -65 -4 -109 41 -85 167 -85 208 0 20 42 20 63 1 100 -21 39 -20
39 25 16 55 -28 110 -78 110 -101 0 -38 -42 -129 -81 -172 -22 -25 -64 -58
-95 -73 -48 -23 -63 -26 -124 -22 -50 4 -81 12 -115 32 l-46 27 22 31 c46 64
69 138 69 226 0 81 0 82 25 82 l25 0 -20 -37z m1055 -778 c80 -112 145 -277
145 -367 0 -24 -4 -28 -29 -28 -31 0 -33 4 -46 70 -16 82 -110 220 -182 268
-21 13 -23 22 -23 110 l0 96 46 -44 c25 -25 65 -72 89 -105z m-2160 -226 c4
-77 4 -143 1 -146 -3 -3 -15 15 -27 41 -26 59 -38 52 -15 -8 26 -68 100 -129
180 -151 83 -23 265 -16 374 13 39 11 74 17 76 14 2 -4 6 -24 10 -45 l7 -37
-68 -31 c-135 -61 -226 -82 -358 -83 -104 0 -128 3 -179 23 -170 68 -225 219
-142 394 25 50 109 157 125 157 5 0 12 -63 16 -141z m1018 69 l42 -43 -27 -3
c-33 -4 -37 -18 -8 -27 12 -4 44 5 80 21 52 23 63 25 89 15 55 -23 69 -105 25
-146 -32 -30 -88 -34 -103 -7 -8 13 -10 7 -11 -30 0 -27 5 -48 10 -48 6 0 10
6 10 13 0 7 23 18 52 25 45 10 54 10 70 -5 46 -42 -1 -113 -75 -113 -36 0 -46
4 -54 23 -10 19 -11 17 -11 -21 0 -31 3 -41 11 -33 6 6 30 11 54 11 37 0 43
-3 43 -22 0 -29 -28 -58 -57 -58 -13 0 -39 6 -58 14 -34 14 -34 14 -54 -20
-41 -69 -100 -69 -164 -2 l-39 41 -35 -41 c-46 -55 -79 -57 -118 -6 -58 76
-87 204 -65 294 11 47 14 50 43 50 18 0 51 -9 73 -19 23 -10 46 -16 51 -12 5
3 15 26 22 50 15 52 53 116 78 130 40 23 81 13 126 -31z m1407 -183 c79 -41
54 -120 -55 -171 -133 -63 -314 6 -248 94 24 33 79 66 93 57 17 -10 12 -45 -7
-46 -10 -1 -2 -5 17 -10 41 -9 102 4 121 28 12 14 11 15 -9 9 -19 -7 -22 -4
-22 23 0 30 2 31 40 31 23 0 54 -7 70 -15z m106 -167 c21 -21 40 -51 49 -80 8
-27 12 -48 10 -48 -2 0 -20 8 -40 17 -37 18 -64 9 -30 -9 66 -36 109 -123 109
-218 0 -79 -52 -127 -106 -100 -69 36 -99 88 -107 190 l-6 75 -65 -1 c-36 0
-78 -6 -93 -12 -26 -11 -27 -13 -13 -28 29 -28 13 -85 -34 -121 -28 -22 -97
-27 -126 -9 -39 26 -28 55 35 96 59 38 60 31 -14 83 -32 23 -32 57 0 95 25 30
26 30 108 25 95 -6 171 11 228 51 45 32 53 32 95 -6z m-1241 -225 c-51 -122
-75 -254 -61 -344 l6 -44 133 0 c119 0 136 -2 177 -24 54 -28 106 -75 127
-114 8 -16 13 -30 11 -32 -5 -5 -650 54 -656 59 -8 8 69 79 107 99 l34 18 -6
122 c-5 105 -13 152 -44 249 -4 15 4 18 58 21 35 2 77 4 93 5 23 2 27 -1 21
-15z m-193 -61 c23 -67 43 -236 34 -285 -4 -24 -12 -37 -22 -37 -9 0 -42 -27
-74 -59 -49 -51 -60 -58 -71 -45 -6 8 -29 24 -51 36 l-39 22 7 86 c11 141 53
278 100 324 11 12 29 16 57 14 40 -3 41 -5 59 -56z m-184 -9 c-38 -80 -58
-161 -65 -274 l-6 -96 36 -22 c36 -22 102 -90 94 -97 -2 -3 -103 -9 -223 -14
-120 -5 -267 -12 -326 -15 -125 -7 -129 -3 -73 63 72 84 210 121 346 92 47
-10 63 -10 72 -1 8 8 12 52 12 134 -1 104 -4 133 -26 194 l-25 72 40 6 c53 7
103 11 142 13 l31 2 -29 -57z m1506 -95 c17 -25 16 -27 -4 -33 -35 -11 -67 3
-80 34 -12 31 -5 56 29 94 15 18 16 16 27 -25 6 -24 19 -56 28 -70z"/>
<path d="M1938 2234 c-4 -3 -48 -6 -98 -6 l-91 0 0 -66 c0 -88 -6 -185 -15
-246 l-7 -48 34 7 c19 5 67 7 108 6 41 -1 79 3 87 9 9 8 18 8 34 0 14 -8 36
-8 73 -1 29 5 71 7 94 4 l40 -5 7 41 c3 23 2 50 -3 59 -6 11 -6 24 1 36 6 10
8 40 6 67 -3 27 -1 52 3 55 5 3 9 25 9 49 l0 44 -107 -4 c-60 -2 -115 -5 -123
-6 -8 -1 -22 1 -31 5 -8 4 -18 4 -21 0z m262 -45 c0 -15 -5 -31 -10 -34 -6 -4
-8 -25 -4 -53 3 -26 1 -58 -4 -71 -5 -16 -5 -35 2 -52 7 -19 7 -35 -1 -52 -11
-23 -14 -24 -48 -13 -34 10 -35 11 -11 14 31 4 33 10 41 162 l6 115 -83 -3
c-57 -2 -78 0 -69 7 8 5 52 9 98 8 l83 -1 0 -27z m-360 11 c22 -7 21 -8 -12
-9 l-38 -1 0 -48 c0 -27 -3 -90 -6 -140 -6 -85 -6 -92 11 -92 24 0 17 -6 -19
-14 -28 -7 -28 -7 -21 31 3 21 6 64 5 95 0 31 4 59 9 63 7 3 8 29 4 65 -6 59
-5 60 18 59 13 -1 35 -5 49 -9z m298 -131 c-4 -61 -8 -113 -10 -115 -2 -2 -76
-6 -164 -10 l-161 -7 4 84 c2 46 6 98 9 116 l5 32 72 4 c40 1 113 4 162 5 l90
2 -7 -111z"/>
<path d="M775 1661 c-42 -18 -67 -48 -77 -88 -7 -26 7 -32 16 -7 9 24 23 8 30
-36 16 -102 79 -216 136 -245 30 -15 32 -15 63 11 70 59 173 81 282 62 l40 -7
-30 14 c-16 8 -41 14 -55 15 -14 0 -38 14 -54 31 -17 16 -40 32 -53 35 -32 9
-45 35 -30 64 10 20 26 27 101 41 48 10 90 20 93 23 3 2 -53 2 -124 -1 -118
-5 -133 -4 -178 16 -83 37 -109 71 -54 71 17 0 28 4 24 10 -10 16 -87 11 -130
-9z m318 -248 l32 -16 -25 -7 c-14 -4 -43 -13 -66 -19 -22 -6 -61 -24 -85 -40
-38 -26 -47 -28 -64 -17 -21 14 -65 73 -65 87 0 4 17 11 37 15 34 6 78 -1 128
-21 17 -8 18 -7 8 7 -7 8 -10 18 -6 21 12 13 74 7 106 -10z"/>
</g>
</svg>
