<?xml version="1.0" encoding="UTF-8" standalone="no"?>
<!-- Created with Inkscape (http://www.inkscape.org/) -->

<svg
   xmlns:dc="http://purl.org/dc/elements/1.1/"
   xmlns:cc="http://creativecommons.org/ns#"
   xmlns:rdf="http://www.w3.org/1999/02/22-rdf-syntax-ns#"
   xmlns:svg="http://www.w3.org/2000/svg"
   xmlns="http://www.w3.org/2000/svg"
   xmlns:sodipodi="http://sodipodi.sourceforge.net/DTD/sodipodi-0.dtd"
   xmlns:inkscape="http://www.inkscape.org/namespaces/inkscape"
   width="46.277275mm"
   height="28.231022mm"
   viewBox="0 0 46.277276 28.231022"
   version="1.1"
   id="SVGRoot"
   inkscape:version="0.92.3 (2405546, 2018-03-11)"
   sodipodi:docname="ahem-sm-bottom-text.svg">
  <sodipodi:namedview
     id="base"
     pagecolor="#ffffff"
     bordercolor="#666666"
     borderopacity="1.0"
     inkscape:pageopacity="0.0"
     inkscape:pageshadow="2"
     inkscape:zoom="2"
     inkscape:cx="87.110598"
     inkscape:cy="31.281367"
     inkscape:document-units="mm"
     inkscape:current-layer="layer1"
     showgrid="false"
     inkscape:window-width="1920"
     inkscape:window-height="1137"
     inkscape:window-x="-8"
     inkscape:window-y="-8"
     inkscape:window-maximized="1"
     showguides="true"
     fit-margin-top="0"
     fit-margin-left="0"
     fit-margin-right="0"
     fit-margin-bottom="0">
    <inkscape:grid
       type="xygrid"
       id="grid1988"
       originx="-13.861363"
       originy="-22.944304" />
  </sodipodi:namedview>
  <defs
     id="defs1425" />
  <metadata
     id="metadata1428">
    <rdf:RDF>
      <cc:Work
         rdf:about="">
        <dc:format>image/svg+xml</dc:format>
        <dc:type
           rdf:resource="http://purl.org/dc/dcmitype/StillImage" />
        <dc:title></dc:title>
      </cc:Work>
    </rdf:RDF>
  </metadata>
  <g
     id="layer1"
     inkscape:groupmode="layer"
     inkscape:label="Layer 1"
     transform="translate(-13.861363,-0.8246732)">
    <g
       aria-label="AHEM"
       transform="scale(0.8447034,1.1838475)"
       style="font-style:normal;font-variant:normal;font-weight:normal;font-stretch:normal;font-size:22.9851265px;line-height:1.25;font-family:'Burbank Big Condensed';-inkscape-font-specification:'Burbank Big Condensed, ';letter-spacing:0px;word-spacing:0px;fill:#000000;fill-opacity:1;stroke:none;stroke-width:0.7182852"
       id="text1986">
      <path
         d="M 26.640548,4.466165 Q 26.525622,5.4085552 26.341741,7.2243801 26.15786,9.01722 25.950994,11.522599 q 0.275822,0.02299 0.528658,0.02299 0.252837,-0.02299 0.436718,-0.02299 h 0.436717 Q 27.215176,10.074536 27.077265,8.7873688 26.96234,7.5002017 26.847414,6.5348264 26.732489,5.4085552 26.640548,4.466165 Z M 21.44591,16.763208 q 0.298806,-1.83881 0.666568,-4.252249 0.321792,-2.045676 0.735524,-4.9188168 0.413732,-2.896126 0.89642,-6.527776 1.241197,-0.04597 2.298513,-0.0689553 1.080301,-0.0229851 1.88478,-0.0229851 h 1.7009 q 0.298806,2.2985127 0.712538,4.9647874 0.344777,2.2985126 0.80448,5.2635938 0.482688,2.965081 1.057316,6.251954 -0.528658,-0.02298 -1.195227,-0.02298 -0.574628,0 -1.379107,0 -0.80448,0.02298 -1.815825,0.04597 -0.02299,-0.229852 -0.04597,-0.597614 -0.02299,-0.321791 -0.06896,-0.804479 -0.02298,-0.482688 -0.06895,-1.172242 -0.321792,-0.02299 -0.827465,-0.02299 -0.505673,0 -1.103286,0 l -0.137911,1.930751 q -0.390747,0 -0.98836,-0.02298 -0.505673,-0.02299 -1.287167,-0.02299 -0.75851,0 -1.83881,0 z"
         style="stroke-width:0.7182852"
         id="path5698"
         inkscape:connector-curvature="0" />
      <path
         d="m 38.012439,12.396034 q -0.229851,0 -0.505673,0 -0.275821,0 -0.643583,0.02299 l 0.06896,4.183293 q -0.528658,-0.02299 -1.172241,-0.02299 -0.551643,0 -1.333138,0 -0.758509,0 -1.654929,0.04597 v -4.160308 q 0,-1.999706 -0.02298,-4.7579212 -0.02299,-2.7582152 -0.06896,-6.1600139 h 0.873435 q 0.459702,0 1.241196,0 0.80448,0 1.976721,-0.022985 0,0.8964199 0.02298,2.0226911 0,0.9653753 0,2.3444829 0.02298,1.3561225 0.04597,3.0110516 0.160895,0.022985 0.344777,0.022985 h 0.804479 q 0,-1.7928399 -0.02299,-3.8385161 -0.02298,-2.0686614 -0.04597,-4.36717405 H 39.0008 q 0.528657,0 1.310152,0 0.781494,0 1.815825,-0.0229851 V 5.6154213 q 0,2.2985126 0,5.3785197 0.02299,3.057022 0.06896,6.596731 -0.505673,-0.02299 -1.126271,-0.04597 -0.551643,-0.02299 -1.333137,-0.02299 -0.75851,0.02299 -1.723885,0.04597 z"
         style="stroke-width:0.7182852"
         id="path5700"
         inkscape:connector-curvature="0" />
      <path
         d="m 43.278906,17.039029 q -0.02298,-1.999706 -0.04597,-4.4821 -0.02299,-2.137616 -0.06896,-5.0337422 -0.02299,-2.8961259 -0.06896,-6.3898652 0.643584,0 1.677914,-0.022985 0.873435,0 2.298513,0 1.425078,-0.022985 3.516724,-0.04597 V 2.213623 q 0,0.5286579 0,1.2871671 0,0.735524 0.04597,1.6319439 -0.643584,0.022985 -1.264182,0.022985 -0.528658,0.022985 -1.126272,0.022985 -0.574628,0 -1.03433,0.022985 -0.02299,0.4597025 -0.02299,0.8504497 0.02299,0.367762 0.02299,0.6665687 v 0.6205984 q 0.137911,0 0.804479,0.022985 0.666569,0 2.045676,-0.04597 v 1.103286 q 0,0.5286579 0,1.2411969 0,0.6895533 0.02299,1.5400033 h -0.80448 q -0.390747,0 -0.89642,0 -0.505673,-0.02298 -1.080301,-0.02298 v 0.551643 q 0,0.551643 0.06896,1.471048 0.367762,0.02298 0.873434,0.04597 0.413733,0.02299 1.011346,0.06896 0.597613,0.02299 1.333137,0.04597 -0.02298,0.390747 -0.02298,0.965375 -0.02298,0.482688 -0.02298,1.195227 0,0.712539 0,1.677914 -1.011345,-0.02299 -2.183587,-0.06895 -1.011345,-0.02299 -2.321498,-0.04597 -1.310152,-0.02298 -2.758215,-0.04597 z"
         style="stroke-width:0.7182852"
         id="path5702"
         inkscape:connector-curvature="0" />
      <path
         d="m 51.080561,16.832163 q 0.137911,-1.953736 0.229851,-4.367174 0.09194,-2.068661 0.183881,-4.8268766 0.09194,-2.7812003 0.183881,-6.0910585 h 1.723885 q 0.804479,0 1.83881,0 1.034331,-0.022985 2.229557,-0.068955 0.114926,1.1262712 0.275822,2.4134383 0.137911,1.1032861 0.321792,2.5743342 0.183881,1.4480629 0.413732,3.0570218 0.252836,-1.815825 0.528658,-4.0913525 0.275821,-2.2755275 0.482687,-4.68896582 0.89642,0.0229851 1.907766,0.0689554 0.85045,0.0459702 1.907765,0.0689554 1.080301,0.0229851 2.183587,0.0689554 0,1.95373582 0.09194,4.45911462 0.06896,2.1606018 0.183881,5.1716533 0.137911,3.011051 0.390747,6.803597 -0.643583,0.02298 -1.356122,0.06895 -0.597614,0.04597 -1.379108,0.06896 -0.758509,0.02299 -1.540003,0.04597 0.02298,-1.517018 0.02298,-3.401799 0,-1.608959 -0.04597,-3.815531 Q 61.8376,8.1208001 61.74566,5.4775105 61.584764,6.4428858 61.423868,7.5921422 61.262972,8.7413985 61.102076,9.9825953 60.94118,11.200807 60.80327,12.464989 q -0.137911,1.241197 -0.229852,2.436423 -0.620598,0 -1.310152,-0.02299 -0.597613,-0.02299 -1.333137,-0.02299 -0.712539,-0.02299 -1.448063,-0.06896 -0.09194,-0.965376 -0.252836,-2.229558 -0.137911,-1.103286 -0.344777,-2.6432891 -0.206867,-1.5629886 -0.528658,-3.5856797 0,2.0916465 0,4.8268768 0.02298,2.712245 0.09194,5.769267 -0.781494,-0.02299 -1.540003,-0.04597 -0.666569,-0.02298 -1.425078,-0.02298 -0.735524,0 -1.402093,-0.02298 z"
         style="stroke-width:0.7182852"
         id="path5704"
         inkscape:connector-curvature="0" />
    </g>
    <g
       aria-label="Ad Hoc Email"
       style="font-style:normal;font-variant:normal;font-weight:normal;font-stretch:normal;font-size:8.46666622px;line-height:1.25;font-family:Arial;-inkscape-font-specification:Arial;letter-spacing:0px;word-spacing:0px;fill:#000000;fill-opacity:1;stroke:none;stroke-width:0.26458332"
       id="text5696">
      <path
         d="m 18.987665,28.894464 h -0.872299 q 0,-0.276985 -0.520898,-1.740462 h -2.385384 q -0.51263,1.442806 -0.51263,1.740462 h -0.835091 q 0,-0.152962 1.066601,-2.641699 1.066602,-2.492871 1.066602,-2.740917 h 0.959114 q 0,0.243912 1.016992,2.699576 1.016993,2.455664 1.016993,2.68304 z m -1.583366,-2.282031 q -0.971517,-2.426725 -0.971517,-2.579687 h -0.04547 q 0,0.128158 -1.00459,2.579687 z"
         style="font-style:normal;font-variant:normal;font-weight:normal;font-stretch:normal;font-family:Candara;-inkscape-font-specification:Candara;stroke-width:0.26458332"
         id="path5707"
         inkscape:connector-curvature="0" />
      <path
         d="M 23.150718,28.89033 22.534735,28.911 q -0.03307,-0.177767 -0.03307,-0.376204 h -0.04547 q -0.434082,0.471289 -1.289844,0.471289 -0.785482,0 -1.252637,-0.570508 -0.463021,-0.570508 -0.463021,-1.37666 0,-0.91364 0.516765,-1.575098 0.516764,-0.661458 1.455208,-0.661458 0.669726,0 0.959114,0.272851 h 0.03307 q 0,-1.02526 -0.05788,-2.013313 l 0.785482,-0.02894 q -0.07855,1.050065 -0.07855,2.749186 0,1.72806 0.08682,3.088183 z m -0.665593,-0.81442 q 0,-1.28571 -0.07028,-2.476335 -0.334863,-0.276985 -0.835091,-0.276985 -0.698665,0 -1.045931,0.467155 -0.347265,0.46302 -0.347265,1.16582 0,0.628385 0.326595,1.058333 0.330729,0.429948 0.913639,0.429948 0.731738,0 1.058333,-0.367936 z"
         style="font-style:normal;font-variant:normal;font-weight:normal;font-stretch:normal;font-family:Candara;-inkscape-font-specification:Candara;stroke-width:0.26458332"
         id="path5709"
         inkscape:connector-curvature="0" />
      <path
         d="m 30.282065,28.894464 h -0.785482 q 0.04134,-1.430403 0.04134,-2.56315 H 27.06159 q 0,0.917773 0.04134,2.56315 h -0.785482 q 0.05788,-1.508951 0.05788,-2.827734 0,-1.380794 -0.05788,-2.554882 h 0.785482 q -0.04961,1.182356 -0.04961,2.298567 h 2.492871 q 0,-0.897103 -0.04961,-2.298567 h 0.785482 q -0.06201,1.149283 -0.06201,2.554882 0,1.542025 0.06201,2.827734 z"
         style="font-style:normal;font-variant:normal;font-weight:normal;font-stretch:normal;font-family:Candara;-inkscape-font-specification:Candara;stroke-width:0.26458332"
         id="path5711"
         inkscape:connector-curvature="0" />
      <path
         d="m 35.383561,26.810871 q 0,1.058333 -0.607715,1.653646 -0.607714,0.591178 -1.430403,0.591178 -0.768945,0 -1.322917,-0.525033 -0.549837,-0.525032 -0.549837,-1.480013 0,-1.066601 0.607715,-1.666048 0.611849,-0.599446 1.434538,-0.599446 0.768945,0 1.318782,0.533301 0.549837,0.529166 0.549837,1.492415 z m -0.715202,0.144694 q 0,-0.644922 -0.326595,-1.14515 -0.322461,-0.504362 -0.921907,-0.504362 -0.595313,0 -0.917773,0.475423 -0.318327,0.475424 -0.318327,1.103809 0,0.649056 0.322461,1.149284 0.326595,0.500228 0.930175,0.500228 0.595313,0 0.91364,-0.475424 0.318326,-0.479557 0.318326,-1.103808 z"
         style="font-style:normal;font-variant:normal;font-weight:normal;font-stretch:normal;font-family:Candara;-inkscape-font-specification:Candara;stroke-width:0.26458332"
         id="path5713"
         inkscape:connector-curvature="0" />
      <path
         d="m 39.344043,28.261945 -0.04134,0.553971 q -0.334863,0.19017 -0.897103,0.19017 -1.070735,0 -1.637109,-0.591179 -0.566374,-0.591178 -0.566374,-1.426269 0,-0.884701 0.595313,-1.521354 0.595312,-0.636654 1.575097,-0.636654 0.49196,0 0.802019,0.09922 l -0.111621,0.649056 q -0.434082,-0.161231 -0.880567,-0.161231 -0.587044,0 -0.93431,0.409278 -0.347265,0.409277 -0.347265,1.02526 0,0.669727 0.413411,1.116211 0.413412,0.446484 1.169955,0.446484 0.310058,0 0.859895,-0.152962 z"
         style="font-style:normal;font-variant:normal;font-weight:normal;font-stretch:normal;font-family:Candara;-inkscape-font-specification:Candara;stroke-width:0.26458332"
         id="path5715"
         inkscape:connector-curvature="0" />
      <path
         d="m 45.582421,28.270213 -0.0248,0.624251 h -3.332096 q 0.05788,-1.281575 0.05788,-2.827734 0,-1.455208 -0.05788,-2.554882 h 3.12539 l -0.03307,0.615983 q -1.136881,-0.04961 -2.410189,-0.04961 0.02481,0.640788 0.02481,1.732194 1.099675,0 1.95957,-0.04961 v 0.615983 q -0.917773,-0.03721 -1.95957,-0.03721 0,1.062467 0.03721,1.992643 1.372526,0 2.61276,-0.06201 z"
         style="font-style:normal;font-variant:normal;font-weight:normal;font-stretch:normal;font-family:Candara;-inkscape-font-specification:Candara;stroke-width:0.26458332"
         id="path5717"
         inkscape:connector-curvature="0" />
      <path
         d="m 51.601691,26.500812 q 0,-0.661458 -0.23151,-0.872298 -0.227376,-0.214974 -0.752409,-0.214974 -0.44235,0 -0.913639,0.434082 -0.01654,0.504362 -0.01654,0.988054 0,0.690397 0.02481,2.058788 h -0.752409 q 0.09095,-1.178222 0.09095,-2.393652 0,-0.661458 -0.231511,-0.872298 -0.227376,-0.214974 -0.731738,-0.214974 -0.516764,0 -0.967383,0.434082 0,1.310514 0.01654,3.046842 h -0.752409 q 0.07855,-1.405598 0.07855,-2.033984 0,-0.95498 -0.186035,-1.876888 l 0.727604,-0.103353 0.07441,0.500228 h 0.04134 q 0.537435,-0.549837 1.194759,-0.549837 0.979786,0 1.260905,0.549837 h 0.04548 q 0.624251,-0.549837 1.231966,-0.549837 0.694531,0 1.050065,0.305925 0.355534,0.305924 0.355534,1.079003 0,0.07855 -0.0083,0.310059 -0.0083,0.23151 -0.0083,0.310059 0,0.690397 0.01654,2.058788 h -0.752409 q 0.09508,-1.083137 0.09508,-2.393652 z"
         style="font-style:normal;font-variant:normal;font-weight:normal;font-stretch:normal;font-family:Candara;-inkscape-font-specification:Candara;stroke-width:0.26458332"
         id="path5719"
         inkscape:connector-curvature="0" />
      <path
         d="m 56.442739,28.894464 -0.649056,0.02481 q -0.04961,-0.202571 -0.04961,-0.384472 h -0.04134 q -0.508496,0.46302 -1.384928,0.46302 -0.475424,0 -0.818555,-0.276985 -0.343131,-0.28112 -0.343131,-0.797884 0,-0.636654 0.537434,-1.021127 0.537435,-0.388606 1.996778,-0.409277 0.0124,-0.09922 0.0124,-0.227376 0,-0.508496 -0.272852,-0.677995 -0.268717,-0.169499 -0.818554,-0.169499 -0.649056,0 -1.277442,0.161231 l 0.07028,-0.570508 q 0.620118,-0.177767 1.42627,-0.177767 0.735872,0 1.136881,0.305925 0.401009,0.30179 0.401009,1.033528 0,0.194304 -0.02067,0.706934 -0.01654,0.508496 -0.01654,0.677994 0,0.752409 0.111621,1.339453 z m -0.731738,-0.802018 q -0.02067,-0.628385 -0.02067,-1.128613 -0.777214,0 -1.182357,0.115755 -0.677995,0.206706 -0.677995,0.789616 0,0.56224 0.79375,0.56224 0.682129,0 1.087272,-0.338998 z"
         style="font-style:normal;font-variant:normal;font-weight:normal;font-stretch:normal;font-family:Candara;-inkscape-font-specification:Candara;stroke-width:0.26458332"
         id="path5721"
         inkscape:connector-curvature="0" />
      <path
         d="m 58.236948,28.894464 h -0.748275 q 0.05788,-0.826822 0.05788,-1.88929 0,-1.194759 -0.144694,-2.005045 l 0.826823,-0.111621 q -0.04961,0.86403 -0.04961,2.116666 0,0.992188 0.05788,1.88929 z m 0.173633,-5.167642 q 0,0.210839 -0.136426,0.367936 -0.136426,0.152962 -0.384473,0.152962 -0.210839,0 -0.330729,-0.132292 -0.115755,-0.136425 -0.115755,-0.326595 0,-0.206705 0.14056,-0.359668 0.14056,-0.152962 0.388607,-0.152962 0.202571,0 0.318327,0.136426 0.119889,0.132292 0.119889,0.314193 z"
         style="font-style:normal;font-variant:normal;font-weight:normal;font-stretch:normal;font-family:Candara;-inkscape-font-specification:Candara;stroke-width:0.26458332"
         id="path5723"
         inkscape:connector-curvature="0" />
      <path
         d="m 60.138639,28.894464 h -0.79375 q 0.07441,-1.364257 0.07441,-3.084049 0,-1.670182 -0.119889,-2.732649 l 0.839225,-0.04134 q -0.07855,1.12448 -0.07855,2.773991 0,1.699121 0.07855,3.084049 z"
         style="font-style:normal;font-variant:normal;font-weight:normal;font-stretch:normal;font-family:Candara;-inkscape-font-specification:Candara;stroke-width:0.26458332"
         id="path5725"
         inkscape:connector-curvature="0" />
    </g>
  </g>
</svg>
