<?xml version="1.0" encoding="UTF-8" standalone="no"?>
<!-- Created with Inkscape (http://www.inkscape.org/) -->

<svg
   xmlns:dc="http://purl.org/dc/elements/1.1/"
   xmlns:cc="http://creativecommons.org/ns#"
   xmlns:rdf="http://www.w3.org/1999/02/22-rdf-syntax-ns#"
   xmlns:svg="http://www.w3.org/2000/svg"
   xmlns="http://www.w3.org/2000/svg"
   xmlns:sodipodi="http://sodipodi.sourceforge.net/DTD/sodipodi-0.dtd"
   xmlns:inkscape="http://www.inkscape.org/namespaces/inkscape"
   width="37.769135mm"
   height="20mm"
   viewBox="0 0 37.769135 20"
   version="1.1"
   id="SVGRoot"
   inkscape:version="0.92.3 (2405546, 2018-03-11)"
   sodipodi:docname="ahem-logo-text.svg">
  <sodipodi:namedview
     id="base"
     pagecolor="#ffffff"
     bordercolor="#666666"
     borderopacity="1.0"
     inkscape:pageopacity="0.0"
     inkscape:pageshadow="2"
     inkscape:zoom="2"
     inkscape:cx="71.032222"
     inkscape:cy="0.17199289"
     inkscape:document-units="mm"
     inkscape:current-layer="layer1"
     showgrid="false"
     inkscape:window-width="1920"
     inkscape:window-height="1137"
     inkscape:window-x="-8"
     inkscape:window-y="-8"
     inkscape:window-maximized="1"
     showguides="true"
     fit-margin-top="0"
     fit-margin-left="0"
     fit-margin-right="0"
     fit-margin-bottom="0">
    <inkscape:grid
       type="xygrid"
       id="grid1988"
       originx="-18.115437"
       originy="-31.175324" />
  </sodipodi:namedview>
  <defs
     id="defs1425" />
  <metadata
     id="metadata1428">
    <rdf:RDF>
      <cc:Work
         rdf:about="">
        <dc:format>image/svg+xml</dc:format>
        <dc:type
           rdf:resource="http://purl.org/dc/dcmitype/StillImage" />
        <dc:title></dc:title>
      </cc:Work>
    </rdf:RDF>
  </metadata>
  <g
     id="layer1"
     inkscape:groupmode="layer"
     inkscape:label="Layer 1"
     transform="translate(-18.115433,-0.8246732)">
    <g
       aria-label="AHEM"
       transform="scale(0.8447034,1.1838475)"
       style="font-style:normal;font-variant:normal;font-weight:normal;font-stretch:normal;font-size:22.9851265px;line-height:1.25;font-family:'Burbank Big Condensed';-inkscape-font-specification:'Burbank Big Condensed, ';letter-spacing:0px;word-spacing:0px;fill:#000000;fill-opacity:1;stroke:none;stroke-width:0.7182852"
       id="text1986">
      <path
         d="M 26.640548,4.466165 Q 26.525622,5.4085552 26.341741,7.2243801 26.15786,9.01722 25.950994,11.522599 q 0.275822,0.02299 0.528658,0.02299 0.252837,-0.02299 0.436718,-0.02299 h 0.436717 Q 27.215176,10.074536 27.077265,8.7873688 26.96234,7.5002017 26.847414,6.5348264 26.732489,5.4085552 26.640548,4.466165 Z M 21.44591,16.763208 q 0.298806,-1.83881 0.666568,-4.252249 0.321792,-2.045676 0.735524,-4.9188168 0.413732,-2.896126 0.89642,-6.527776 1.241197,-0.04597 2.298513,-0.0689553 1.080301,-0.0229851 1.88478,-0.0229851 h 1.7009 q 0.298806,2.2985127 0.712538,4.9647874 0.344777,2.2985126 0.80448,5.2635938 0.482688,2.965081 1.057316,6.251954 -0.528658,-0.02298 -1.195227,-0.02298 -0.574628,0 -1.379107,0 -0.80448,0.02298 -1.815825,0.04597 -0.02299,-0.229852 -0.04597,-0.597614 -0.02299,-0.321791 -0.06896,-0.804479 -0.02298,-0.482688 -0.06895,-1.172242 -0.321792,-0.02299 -0.827465,-0.02299 -0.505673,0 -1.103286,0 l -0.137911,1.930751 q -0.390747,0 -0.98836,-0.02298 -0.505673,-0.02299 -1.287167,-0.02299 -0.75851,0 -1.83881,0 z"
         style="stroke-width:0.7182852"
         id="path5698"
         inkscape:connector-curvature="0" />
      <path
         d="m 38.012439,12.396034 q -0.229851,0 -0.505673,0 -0.275821,0 -0.643583,0.02299 l 0.06896,4.183293 q -0.528658,-0.02299 -1.172241,-0.02299 -0.551643,0 -1.333138,0 -0.758509,0 -1.654929,0.04597 v -4.160308 q 0,-1.999706 -0.02298,-4.7579212 -0.02299,-2.7582152 -0.06896,-6.1600139 h 0.873435 q 0.459702,0 1.241196,0 0.80448,0 1.976721,-0.022985 0,0.8964199 0.02298,2.0226911 0,0.9653753 0,2.3444829 0.02298,1.3561225 0.04597,3.0110516 0.160895,0.022985 0.344777,0.022985 h 0.804479 q 0,-1.7928399 -0.02299,-3.8385161 -0.02298,-2.0686614 -0.04597,-4.36717405 H 39.0008 q 0.528657,0 1.310152,0 0.781494,0 1.815825,-0.0229851 V 5.6154213 q 0,2.2985126 0,5.3785197 0.02299,3.057022 0.06896,6.596731 -0.505673,-0.02299 -1.126271,-0.04597 -0.551643,-0.02299 -1.333137,-0.02299 -0.75851,0.02299 -1.723885,0.04597 z"
         style="stroke-width:0.7182852"
         id="path5700"
         inkscape:connector-curvature="0" />
      <path
         d="m 43.278906,17.039029 q -0.02298,-1.999706 -0.04597,-4.4821 -0.02299,-2.137616 -0.06896,-5.0337422 -0.02299,-2.8961259 -0.06896,-6.3898652 0.643584,0 1.677914,-0.022985 0.873435,0 2.298513,0 1.425078,-0.022985 3.516724,-0.04597 V 2.213623 q 0,0.5286579 0,1.2871671 0,0.735524 0.04597,1.6319439 -0.643584,0.022985 -1.264182,0.022985 -0.528658,0.022985 -1.126272,0.022985 -0.574628,0 -1.03433,0.022985 -0.02299,0.4597025 -0.02299,0.8504497 0.02299,0.367762 0.02299,0.6665687 v 0.6205984 q 0.137911,0 0.804479,0.022985 0.666569,0 2.045676,-0.04597 v 1.103286 q 0,0.5286579 0,1.2411969 0,0.6895533 0.02299,1.5400033 h -0.80448 q -0.390747,0 -0.89642,0 -0.505673,-0.02298 -1.080301,-0.02298 v 0.551643 q 0,0.551643 0.06896,1.471048 0.367762,0.02298 0.873434,0.04597 0.413733,0.02299 1.011346,0.06896 0.597613,0.02299 1.333137,0.04597 -0.02298,0.390747 -0.02298,0.965375 -0.02298,0.482688 -0.02298,1.195227 0,0.712539 0,1.677914 -1.011345,-0.02299 -2.183587,-0.06895 -1.011345,-0.02299 -2.321498,-0.04597 -1.310152,-0.02298 -2.758215,-0.04597 z"
         style="stroke-width:0.7182852"
         id="path5702"
         inkscape:connector-curvature="0" />
      <path
         d="m 51.080561,16.832163 q 0.137911,-1.953736 0.229851,-4.367174 0.09194,-2.068661 0.183881,-4.8268766 0.09194,-2.7812003 0.183881,-6.0910585 h 1.723885 q 0.804479,0 1.83881,0 1.034331,-0.022985 2.229557,-0.068955 0.114926,1.1262712 0.275822,2.4134383 0.137911,1.1032861 0.321792,2.5743342 0.183881,1.4480629 0.413732,3.0570218 0.252836,-1.815825 0.528658,-4.0913525 0.275821,-2.2755275 0.482687,-4.68896582 0.89642,0.0229851 1.907766,0.0689554 0.85045,0.0459702 1.907765,0.0689554 1.080301,0.0229851 2.183587,0.0689554 0,1.95373582 0.09194,4.45911462 0.06896,2.1606018 0.183881,5.1716533 0.137911,3.011051 0.390747,6.803597 -0.643583,0.02298 -1.356122,0.06895 -0.597614,0.04597 -1.379108,0.06896 -0.758509,0.02299 -1.540003,0.04597 0.02298,-1.517018 0.02298,-3.401799 0,-1.608959 -0.04597,-3.815531 Q 61.8376,8.1208001 61.74566,5.4775105 61.584764,6.4428858 61.423868,7.5921422 61.262972,8.7413985 61.102076,9.9825953 60.94118,11.200807 60.80327,12.464989 q -0.137911,1.241197 -0.229852,2.436423 -0.620598,0 -1.310152,-0.02299 -0.597613,-0.02299 -1.333137,-0.02299 -0.712539,-0.02299 -1.448063,-0.06896 -0.09194,-0.965376 -0.252836,-2.229558 -0.137911,-1.103286 -0.344777,-2.6432891 -0.206867,-1.5629886 -0.528658,-3.5856797 0,2.0916465 0,4.8268768 0.02298,2.712245 0.09194,5.769267 -0.781494,-0.02299 -1.540003,-0.04597 -0.666569,-0.02298 -1.425078,-0.02298 -0.735524,0 -1.402093,-0.02298 z"
         style="stroke-width:0.7182852"
         id="path5704"
         inkscape:connector-curvature="0" />
    </g>
  </g>
</svg>
