<?xml version="1.0" encoding="UTF-8" standalone="no"?>
<!-- Created with Inkscape (http://www.inkscape.org/) -->

<svg
   xmlns:dc="http://purl.org/dc/elements/1.1/"
   xmlns:cc="http://creativecommons.org/ns#"
   xmlns:rdf="http://www.w3.org/1999/02/22-rdf-syntax-ns#"
   xmlns:svg="http://www.w3.org/2000/svg"
   xmlns="http://www.w3.org/2000/svg"
   xmlns:sodipodi="http://sodipodi.sourceforge.net/DTD/sodipodi-0.dtd"
   xmlns:inkscape="http://www.inkscape.org/namespaces/inkscape"
   version="1.1"
   id="svg815"
   xml:space="preserve"
   width="384"
   height="358.02667"
   viewBox="0 0 384 358.02667"
   sodipodi:docname="ahem-bluish.svg"
   inkscape:version="0.92.3 (2405546, 2018-03-11)"><sodipodi:namedview
     pagecolor="#ffffff"
     bordercolor="#666666"
     borderopacity="1"
     objecttolerance="10"
     gridtolerance="10"
     guidetolerance="10"
     inkscape:pageopacity="0"
     inkscape:pageshadow="2"
     inkscape:window-width="1920"
     inkscape:window-height="1137"
     id="namedview817"
     showgrid="false"
     inkscape:zoom="2.6199165"
     inkscape:cx="129.97512"
     inkscape:cy="179.01334"
     inkscape:window-x="-8"
     inkscape:window-y="-8"
     inkscape:window-maximized="1"
     inkscape:current-layer="g823" /><metadata
     id="metadata821"><rdf:RDF><cc:Work
         rdf:about=""><dc:format>image/svg+xml</dc:format><dc:type
           rdf:resource="http://purl.org/dc/dcmitype/StillImage" /><dc:title></dc:title></cc:Work></rdf:RDF></metadata><defs
     id="defs819" /><g
     transform="matrix(1.3333333,0,0,-1.3333333,0,358.02667)"
     inkscape:label="ink_ext_XXXXXX"
     inkscape:groupmode="layer"
     id="g823"><g
       transform="scale(0.1)"
       id="g825"><path
         inkscape:connector-curvature="0"
         id="path827"
         style="fill:#c3d0e2;fill-opacity:1;fill-rule:nonzero;stroke:none;opacity:1"
         d="M 1912.38,105 C 1912.38,47.0117 1519.88,0 1035.71,0 551.543,0 159.047,47.0117 159.047,105 c 0,57.988 392.496,105 876.663,105 484.17,0 876.67,-47.012 876.67,-105" /><path
         inkscape:connector-curvature="0"
         id="path829"
         style="fill:#ffffff;fill-opacity:1;fill-rule:nonzero;stroke:none;opacity:1"
         d="m 2437.39,1073.33 -63.34,-23.33 -38.33,-38.34 -26.67,-50 c 0,0 6.67,-38.332 6.67,-35 0,3.34 40,-51.66 40,-51.66 0,0 -60,-51.672 -65,-60 -5,-8.34 -18.33,-65.012 -3.33,-76.672 15,-11.668 81.66,-51.668 81.66,-51.668 l -75,-46.66 -36.66,-51.668 c 0,0 18.33,-33.344 28.33,-45 10,-11.672 68.34,-11.66 86.67,-8.332 18.33,3.332 76.66,28.332 76.66,28.332 l 35,53.328 5,46.668 -13.33,38.332 c 0,0 49.99,20 73.33,21.668 23.34,1.672 65,-8.328 65,-8.328 l 10,-11.672 -6.66,-63.328 c 0,0 -71.67,-58.34 -76.67,-78.34 -5,-20 5,-60 5,-65 0,-5 29.99,-31.672 38.33,-33.328 8.34,-1.672 33.34,-5 33.34,-5 L 2669.05,485 c 0,0 65,-40 86.67,-43.34 21.67,-3.328 76.67,21.672 76.67,21.672 l 33.33,68.328 3.33,83.34 -45,113.328 c 0,0 31.66,170 -130,206.672 l 15,50 -5,53.33 -36.66,36.67 -90,30 -53.34,-1.67 11.67,-101.67 -76.67,-5 -21.66,76.67" /><path
         inkscape:connector-curvature="0"
         id="path831"
         style="fill:#dbeaff;fill-opacity:1;fill-rule:nonzero;stroke:none;opacity:1"
         d="m 242.383,986.66 -40,1263.34 463.336,26.66 1003.331,23.34 596.67,20 -70,-1566.672 -1943.337,-159.996 -10,393.328" /><path
         inkscape:connector-curvature="0"
         id="path833"
         style="fill:#dbeaff;fill-opacity:1;fill-rule:nonzero;stroke:none;opacity:1"
         d="M 229.055,1350 155.719,1296.66 62.3828,1183.33 25.7188,1060 29.0508,950 c 0,0 19.9961,-100.012 43.332,-116.672 C 95.7188,816.66 212.383,760 212.383,760 c 0,0 116.664,-36.672 260,-16.672 143.336,20 350,103.344 373.336,116.672 0,0 -23.336,113.328 -30,106.66 C 809.055,960 569.055,920 569.055,920 H 375.719 L 242.383,986.66 229.055,1350" /><path
         inkscape:connector-curvature="0"
         id="path835"
         style="fill:#dbeaff;fill-opacity:1;fill-rule:nonzero;stroke:none;opacity:1"
         d="m 2239.05,1580 c 0,0 296.66,-260.01 290,-573.34 l -70,-10 c 0,0 -36.66,243.34 -233.33,346.67 l 13.33,236.67" /><path
         inkscape:connector-curvature="0"
         id="path837"
         style="fill:#dbeaff;fill-opacity:1;fill-rule:nonzero;stroke:none;opacity:1"
         d="m 665.719,2038.34 c 0,0 -36.672,164.99 0,238.32 36.668,73.34 90,151.68 120,171.68 30,20 136.668,61.66 168.336,58.32 31.664,-3.32 121.665,-23.32 121.665,-23.32 L 1184.05,2405 c 0,0 75,56.66 105,61.66 30,5 76.67,28.34 126.67,11.68 50,-16.68 158.34,-46.68 193.34,-103.34 35,-56.66 68.33,-161.66 68.33,-161.66 l -1.67,-110 c 0,0 -125,185 -393.33,116.66 l -1.67,-30 c 0,0 -80,68.34 -285.001,58.34 0,0 -180,-5 -330,-210" /><path
         inkscape:connector-curvature="0"
         id="path839"
         style="fill:#ffffff;fill-opacity:1;fill-rule:nonzero;stroke:none;opacity:1"
         d="m 665.719,2038.34 c 0,0 28.336,-113.34 98.336,-166.68 70,-53.32 156.664,-90 225,-85 68.335,5 148.335,46.68 148.335,46.68 l 56.66,46.66 c 0,0 80,-66.67 133.33,-73.34 53.34,-6.66 178.34,16.67 208.34,40 30,23.34 98.33,101.68 98.33,101.68 l 43.34,148.32 c 0,0 -40.01,85 -181.67,130 l -90,11.68 -85,-8.34 -38.33,-10 -1.67,-30 c 0,0 -80,38.34 -125,48.34 -45,10 -169.997,16.66 -186.665,13.32 -16.672,-3.32 -120,-41.66 -170,-78.33 -50,-36.67 -133.336,-134.99 -133.336,-134.99" /><path
         inkscape:connector-curvature="0"
         id="path841"
         style="fill:#d6f2fc;fill-opacity:1;fill-rule:nonzero;stroke:none;opacity:1"
         d="m 715.719,2093.33 c 0,-5 38.336,-266.67 303.331,-300 0,0 -88.327,-6.67 -104.995,-1.67 -16.672,5 -158.336,76.67 -158.336,76.67 l -88.336,161.67 48.336,63.33" /><path
         inkscape:connector-curvature="0"
         id="path843"
         style="fill:#d6f2fc;fill-opacity:1;fill-rule:nonzero;stroke:none;opacity:1"
         d="m 1245.72,1953.33 c 0,0 -1.67,-108.33 183.33,-143.33 l -43.33,-5 c 0,0 -76.67,6.66 -78.34,11.66 -1.66,5 -85,40 -85,40 l -28.33,33.34 51.67,63.33" /><path
         inkscape:connector-curvature="0"
         id="path845"
         style="fill:#f9fbff;fill-opacity:1;fill-rule:nonzero;stroke:none;opacity:1"
         d="m 665.719,1655 c 0,0 88.336,73.33 208.336,53.33 0,0 -78.336,35 -120,20 -41.668,-15 -88.336,-73.33 -88.336,-73.33" /><path
         inkscape:connector-curvature="0"
         id="path847"
         style="fill:#f9fbff;fill-opacity:1;fill-rule:nonzero;stroke:none;opacity:1"
         d="m 2240.72,1535 c 1.67,5 250.01,-191.67 281.67,-528.34 h 6.66 c 0,0 10,76.67 -15,155 -25,78.34 -110,245 -110,245 l -120,133.34 -41.67,31.66 -1.66,-36.66" /><path
         inkscape:connector-curvature="0"
         id="path849"
         style="fill:#f9fbff;fill-opacity:1;fill-rule:nonzero;stroke:none;opacity:1"
         d="m 170.715,1118.33 c 0,0 7.504,-395.83 648.332,-176.67 l -3.328,25 -113.34,-30 c 0,0 -198.336,-26.66 -200,-21.66 -1.664,5 -140,13.328 -140,13.328 l -85,35 -78.332,85.002 -28.332,70" /><path
         inkscape:connector-curvature="0"
         id="path851"
         style="fill:#c3d0e2;fill-opacity:1;fill-rule:nonzero;stroke:none;opacity:1"
         d="m 944.047,735 c 0,0 68.333,-50.012 136.663,43.328 l -20,23.332 L 1022.38,760 985.715,738.328 944.047,735" /><path
         inkscape:connector-curvature="0"
         id="path853"
         style="fill:#c3d0e2;fill-opacity:1;fill-rule:nonzero;stroke:none;opacity:1"
         d="m 1032.38,771.66 c 0,0 83.33,-106.66 183.33,-45 l -51.66,5 -106.67,76.668 -25,-36.668" /><path
         inkscape:connector-curvature="0"
         id="path855"
         style="fill:#c3d0e2;fill-opacity:1;fill-rule:nonzero;stroke:none;opacity:1"
         d="m 1287.38,771.66 c 0,0 103.34,-46.672 146.67,41.668 L 1392.38,795 h -70 l -28.33,11.66 -6.67,-35" /><path
         inkscape:connector-curvature="0"
         id="path857"
         style="fill:#c3d0e2;fill-opacity:1;fill-rule:nonzero;stroke:none;opacity:1"
         d="m 2234.05,1398.33 c 3.33,5 246.67,-170 240,-400.002 l -15,-1.668 c 0,0 -21.66,88.34 -38.33,136.67 -16.67,48.33 -106.67,148.33 -106.67,148.33 l -88.33,61.67 8.33,55" /><path
         inkscape:connector-curvature="0"
         id="path859"
         style="fill:#c3d0e2;fill-opacity:1;fill-rule:nonzero;stroke:none;opacity:1"
         d="m 609.055,2266.66 c 0,0 -58.336,-266.66 98.332,-416.66 l 61.668,-53.34 83.332,-26.66 73.332,-3.34 45,15 -110,23.34 c 0,0 -135,103.34 -136.664,108.34 -1.668,5 -68.336,161.66 -68.336,161.66 l 6.668,193.34 -53.332,-1.68" /><path
         inkscape:connector-curvature="0"
         id="path861"
         style="fill:#c3d0e2;fill-opacity:1;fill-rule:nonzero;stroke:none;opacity:1"
         d="m 1157.39,1856.66 c 0,0 85,-106.66 255,-58.32 l -105.01,18.32 -113.33,63.34 -36.66,-23.34" /><path
         inkscape:connector-curvature="0"
         id="path863"
         style="fill:#c3d0e2;fill-opacity:1;fill-rule:nonzero;stroke:none;opacity:1"
         d="m 769.055,956.66 c 0,0 55,-61.66 10,-131.66 l 66.664,35 -30,106.66 -46.664,-10" /><path
         inkscape:connector-curvature="0"
         id="path865"
         style="fill:#ffffff;fill-opacity:1;fill-rule:nonzero;stroke:none;opacity:1"
         d="M 844.055,866.66 820.719,985 l 13.336,106.66 20,41.67 c 0,0 21.66,16.66 33.328,15 11.672,-1.67 70,-20 70,-20 l 53.337,-20 c 0,0 34.99,100 36.66,105 1.67,5 26.67,50 53.34,65 26.66,15 41.67,25 63.33,23.33 21.67,-1.66 75,-31.66 75,-31.66 l 58.33,-80 60,36.66 78.34,-3.33 41.67,-58.33 6.66,-48.34 -26.66,-63.33 c 0,0 48.33,-40 43.33,-68.33 -5,-28.34 -18.33,-53.34 -18.33,-53.34 l -33.34,-35 -3.33,-46.66 c 0,0 -11.67,-41.672 -21.67,-45 -10,-3.34 -53.33,-16.672 -53.33,-16.672 l -76.67,18.332 -23.33,-45 -63.34,-35 -43.33,5 -68.33,40 -38.34,36.668 -45,-45 c 0,0 -38.325,-28.328 -48.325,-28.328 -10,0 -70,30 -70,30 l -50,101.66" /><path
         inkscape:connector-curvature="0"
         id="path867"
         style="fill:#d6f2fc;fill-opacity:1;fill-rule:nonzero;stroke:none;opacity:1"
         d="m 1339.05,996.66 c 0,0 88.34,-23.332 133.34,36.67 l -23.33,18.33 -25,-21.66 -85.01,-8.34 v -25" /><path
         inkscape:connector-curvature="0"
         id="path869"
         style="fill:#d6f2fc;fill-opacity:1;fill-rule:nonzero;stroke:none;opacity:1"
         d="m 1330.72,868.328 c 0,0 91.66,-31.668 120,-6.668 l -5,25 -38.33,-6.66 -70,10 -6.67,-21.672" /><path
         inkscape:connector-curvature="0"
         id="path871"
         style="fill:#d6f2fc;fill-opacity:1;fill-rule:nonzero;stroke:none;opacity:1"
         d="m 2584.05,611.66 c 0,0 61.68,-108.328 33.34,-153.328 l 23.33,10 28.33,16.668 c 0,0 -41.66,75 -43.33,81.66 -1.67,6.672 -8.33,73.34 -8.33,73.34 l -33.34,-28.34" /><path
         inkscape:connector-curvature="0"
         id="path873"
         style="fill:#d6f2fc;fill-opacity:1;fill-rule:nonzero;stroke:none;opacity:1"
         d="m 2329.05,850 c 0,0 215,-93.328 365,85 l -75,-45 -130,-33.34 c 0,0 -94.99,0 -96.66,5 -1.67,5 -30,15 -30,15 L 2329.05,850" /><path
         inkscape:connector-curvature="0"
         id="path875"
         style="fill:#f8a3d6;fill-opacity:1;fill-rule:nonzero;stroke:none;opacity:1"
         d="m 790.719,1408.33 c 0,0 78.328,21.67 91.664,21.67 13.336,0 66.672,-11.67 66.672,-11.67 0,0 39.992,25 63.325,23.33 23.34,-1.66 71.67,-10 71.67,-10 l 46.67,-31.66 23.33,-28.34 c 0,0 -60.1,4.69 -76.77,-1.97 -16.67,-6.67 -66.87,-17.5 -66.87,-17.5 l -103.027,-70.53 -63.328,36.67 -50,68.33 -3.336,21.67" /><path
         inkscape:connector-curvature="0"
         id="path877"
         style="fill:#ffffff;fill-opacity:1;fill-rule:nonzero;stroke:none;opacity:1"
         d="m 842.383,1418.33 c 0,0 120.004,-11.66 151.672,-28.33 0,0 -81.672,64.99 -151.672,28.33" /><path
         inkscape:connector-curvature="0"
         id="path879"
         style="fill:#ffffff;fill-opacity:1;fill-rule:nonzero;stroke:none;opacity:1"
         d="m 970.719,1405 c 0,0 68.331,35 146.661,-5 l -16.66,18.33 -60,16.67 h -60.001 l -31.664,-16.67 21.664,-13.33" /><path
         inkscape:connector-curvature="0"
         id="path881"
         style="fill:#bf1b2c;fill-opacity:1;fill-rule:nonzero;stroke:none;opacity:1"
         d="m 735.719,1618.33 76.664,40 50,-61.67 85,-35 96.667,-16.66 c 0,0 -25,-36.67 -23.33,-53.34 1.66,-16.66 20,-56.66 20,-56.66 h -60.001 l -23.336,-15 c 0,0 -58.328,13.33 -81.664,13.33 -23.336,0 -58.336,-10 -58.336,-10 l -26.664,-15 c 0,0 -30,88.33 -35,93.33 -5,5 -13.336,95 -13.336,95 l -6.664,21.67" /><path
         inkscape:connector-curvature="0"
         id="path883"
         style="fill:#dbeaff;fill-opacity:1;fill-rule:nonzero;stroke:none;opacity:1"
         d="m 925.719,646.66 50,-146.66 10,-150 -8.332,-108.34 -121.668,21.672 -105,-3.332 -95,-28.34 -58.332,-36.66 -46.668,-38.34 -45,-89.9998 715.001,26.6679 -25,46.6719 c 0,0 -78.34,71.66 -80,76.66 -1.67,5 -35,21.672 -35,21.672 l 18.33,220 65,173.328 38.34,48.34 -276.671,-33.34" /><path
         inkscape:connector-curvature="0"
         id="path885"
         style="fill:#dbeaff;fill-opacity:1;fill-rule:nonzero;stroke:none;opacity:1"
         d="m 1307.38,685 c 0,0 58.35,-183.34 60.01,-238.34 1.66,-55 3.33,-156.66 3.33,-156.66 l -71.67,-38.34 -68.33,-68.328 -10,-23.332 715,-68.3398 c 0,0 -20.01,46.6718 -21.67,51.6718 -1.66,5 -48.33,76.668 -48.33,76.668 l -96.67,56.66 -105,33.34 -95,-1.668 L 1472.39,290 c 0,0 -11.68,128.332 -8.34,160 3.34,31.66 41.67,163.332 41.67,163.332 L 1547.39,700 1307.38,685" /><path
         inkscape:connector-curvature="0"
         id="path887"
         style="fill:#c3d0e2;fill-opacity:1;fill-rule:nonzero;stroke:none;opacity:1"
         d="m 964.055,561.66 c 5,6.672 113.325,85 188.325,51.672 l 38.34,58.328 -265.001,-25 38.336,-85" /><path
         inkscape:connector-curvature="0"
         id="path889"
         style="fill:#c3d0e2;fill-opacity:1;fill-rule:nonzero;stroke:none;opacity:1"
         d="m 1345.72,598.332 c 0,0 78.33,79.996 170,49.996 l 31.67,51.672 -233.34,-18.34 31.67,-83.328" /><path
         inkscape:connector-curvature="0"
         id="path891"
         style="fill:#f9fbff;fill-opacity:1;fill-rule:nonzero;stroke:none;opacity:1"
         d="m 1467.39,280 c 0,0 325,51.66 445,-173.34 l 11.67,5 -78.34,108.34 -90,61.66 -73.33,18.34 -105,8.332 -71.67,-10 -33.33,-8.332 -5,-10" /><path
         inkscape:connector-curvature="0"
         id="path893"
         style="fill:#f9fbff;fill-opacity:1;fill-rule:nonzero;stroke:none;opacity:1"
         d="m 974.055,230 c 0,0 -291.672,68.332 -453.336,-156.6719 l 31.668,75.0039 c 0,0 86.668,70 91.668,70 5,0 106.664,41.668 106.664,41.668 H 872.387 L 945.719,246.66 974.055,230" /><path
         inkscape:connector-curvature="0"
         id="path895"
         style="fill:#f9fbff;fill-opacity:1;fill-rule:nonzero;stroke:none;opacity:1"
         d="m 1038.22,2490 c 0,0 152.5,-67.5 205,-280 l 37.5,-20 c 0,0 -12.5,237.5 -242.5,300" /><path
         inkscape:connector-curvature="0"
         id="path897"
         style="fill:#f9fbff;fill-opacity:1;fill-rule:nonzero;stroke:none;opacity:1"
         d="m 1393.22,2477.5 c 0,0 260,-80 252.5,-335 l 31.67,-45.84 c 0,0 53.33,343.34 -284.17,380.84" /><path
         inkscape:connector-curvature="0"
         id="path899"
         style="fill:#c3d0e2;fill-opacity:1;fill-rule:nonzero;stroke:none;opacity:1"
         d="m 257.379,688.328 c 0,0 271.668,-74.996 593.336,135 l -10,31.672 -150,-66.672 -183.336,-50 -150,-10 -101.664,5 1.664,-45" /><path
         inkscape:connector-curvature="0"
         id="path901"
         style="fill:#f9fbff;fill-opacity:1;fill-rule:nonzero;stroke:none;opacity:1"
         d="m 1655.72,2290 570,-16.66 -43.33,-1513.34 83.33,1546.66 -610,-16.66" /><path
         inkscape:connector-curvature="0"
         id="path903"
         style="fill:#c3d0e2;fill-opacity:1;fill-rule:nonzero;stroke:none;opacity:1"
         d="m 185.719,1318.33 23.336,-290 33.328,-41.67 -18.328,355 -38.336,-23.33" /><path
         inkscape:connector-curvature="0"
         id="path905"
         style="fill:#231f20;fill-opacity:1;fill-rule:nonzero;stroke:none;opacity:1"
         d="m 1656.67,2296.02 c 204.16,5 408.33,10 612.5,15 -4.16,2.53 -8.31,5.06 -12.46,7.59 -23.49,-488.84 -47,-977.66 -70.5,-1466.501 -1.5,-31.16 -2.99,-62.328 -4.5,-93.5 5.19,3.461 10.37,6.922 15.56,10.371 C 1704.7,727.09 1212.12,685.199 719.547,643.301 565.453,630.199 411.363,617.09 257.273,603.98 c 4.149,-2.531 8.297,-5.058 12.45,-7.589 -1.657,50.031 -3.313,100.05 -4.961,150.078 -0.442,13.312 -28.36,7.953 -28.008,-2.778 1.652,-50.031 3.309,-100.05 4.961,-150.082 0.219,-6.648 6.726,-8.078 12.445,-7.589 492.578,41.89 985.15,83.781 1477.73,125.679 154.09,13.102 308.18,26.211 462.28,39.321 5,0.429 15.24,3.941 15.55,10.371 23.5,488.829 47,977.659 70.51,1466.499 1.49,31.16 2.99,62.33 4.49,93.5 0.33,6.93 -7.19,7.72 -12.45,7.59 -204.16,-5 -408.33,-10 -612.5,-15 -14.92,-0.36 -22.16,-18.43 -3.1,-17.96" /><path
         inkscape:connector-curvature="0"
         id="path907"
         style="fill:#231f20;fill-opacity:1;fill-rule:nonzero;stroke:none;opacity:1"
         d="m 256.969,985 c -14.172,421.66 -28.082,854.72 -42.246,1276.39 -5.188,-3.46 -10.375,-6.92 -15.563,-10.37 156.633,4.53 313.258,9.07 469.883,13.61 14.906,0.43 22.18,18.52 3.113,17.97 -156.629,-4.55 -313.254,-9.08 -469.883,-13.62 -4.593,-0.13 -15.765,-4.21 -15.558,-10.37 14.168,-421.67 28.336,-843.33 42.5,-1265.001 0.449,-13.32 28.113,-19.339 27.754,-8.609" /><path
         inkscape:connector-curvature="0"
         id="path909"
         style="fill:#231f20;fill-opacity:1;fill-rule:nonzero;stroke:none;opacity:1"
         d="m 1288.22,2145 h -10 c 0,-96.31 -34.68,-183.34 -90.47,-246.15 -55.83,-62.81 -132.46,-101.34 -217.031,-101.35 -84.571,0.01 -161.203,38.54 -217.031,101.35 -55.79,62.81 -90.473,149.84 -90.469,246.15 -0.004,96.31 34.679,183.34 90.469,246.15 55.828,62.82 132.46,101.34 217.031,101.35 84.571,-0.01 161.201,-38.53 217.031,-101.35 55.79,-62.81 90.47,-149.84 90.47,-246.15 h 10 10 c -0.01,101.13 -36.39,192.85 -95.52,259.43 -59.08,66.58 -141.2,108.08 -231.981,108.07 -90.781,0.01 -172.903,-41.49 -231.985,-108.07 -59.125,-66.58 -95.511,-158.3 -95.515,-259.43 0.004,-101.13 36.39,-192.85 95.515,-259.43 59.082,-66.57 141.204,-108.08 231.985,-108.07 90.781,-0.01 172.901,41.5 231.981,108.07 59.13,66.58 95.51,158.3 95.52,259.43 h -10" /><path
         inkscape:connector-curvature="0"
         id="path911"
         style="fill:#231f20;fill-opacity:1;fill-rule:nonzero;stroke:none;opacity:1"
         d="m 1198.93,2402.73 c 50.01,45.1 113.11,71.88 181.79,71.9 80.18,-0.02 152.84,-36.54 205.8,-96.12 52.91,-59.58 85.82,-142.13 85.82,-233.51 0,-91.37 -32.91,-173.94 -85.82,-233.51 -52.96,-59.58 -125.62,-96.1 -205.8,-96.11 -71.83,0.01 -137.56,29.29 -188.58,78.21 l -13.84,-14.44 c 54.27,-52.1 125.06,-83.79 202.42,-83.77 86.39,-0.01 164.54,39.49 220.75,102.83 56.26,63.35 90.86,150.6 90.87,246.79 -0.01,96.19 -34.61,183.44 -90.87,246.79 -56.21,63.34 -134.36,102.85 -220.75,102.84 -73.96,0 -141.94,-28.97 -195.19,-77.05 l 13.4,-14.85" /><path
         inkscape:connector-curvature="0"
         id="path913"
         style="fill:#231f20;fill-opacity:1;fill-rule:nonzero;stroke:none;opacity:1"
         d="m 808.563,1656.54 c 26.148,-89.82 163.171,-123.89 260.257,-112.75 100.44,8.25 178.15,35.31 177.34,37.82 -1.07,5.05 -80.67,-14.86 -178.25,-17.7 -96.074,-7.17 -216.547,35.51 -231.711,99.55 l -27.636,-6.92" /><path
         inkscape:connector-curvature="0"
         id="path915"
         style="fill:#231f20;fill-opacity:1;fill-rule:nonzero;stroke:none;opacity:1"
         d="m 725.914,1623.57 c 6.977,-60.23 21.32,-139.14 56.559,-218.84 18.015,-39.21 42.199,-79.41 79.297,-107.97 8.871,-7.62 19.015,-13.39 29.851,-18.08 l 7.887,-3.82 1.972,-0.94 5.645,-2.36 c 8.594,7.35 9.746,8.5 9.746,8.5 l 11.16,10.7 c 15.563,13.73 32.274,26.14 49.844,36.14 147.335,87.73 290.615,13.2 287.275,21.67 6.67,-3.11 -136.96,81.3 -295.966,-6.51 -18.829,-10.08 -36.774,-22.69 -53.77,-37 l -12.426,-11.39 3.754,-0.57 -6.742,3.52 c -9.246,4.2 -17.988,9.36 -25.703,16.35 -32.242,25.77 -54.524,63.46 -71.055,101.08 -32.48,76.2 -46.129,154.43 -52.719,211.76 l -24.609,-2.24" /><path
         inkscape:connector-curvature="0"
         id="path917"
         style="fill:#231f20;fill-opacity:1;fill-rule:nonzero;stroke:none;opacity:1"
         d="m 909.055,1666.67 c -0.067,-8.84 -63.711,1.72 -128.309,-26.92 -65.387,-30.48 -79.183,-95.62 -85.031,-93.09 -7.59,-3.1 -3.52,76.68 74.719,114.61 76.226,32.72 140.601,9 138.621,5.4" /><path
         inkscape:connector-curvature="0"
         id="path919"
         style="fill:#231f20;fill-opacity:1;fill-rule:nonzero;stroke:none;opacity:1"
         d="m 791.547,1395.28 c 25.226,18.22 80.898,34.09 126.476,23.67 46.059,-8.51 78.469,-33.07 80.305,-29.96 1.395,1.16 -28.285,30.61 -77.277,43.69 -48.922,14.72 -110.481,0.8 -141.164,-21.3 l 11.66,-16.1" /><path
         inkscape:connector-curvature="0"
         id="path921"
         style="fill:#231f20;fill-opacity:1;fill-rule:nonzero;stroke:none;opacity:1"
         d="m 952.438,1409.7 c 24.675,20.55 84.302,34.3 127.812,11.55 44.33,-19.37 69.96,-54.05 72.92,-50.83 1.22,0.33 -19.79,38.89 -66.6,64.01 -46.57,28.71 -116.379,17.23 -146.945,-8.5 l 12.813,-16.23" /><path
         inkscape:connector-curvature="0"
         id="path923"
         style="fill:#231f20;fill-opacity:1;fill-rule:nonzero;stroke:none;opacity:1"
         d="m 1050.92,1558.7 c -0.26,-0.24 -9.39,-8.41 -18.66,-21.54 -9.22,-13.12 -18.84,-31.3 -18.91,-52.01 -0.04,-14.13 4.81,-29.3 16.93,-43.2 2.6,-3 7.15,-3.33 10.15,-0.72 3.01,2.6 3.33,7.14 0.73,10.15 -9.98,11.59 -13.35,22.78 -13.41,33.77 -0.05,16.01 7.9,31.92 16.27,43.71 4.15,5.89 8.34,10.73 11.46,14.06 1.56,1.67 2.85,2.96 3.74,3.82 l 1,0.96 0.3,0.26 c 2.96,2.66 3.22,7.21 0.56,10.17 -2.65,2.96 -7.2,3.22 -10.16,0.57" /><path
         inkscape:connector-curvature="0"
         id="path925"
         style="fill:#231f20;fill-opacity:1;fill-rule:nonzero;stroke:none;opacity:1"
         d="M 210.996,1346.97 C 51.332,1254.82 -75.1289,1006.77 52.0117,842.621 125.313,747.98 259.285,723.461 371.719,722.781 c 167.312,-1.019 333.179,56.418 480.043,132.489 22.668,11.742 -13.371,8.968 -22.09,4.46 C 679.629,782.012 514.512,728.289 343.785,739.98 235.566,747.391 119.371,791.5 65.5938,891.461 -18.9453,1048.63 99.0586,1264.76 240.438,1346.36 c 16.207,9.36 -22.719,4.49 -29.442,0.61" /><path
         inkscape:connector-curvature="0"
         id="path927"
         style="fill:#231f20;fill-opacity:1;fill-rule:nonzero;stroke:none;opacity:1"
         d="M 816.797,954.828 C 709.547,921.641 517.52,870.82 356.02,916.109 276,937.762 215.504,991.93 192.324,1040.66 c -24.886,48.3 -23.203,83.31 -20.996,82.83 2.711,0.82 6.133,-32.49 33.246,-75.69 25.715,-43.68 82.86,-89.53 158.117,-106.8 151.887,-36.52 337.875,15.719 443.161,48.57 16.351,4.989 26.293,-30.058 10.945,-34.742" /><path
         inkscape:connector-curvature="0"
         id="path929"
         style="fill:#231f20;fill-opacity:1;fill-rule:nonzero;stroke:none;opacity:1"
         d="m 908.473,644.602 c 62.207,-130.411 85.132,-262.032 53.125,-405.551 7.355,3.539 14.715,7.078 22.07,10.621 -186.34,58.508 -415.734,19.609 -491.305,-181.1915 -3.14,-8.3399 4.961,-12.6992 12.227,-12.3985 238.887,10 477.777,20 716.66,30 5.99,0.2578 18.19,6.2969 15.04,14.316 -13.5,34.332 -37,66.852 -63.89,91.782 -5.9,5.48 -76.15,55.09 -75.91,45.832 -0.29,11.429 -0.07,22.898 0.17,34.328 2.82,132.941 23.13,284.019 105.78,392.43 10.83,14.199 -15.4,19.339 -23.44,8.789 -90.87,-119.188 -114.57,-291.289 -110.74,-437.84 0.12,-4.457 2.17,-6.899 6.17,-8.719 57.64,-26.23 110.4,-73.941 134.04,-134.0586 5.02,4.7695 10.03,9.5386 15.04,14.3206 C 984.625,97.2617 745.73,87.2617 506.848,77.2617 c 4.074,-4.1406 8.148,-8.2734 12.222,-12.4023 69.641,185.0316 277.02,219.3786 448.7,165.4686 8.625,-2.707 19.941,1.082 22.07,10.621 32.36,145.102 9.461,279 -53.547,411.11 -6,12.57 -33.543,4.55 -27.82,-7.457" /><path
         inkscape:connector-curvature="0"
         id="path931"
         style="fill:#231f20;fill-opacity:1;fill-rule:nonzero;stroke:none;opacity:1"
         d="m 680.719,2446.66 c 0,0 96.664,230.01 370.001,156.68 0,0 -303.337,246.66 -370.001,-156.68" /><path
         inkscape:connector-curvature="0"
         id="path933"
         style="fill:#231f20;fill-opacity:1;fill-rule:nonzero;stroke:none;opacity:1"
         d="m 680.719,2446.66 6.636,-2.78 0.168,0.38 c 1.954,4.49 21.055,46.38 62.61,86.8 41.625,40.44 105.234,79.47 197.644,79.51 30.442,0 64.043,-4.25 101.073,-14.19 l 6.41,12.54 c -0.24,0.19 -23.5,19.1 -58.752,38.09 -35.27,18.95 -82.539,38.14 -131.317,38.19 -39.832,0.08 -80.867,-13.23 -114.988,-49.92 -34.148,-36.65 -61.441,-95.88 -76.59,-187.44 l 13.742,-3.96 -6.636,2.78 7.101,-1.17 c 14.84,89.87 41.477,146.31 72.91,179.97 31.465,33.62 67.676,45.26 104.461,45.34 44.93,0.05 90.422,-18.1 124.493,-36.48 17.036,-9.16 31.216,-18.36 41.116,-25.23 4.94,-3.44 8.82,-6.3 11.44,-8.29 1.31,-0.99 2.31,-1.77 2.97,-2.28 l 0.97,-0.77 4.54,5.59 1.86,6.95 c -38.14,10.23 -73.017,14.68 -104.803,14.68 -99.765,0.04 -168.566,-43.93 -211.824,-87.68 -43.332,-43.78 -61.637,-87.31 -61.871,-87.84 l 6.637,-2.79 7.101,-1.17 -7.101,1.17" /><path
         inkscape:connector-curvature="0"
         id="path935"
         style="fill:#ffffff;fill-opacity:1;fill-rule:nonzero;stroke:none;opacity:1"
         d="m 1757.42,2220.45 -5.14,-75.2 c 0,0 24.88,-30.41 -1.39,-64.55 l -6.95,-58.79 c 0,0 30.35,-23 -1.48,-65.54 l -6.65,-68.93 55.71,-1.91 c 0,0 37.32,20.62 56.97,1.98 l 81.78,-0.1 c 0,0 33.11,32.27 68.14,4.64 l 71.88,1.13 c 0,0 45.39,36.8 74.92,1.76 l 41.87,-0.17 5.51,81.22 c 0,0 -25.65,33.53 4.3,63.17 l 2.36,64.41 c 0,0 -32.12,26.27 6.92,57.78 l 5.11,75.21 -49.94,-0.85 c 0,0 -28.65,-25.74 -69.9,-1.38 l -62.97,-2.24 c 0,0 -36.56,-38.91 -78.16,-5.4 l -78.87,-1.28 c 0,0 -27.52,-38.03 -56.91,-0.98 l -57.11,-3.98" /><path
         inkscape:connector-curvature="0"
         id="path937"
         style="fill:#ff2a0a;fill-opacity:1;fill-rule:nonzero;stroke:none;opacity:1"
         d="m 1802.56,2180.43 345.98,13.4 -9.09,-251.65 -353.92,-12.42 17.03,250.67" /><path
         inkscape:connector-curvature="0"
         id="path939"
         style="fill:#231f20;fill-opacity:1;fill-rule:nonzero;stroke:none;opacity:1"
         d="m 2139.19,1937.07 -0.28,7.99 -345.48,-12.16 14.84,241.88 338.2,11.9 -15.26,-249.13 7.98,-0.48 -0.28,7.99 0.28,-7.99 7.99,-0.49 16.34,266.71 -370.33,-13.03 -16.81,-273.97 370.35,13.03 0.45,7.26 -7.99,0.49" /><path
         inkscape:connector-curvature="0"
         id="path941"
         style="fill:#231f20;fill-opacity:1;fill-rule:nonzero;stroke:none;opacity:1"
         d="m 1756.48,2222.88 0.25,-7.2 57.02,2 -0.26,7.2 -6.08,-3.86 c 0.25,-0.37 3.23,-5.08 8.86,-9.98 5.59,-4.86 14.15,-10.15 25.26,-10.18 10.53,-0.04 22.26,5 33.91,17.07 l -5.15,5.02 0.25,-7.2 c 0.01,0 78.34,2.74 82.43,2.89 l 0.11,0.01 0.13,0.01 0.14,0.01 -0.61,6.94 v -6.97 l 0.61,0.03 -0.61,6.94 v -6.97 5.77 l -2.4,-5.28 c 0.33,-0.13 0.99,-0.46 2.4,-0.49 v 5.77 l -2.4,-5.28 1.38,3.06 -1.68,-2.91 0.3,-0.15 1.38,3.06 -1.68,-2.91 0.2,0.34 -0.22,-0.33 0.02,-0.01 0.2,0.34 -0.22,-0.33 c 0.27,-0.15 1.7,-1.33 3.5,-2.77 5.47,-4.39 15.85,-11.66 30.97,-11.63 12.79,-0.01 28.22,5.13 46.34,19.16 l -4.41,5.7 0.25,-7.2 67.91,2.39 -0.26,7.2 -4.21,-5.85 c 0.64,-0.37 15.63,-11.35 37.06,-11.46 11.57,-0.03 25,3.49 37.76,13.67 l -4.49,5.64 0.11,-7.2 40.04,0.6 -3.97,-64.44 7.18,-0.45 -4.95,5.23 c -0.23,-0.24 -5,-4.74 -9.88,-11.92 -4.83,-7.18 -10.07,-17.11 -10.13,-28.76 -0.01,-5.22 1.16,-10.76 3.94,-16.04 2.76,-5.3 7.09,-10.26 13.05,-14.67 l 4.28,5.78 -7.19,0.44 -3.8,-61.69 7.18,-0.45 -5.05,5.14 c -0.26,-0.26 -4.66,-4.61 -9.17,-11.76 -4.46,-7.13 -9.18,-17.19 -9.22,-29.05 -0.07,-10.51 4.1,-22.2 14.53,-32.44 l 5.07,5.11 -7.2,0.32 -3.55,-79.91 -0.08,-1.23 7.17,-0.52 -0.25,7.19 -40.66,-1.42 0.25,-7.2 5.83,4.23 c -0.33,0.45 -3.65,4.97 -10.2,9.54 -6.51,4.57 -16.43,9.18 -29.28,9.17 -12.34,0.01 -27.02,-4.26 -43.52,-15.65 l 4.08,-5.92 -0.25,7.19 c -0.04,0 -17.65,-0.62 -35.8,-1.26 -18.15,-0.64 -36.82,-1.3 -38.82,-1.36 l 0.24,-7.2 v 7.2 h -0.02 v -5.41 l 1.91,5.09 c -0.23,0.07 -0.7,0.3 -1.91,0.32 v -5.41 l 1.91,5.09 -0.76,-2.01 0.92,1.95 -0.16,0.06 -0.76,-2.01 0.92,1.95 c -0.06,-0.01 -1.66,0.98 -3.6,2.24 -5.99,3.83 -17.02,10.61 -31.7,10.63 -11.99,0.05 -25.92,-4.79 -39.94,-17.78 l 4.87,-5.29 -0.28,7.19 -81.07,-3.2 0.28,-7.2 5.21,4.98 c -0.34,0.34 -3.42,3.53 -8.93,6.77 -5.5,3.22 -13.54,6.51 -23.47,6.52 -10.2,0.03 -22.13,-3.62 -34.26,-13.32 l 4.48,-5.63 -0.26,7.19 -49.03,-1.72 3.96,64.27 -7.19,0.44 4.95,-5.23 c 0.24,0.23 4.99,4.74 9.88,11.92 4.83,7.18 10.05,17.11 10.12,28.75 0.01,5.23 -1.15,10.77 -3.94,16.06 -2.76,5.28 -7.08,10.25 -13.02,14.66 l -4.3,-5.78 7.19,-0.44 3.75,61.71 -7.19,0.43 5.05,-5.14 c 0.25,0.27 4.67,4.61 9.18,11.75 4.47,7.15 9.21,17.2 9.25,29.08 0.06,10.5 -4.12,22.2 -14.55,32.43 l -5.07,-5.12 7.19,-0.32 3.59,80.04 0.06,1.3 -7.2,0.33 0.25,-7.2 -0.25,7.2 -7.2,0.32 -0.06,-1.31 -3.72,-83.23 2.27,-2.24 c 8,-8.02 10.21,-15.25 10.28,-22.2 0.04,-7.83 -3.37,-15.63 -7.03,-21.4 -1.81,-2.88 -3.64,-5.24 -5,-6.84 l -1.6,-1.8 -0.4,-0.43 -0.09,-0.09 0.36,-0.36 -0.36,0.37 v -0.01 l 0.36,-0.36 -0.36,0.37 -1.97,-1.94 -4.15,-68.35 3.12,-2.33 c 4.51,-3.35 7.22,-6.66 8.87,-9.79 1.64,-3.15 2.28,-6.19 2.28,-9.37 0.07,-6.98 -3.58,-14.78 -7.62,-20.66 -2,-2.94 -4.03,-5.39 -5.53,-7.07 l -1.78,-1.93 -0.46,-0.45 -0.1,-0.11 -2.06,-1.95 -5.11,-82.93 67.26,2.36 1.86,1.48 c 10.09,7.97 18.43,10.16 25.3,10.19 6.68,0 12.24,-2.23 16.18,-4.55 1.97,-1.14 3.5,-2.3 4.51,-3.13 l 1.08,-0.95 0.22,-0.22 0.25,0.26 -0.25,-0.25 v -0.01 l 0.25,0.26 -0.25,-0.25 2.24,-2.35 86.96,3.44 1.95,1.79 c 12.09,11.04 21.98,13.92 30.19,13.97 7.41,0.01 13.84,-2.56 18.95,-5.36 2.56,-1.4 4.72,-2.83 6.6,-4.04 0.95,-0.6 1.81,-1.15 2.79,-1.69 l 1.73,-0.8 c 0.71,-0.25 1.6,-0.58 3.16,-0.6 h 0.02 0.13 0.12 c 4.06,0.14 74.63,2.63 74.64,2.63 l 2.1,0.08 1.73,1.19 c 14.68,10.1 26.33,13.09 35.35,13.1 9.37,-0.01 16.28,-3.27 21.03,-6.57 2.37,-1.65 4.15,-3.3 5.3,-4.5 l 1.24,-1.38 0.25,-0.32 v 0 l 2.26,-3.09 50.94,1.78 0.57,7.77 0.01,0.08 3.7,83.33 -2.27,2.24 c -7.97,8.02 -10.19,15.25 -10.26,22.22 -0.04,7.83 3.36,15.62 7.01,21.39 1.82,2.88 3.65,5.24 5,6.84 l 1.59,1.81 0.41,0.42 0.08,0.09 -0.33,0.33 0.33,-0.33 v 0 l -0.33,0.33 0.33,-0.33 1.97,1.93 4.21,68.35 -3.13,2.32 c -4.51,3.36 -7.23,6.66 -8.88,9.8 -1.63,3.13 -2.27,6.18 -2.28,9.35 -0.07,6.99 3.59,14.79 7.63,20.67 2.01,2.93 4.03,5.39 5.53,7.07 l 1.79,1.92 0.46,0.46 0.1,0.1 2.07,1.96 5.1,82.78 -58.03,-0.86 -1.93,-1.53 c -10.26,-8.11 -19.99,-10.5 -28.79,-10.54 -8.1,-0.01 -15.4,2.2 -20.62,4.47 -2.62,1.12 -4.7,2.25 -6.09,3.06 l -1.55,0.96 -0.34,0.23 -0.06,0.05 -1.32,-1.87 1.34,1.85 -0.02,0.02 -1.32,-1.87 1.34,1.85 -2,1.45 -72.68,-2.57 -1.83,-1.41 c -16.46,-12.71 -28.68,-16.15 -37.53,-16.16 -7.94,0.02 -13.69,2.74 -18.17,5.68 -2.23,1.48 -4.06,2.99 -5.69,4.31 -0.83,0.67 -1.58,1.29 -2.54,1.94 l -1.8,1.02 c -0.77,0.34 -1.82,0.78 -3.55,0.8 l -0.62,-0.02 -0.04,-0.01 0.61,-6.85 -0.48,6.86 -0.13,-0.01 0.61,-6.85 -0.48,6.86 0.5,-7.18 -0.26,7.2 c -2.02,-0.08 -22.63,-0.81 -42.73,-1.51 -20.1,-0.71 -39.65,-1.39 -39.69,-1.39 l -2.89,-0.1 -2.01,-2.08 c -9.97,-10.16 -17.68,-12.66 -23.6,-12.7 -6.26,-0.03 -11.72,3.1 -15.81,6.64 -2.01,1.76 -3.63,3.55 -4.69,4.87 l -1.17,1.55 -0.26,0.37 -0.04,0.07 -1.96,-1.27 1.98,1.24 -0.02,0.03 -1.96,-1.27 1.98,1.24 -2.22,3.49 -67.78,-2.38 -0.3,-6.64 7.2,-0.32" /><path
         inkscape:connector-curvature="0"
         id="path943"
         style="fill:#231f20;fill-opacity:1;fill-rule:nonzero;stroke:none;opacity:1"
         d="m 882.387,1710 c -1.852,-7.17 -54.977,23.26 -119.875,8.07 -65.086,-16.12 -96.282,-68.76 -100.125,-64.74 -4.836,-0.17 21.383,62.44 95.933,81.83 74.868,16.46 126.922,-24.3 124.067,-25.16" /><path
         inkscape:connector-curvature="0"
         id="path945"
         style="fill:#231f20;fill-opacity:1;fill-rule:nonzero;stroke:none;opacity:1"
         d="m 1022.22,1106 c 6.98,56.79 34.59,121.17 74.33,162 75.78,77.84 149.21,-17.09 186.37,-72.07 4.41,-6.52 29.65,4.74 27.82,7.45 -41.92,62.03 -99.32,124.84 -182.78,95.91 -80.25,-27.83 -123.77,-121.12 -133.565,-200.75 -0.34,-2.8 26.835,-0.59 27.825,7.46" /><path
         inkscape:connector-curvature="0"
         id="path947"
         style="fill:#231f20;fill-opacity:1;fill-rule:nonzero;stroke:none;opacity:1"
         d="m 1229.28,1182.36 c 47.71,-22.39 92.1,20.79 135.37,33.7 63.78,19.05 108.61,-37.59 105.46,-96.82 -3.06,-57.92 -64.22,-91.06 -115.55,-85.31 -13,1.45 -28.72,-17.12 -9.91,-19.22 82.28,-9.2 160.54,48.61 152.99,136.35 -3.66,42.56 -44.61,83.3 -85.47,89.3 -21.29,3.13 -45.92,-4.49 -66.03,-10.49 -26.9,-8.03 -64.5,-46.48 -95.26,-32.04 -10.23,4.8 -34.95,-9.2 -21.6,-15.47" /><path
         inkscape:connector-curvature="0"
         id="path949"
         style="fill:#231f20;fill-opacity:1;fill-rule:nonzero;stroke:none;opacity:1"
         d="m 1447.41,1046.67 2.46,0.52 c -5.17,0.71 -10.32,1.42 -15.48,2.13 l 0.52,-2.44 c 1.13,-5.38 12.39,-2.79 15.48,-2.13 1.62,0.35 3.25,0.7 4.88,1.05 -4.86,0.23 -9.72,0.46 -14.57,0.7 29.53,-21.79 52.48,-49.578 44.94,-88.422 -10.72,-55.199 -78.3,-74.898 -124.56,-60.469 -7.52,2.34 -32.65,-9.16 -22.44,-12.347 59.91,-18.684 123.65,-3.731 162.16,49.289 18.99,26.148 19.78,62.129 0.64,88.199 -14.13,19.22 -29.21,39.06 -54.2,33.71 5.17,-0.71 10.32,-1.42 15.48,-2.13 l -0.52,2.44 c -1.14,5.39 -12.39,2.78 -15.48,2.13 l -2.46,-0.52 c -16.83,-3.54 -13.37,-15.18 3.15,-11.71" /><path
         inkscape:connector-curvature="0"
         id="path951"
         style="fill:#231f20;fill-opacity:1;fill-rule:nonzero;stroke:none;opacity:1"
         d="m 1047.62,813.371 c 21.02,-47.75 85.62,-99.23 140.49,-97.383 52.41,1.762 114.14,41.172 115.52,99.832 0.33,14.16 -27.84,9.692 -28.13,-2.332 -1.19,-50.789 -65.6,-89.949 -110.01,-70.226 -36.9,16.379 -73.19,39.258 -90.05,77.558 -5.26,11.95 -32.79,3.84 -27.82,-7.449" /><path
         inkscape:connector-curvature="0"
         id="path953"
         style="fill:#231f20;fill-opacity:1;fill-rule:nonzero;stroke:none;opacity:1"
         d="m 1278.9,810.449 c 36.19,-25.98 85.04,-27.801 127.04,-16.347 18.22,4.957 33.54,15.718 46.09,29.488 18.87,20.738 14.05,46.808 8.81,71.84 -1.23,5.922 -29.2,-0.809 -27.81,-7.45 7.61,-36.39 6.97,-80.39 -42.06,-88.031 -30.26,-4.711 -61.33,2.34 -85.85,19.949 -6.31,4.532 -30.15,-6.628 -26.22,-9.449" /><path
         inkscape:connector-curvature="0"
         id="path955"
         style="fill:#231f20;fill-opacity:1;fill-rule:nonzero;stroke:none;opacity:1"
         d="m 1334.56,975.09 c -3.98,1.519 0.61,22.07 -2.95,47.49 -3.19,25.47 -10.55,45.73 -7.11,47.5 3.14,1.93 17.06,-17.35 20.71,-45.77 3.95,-28.798 -7.67,-50.869 -10.65,-49.22" /><path
         inkscape:connector-curvature="0"
         id="path957"
         style="fill:#231f20;fill-opacity:1;fill-rule:nonzero;stroke:none;opacity:1"
         d="m 1327.66,863.691 c -2.96,2.071 6.1,16.438 5.79,35.649 -0.1,19.289 -8.4,34.289 -5.74,35.941 1.89,1.981 15.99,-12.261 16.41,-35.769 0.09,-23.864 -15.1,-37.703 -16.46,-35.821" /><path
         inkscape:connector-curvature="0"
         id="path959"
         style="fill:#231f20;fill-opacity:1;fill-rule:nonzero;stroke:none;opacity:1"
         d="m 1017.96,1107.34 c -44.733,24.92 -121.175,63.93 -171.374,32.39 -47.371,-29.76 -39.684,-129.66 -35.867,-175.378 5.851,-70.243 38.789,-194.512 111.25,-227.231 63.172,-28.543 122.591,35.418 152.491,81.891 2.42,3.758 -22.98,2.308 -27.49,-4.692 -19.78,-30.75 -52.904,-81.429 -97.068,-68.09 -17.972,5.418 -31.371,26.192 -42.613,39.758 -42.672,51.524 -61.648,120.59 -68.754,185.821 -5.297,48.611 -3.601,103.191 15.973,148.681 18.601,43.22 108.504,-6.79 137.293,-22.83 7.242,-4.03 30.299,7.37 26.159,9.68" /><path
         inkscape:connector-curvature="0"
         id="path961"
         style="fill:#231f20;fill-opacity:1;fill-rule:nonzero;stroke:none;opacity:1"
         d="m 1047.41,847.309 c -2.87,-2.61 -34.94,43.312 -45.27,109.14 -11.577,64.971 -6.597,118.511 -3.277,118.251 3.487,-0.04 4.137,-52.73 15.447,-116.04 10.07,-63.941 35.67,-109.601 33.1,-111.351" /><path
         inkscape:connector-curvature="0"
         id="path963"
         style="fill:#231f20;fill-opacity:1;fill-rule:nonzero;stroke:none;opacity:1"
         d="m 2446.16,1060.23 c 0.52,-0.74 -29.22,-8.2 -65.61,-31.74 -36.3,-19.65 -78.75,-76.279 -39.45,-118.818 86.47,-76.063 220.1,-29.281 195.8,-38.992 -12.55,-2.121 9.82,1.73 47.46,16.269 35.26,14.262 94.2,46.153 107.92,99.692 14.64,56.879 -47.16,91.949 -89.93,93.689 -44.04,5.4 -74.95,-1.71 -74.8,-0.7 l -4.39,37.4 c 0.06,-0.9 28.21,3.83 71.57,-1.14 38.99,-4.78 113.55,-26.61 124.57,-97.55 7.01,-70.621 -55.31,-112.008 -93.73,-131.68 -42.33,-20.601 -76.76,-25.988 -85.66,-28.871 -9.24,0.133 -12.93,-5.699 -72.41,-9.348 -28.86,1.34 -76.21,-4.41 -135.1,34.75 -29.35,19.731 -48.77,72.289 -22.42,116.618 23.6,43.301 69.45,73.201 123.23,95.801 l 12.95,-35.38" /><path
         inkscape:connector-curvature="0"
         id="path965"
         style="fill:#231f20;fill-opacity:1;fill-rule:nonzero;stroke:none;opacity:1"
         d="m 2573.22,1027.5 c 4.63,-2.74 -24.37,-35.211 -72.88,-39.359 -46.94,-5.282 -83.35,7.507 -82.12,11.859 0.91,4.8 37.04,0.19 80.04,5.15 43.73,3.74 71.58,25.53 74.96,22.35" /><path
         inkscape:connector-curvature="0"
         id="path967"
         style="fill:#231f20;fill-opacity:1;fill-rule:nonzero;stroke:none;opacity:1"
         d="m 2347.38,879.449 c -58.89,-37.621 -119.83,-115.777 -44.5,-171.058 3.26,-2.391 47.54,-28.301 49.5,-26.879 -16.57,-12.024 -36.68,-19.801 -54.61,-29.75 -26.51,-14.703 -46.16,-35.383 -47.04,-66.66 -2.24,-80.082 117.35,-63.461 162.87,-46.133 31.75,12.101 67.46,34.07 80.36,67.511 10.94,28.348 15.94,78.969 -15.31,97.719 -8.02,4.821 -32.23,-6.59 -20.86,-13.398 41.36,-24.821 9.95,-92.75 -12.69,-115.789 -34.81,-35.41 -117.49,-51.473 -156.74,-16.442 -59.48,53.102 58.61,98.02 88.2,119.481 2.85,2.07 7.12,6.07 3.88,9.777 -19.91,22.871 -52.96,27.453 -74.84,50.281 -45.07,47.039 22.26,109.313 58.46,132.442 15.11,9.648 -7.64,14.679 -16.68,8.898" /><path
         inkscape:connector-curvature="0"
         id="path969"
         style="fill:#231f20;fill-opacity:1;fill-rule:nonzero;stroke:none;opacity:1"
         d="m 2478.93,701.039 v 2.5 c -4,-2.687 -8,-5.379 -12,-8.07 22.86,7.152 42.64,16.191 67.07,20.441 20.62,3.59 60.78,10.231 74.75,-11.949 4.38,-6.949 28.95,3.078 26.43,7.078 -11.84,18.789 -38.44,20.59 -58.84,19.652 -21.32,-0.98 -43.61,-3.57 -64.33,-8.66 -16.53,-4.07 -31.95,-12.64 -47.5,-17.5 -3.49,-1.09 -12.01,-3.179 -12.01,-8.07 v -2.5 c 0,-5.012 26.43,-0.992 26.43,7.078" /><path
         inkscape:connector-curvature="0"
         id="path971"
         style="fill:#231f20;fill-opacity:1;fill-rule:nonzero;stroke:none;opacity:1"
         d="m 2608.48,704.68 c 8.8,-10.051 -1.41,-76.418 0.4,-94.121 4.14,-40.25 15.05,-75.868 39.35,-108.118 36.82,-48.89 104.3,-90.402 164.01,-60.5 64.35,32.219 74.73,105.778 64.19,169.098 -13.52,81.289 -44.54,154.883 -127.77,185.633 -8.51,3.137 -32.41,-9.082 -20.88,-13.344 58.08,-21.457 96.55,-73.117 112.84,-130.566 7.6,-26.762 11.06,-55.391 14.12,-82.973 6.22,-56.18 -36.32,-146.379 -112.92,-112.777 -61.41,26.937 -93.29,83.707 -104.52,146.449 -4.71,26.277 -5.47,53.629 -2.13,80.09 1.27,10.039 5.18,23.32 -2.22,31.769 -6.46,7.379 -31.74,-2.308 -24.47,-10.64" /><path
         inkscape:connector-curvature="0"
         id="path973"
         style="fill:#231f20;fill-opacity:1;fill-rule:nonzero;stroke:none;opacity:1"
         d="m 2680.99,937.219 c 94.46,-10.867 146.35,-128.707 132.48,-211.86 -1.51,-9.078 18.16,-6.211 19.49,1.782 15.28,91.578 -44.13,211.519 -145.02,223.14 -8.82,1.008 -20.01,-11.551 -6.95,-13.062" /><path
         inkscape:connector-curvature="0"
         id="path975"
         style="fill:#231f20;fill-opacity:1;fill-rule:nonzero;stroke:none;opacity:1"
         d="m 2608.2,644.48 c -45.26,-36.289 -107.52,-96.41 -67.38,-157.511 14.47,-22.039 44.33,-34.981 70.08,-33.809 28.44,1.289 45.87,17.02 67.34,33.61 8.13,6.281 -11.23,4.41 -15.04,1.46 -28.65,-22.14 -57.04,-31.55 -88.67,-10.011 -22.97,15.64 -30.62,42.031 -26.44,68.07 6.35,39.531 45.74,73.152 75.15,96.731 8.04,6.449 -11.26,4.492 -15.04,1.46" /><path
         inkscape:connector-curvature="0"
         id="path977"
         style="fill:#231f20;fill-opacity:1;fill-rule:nonzero;stroke:none;opacity:1"
         d="m 2228.29,1571.35 c 77.23,-57.78 188.58,-186.21 242.17,-315.3 57.22,-128.51 58.41,-246.92 63.59,-246.11 2.14,-0.93 8.03,119.36 -46.12,253.43 -51.3,135.02 -160.81,267.46 -244.78,330.28 l -14.86,-22.3" /><path
         inkscape:connector-curvature="0"
         id="path979"
         style="fill:#231f20;fill-opacity:1;fill-rule:nonzero;stroke:none;opacity:1"
         d="m 2220.03,1339.06 c 47.63,-25.11 135.17,-106.17 177.11,-186.54 46,-80.84 56.16,-158.848 61.57,-157.79 3.41,-0.261 1.62,80.64 -41.24,168.51 -43.29,88.83 -117.96,171.83 -191.07,207.7 l -6.37,-31.88" /><path
         inkscape:connector-curvature="0"
         id="path981"
         style="fill:#00adef;fill-opacity:1;fill-rule:nonzero;stroke:none;opacity:1"
         d="m 1089.85,2135.75 c 0,-61.51 -49.87,-111.38 -111.377,-111.38 -61.516,0 -111.379,49.87 -111.379,111.38 0,61.51 49.863,111.38 111.379,111.38 61.507,0 111.377,-49.87 111.377,-111.38" /><path
         inkscape:connector-curvature="0"
         id="path983"
         style="fill:#00adef;fill-opacity:1;fill-rule:nonzero;stroke:none;opacity:1"
         d="m 1089.85,2135.75 h -7.92 c -0.01,-28.59 -11.57,-54.41 -30.3,-73.15 -18.75,-18.74 -44.57,-30.3 -73.157,-30.31 -28.594,0.01 -54.41,11.57 -73.157,30.31 -18.734,18.74 -30.296,44.56 -30.3,73.15 0.004,28.59 11.566,54.41 30.3,73.15 18.747,18.74 44.563,30.3 73.157,30.3 28.587,0 54.407,-11.56 73.157,-30.3 18.73,-18.74 30.29,-44.56 30.3,-73.15 h 7.92 7.92 c -0.01,65.89 -53.42,119.29 -119.297,119.29 -65.891,0 -119.293,-53.4 -119.297,-119.29 0.004,-65.88 53.402,-119.3 119.297,-119.3 65.887,0 119.287,53.41 119.297,119.3 h -7.92" /><path
         inkscape:connector-curvature="0"
         id="path985"
         style="fill:#231f20;fill-opacity:1;fill-rule:nonzero;stroke:none;opacity:1"
         d="m 1032.09,2127.5 c 0,-31.14 -25.23,-56.37 -56.371,-56.37 -31.133,0 -56.379,25.23 -56.379,56.37 0,31.14 25.246,56.37 56.379,56.37 31.141,0 56.371,-25.23 56.371,-56.37" /><path
         inkscape:connector-curvature="0"
         id="path987"
         style="fill:#231f20;fill-opacity:1;fill-rule:nonzero;stroke:none;opacity:1"
         d="m 1032.09,2127.5 h -11 c 0,-12.57 -5.05,-23.84 -13.28,-32.09 -8.247,-8.22 -19.525,-13.28 -32.091,-13.28 -12.567,0 -23.84,5.06 -32.086,13.28 -8.235,8.25 -13.285,19.52 -13.289,32.09 0.004,12.56 5.062,23.84 13.289,32.09 8.246,8.22 19.519,13.28 32.086,13.28 12.566,0 23.844,-5.06 32.091,-13.28 8.23,-8.25 13.28,-19.53 13.28,-32.09 h 11 11.01 c -0.01,37.22 -30.16,67.37 -67.381,67.38 -37.211,-0.02 -67.367,-30.16 -67.379,-67.38 0.012,-37.22 30.168,-67.36 67.379,-67.37 37.211,0.01 67.371,30.15 67.381,67.37 h -11.01" /><path
         inkscape:connector-curvature="0"
         id="path989"
         style="fill:#ffffff;fill-opacity:1;fill-rule:nonzero;stroke:none;opacity:1"
         d="m 1052.72,2161.87 c 0,-15.95 -12.93,-28.87 -28.88,-28.87 -15.94,0 -28.875,12.92 -28.875,28.87 0,15.95 12.935,28.88 28.875,28.88 15.95,0 28.88,-12.93 28.88,-28.88" /><path
         inkscape:connector-curvature="0"
         id="path991"
         style="fill:#231f20;fill-opacity:1;fill-rule:nonzero;stroke:none;opacity:1"
         d="m 1285.72,2193.34 c -1.36,-12.79 -150.69,77.91 -340.532,37.02 -190.352,-47.31 -271.731,-205.52 -276.141,-197.02 -8,-3.5 66.168,169.06 270.383,221.12 204.06,42.58 351.46,-62.6 346.29,-61.12" /><path
         inkscape:connector-curvature="0"
         id="path993"
         style="fill:#00adef;fill-opacity:1;fill-rule:nonzero;stroke:none;opacity:1"
         d="m 1537.09,2125 c 0,-61.52 -49.86,-111.38 -111.37,-111.38 -61.51,0 -111.37,49.86 -111.37,111.38 0,61.5 49.86,111.38 111.37,111.38 61.51,0 111.37,-49.88 111.37,-111.38" /><path
         inkscape:connector-curvature="0"
         id="path995"
         style="fill:#00adef;fill-opacity:1;fill-rule:nonzero;stroke:none;opacity:1"
         d="m 1537.09,2125 h -7.92 c 0,-28.59 -11.56,-54.41 -30.3,-73.15 -18.75,-18.74 -44.56,-30.3 -73.15,-30.31 -28.6,0.01 -54.41,11.57 -73.15,30.31 -18.73,18.74 -30.29,44.56 -30.3,73.15 0.01,28.59 11.57,54.4 30.3,73.15 18.74,18.74 44.55,30.3 73.15,30.31 28.59,-0.01 54.4,-11.57 73.15,-30.31 18.74,-18.75 30.3,-44.56 30.3,-73.15 h 7.92 7.92 c -0.01,65.88 -53.4,119.29 -119.29,119.3 -65.89,-0.01 -119.28,-53.42 -119.29,-119.3 0.01,-65.89 53.4,-119.29 119.29,-119.3 65.89,0.01 119.28,53.41 119.29,119.3 h -7.92" /><path
         inkscape:connector-curvature="0"
         id="path997"
         style="fill:#231f20;fill-opacity:1;fill-rule:nonzero;stroke:none;opacity:1"
         d="m 1479.35,2116.75 c 0,-31.14 -25.24,-56.38 -56.38,-56.38 -31.13,0 -56.37,25.24 -56.37,56.38 0,31.13 25.24,56.38 56.37,56.38 31.14,0 56.38,-25.25 56.38,-56.38" /><path
         inkscape:connector-curvature="0"
         id="path999"
         style="fill:#231f20;fill-opacity:1;fill-rule:nonzero;stroke:none;opacity:1"
         d="m 1479.35,2116.75 h -11 c -0.01,-12.57 -5.06,-23.84 -13.3,-32.09 -8.24,-8.23 -19.52,-13.28 -32.08,-13.29 -12.55,0.01 -23.83,5.06 -32.09,13.29 -8.22,8.25 -13.28,19.52 -13.29,32.09 0.01,12.56 5.07,23.84 13.29,32.08 8.26,8.23 19.54,13.29 32.09,13.3 12.56,-0.01 23.84,-5.07 32.08,-13.3 8.24,-8.24 13.29,-19.52 13.3,-32.08 h 11 11 c 0,37.21 -30.16,67.37 -67.38,67.38 -37.21,-0.01 -67.36,-30.17 -67.37,-67.38 0.01,-37.21 30.16,-67.37 67.37,-67.38 37.22,0.01 67.38,30.17 67.38,67.38 h -11" /><path
         inkscape:connector-curvature="0"
         id="path1001"
         style="fill:#ffffff;fill-opacity:1;fill-rule:nonzero;stroke:none;opacity:1"
         d="m 1499.98,2151.13 c 0,-15.95 -12.94,-28.88 -28.88,-28.88 -15.95,0 -28.88,12.93 -28.88,28.88 0,15.94 12.93,28.87 28.88,28.87 15.94,0 28.88,-12.93 28.88,-28.87" /><path
         inkscape:connector-curvature="0"
         id="path1003"
         style="fill:#231f20;fill-opacity:1;fill-rule:nonzero;stroke:none;opacity:1"
         d="m 1673.22,2102.5 c -6.44,-6.94 -60.33,84.86 -176.81,114.1 -114.85,29.25 -212.32,-3.78 -213.19,3.4 -3.82,4.39 94.7,49.94 219.09,18.87 127.27,-32.94 176,-137.94 170.91,-136.37" /><path
         inkscape:connector-curvature="0"
         id="path1005"
         style="fill:#231f20;fill-opacity:1;fill-rule:nonzero;stroke:none;opacity:1"
         d="m 1665.72,2436.66 c 0,0 -96.66,230.01 -370,156.68 0,0 303.34,246.66 370,-156.68" /><path
         inkscape:connector-curvature="0"
         id="path1007"
         style="fill:#231f20;fill-opacity:1;fill-rule:nonzero;stroke:none;opacity:1"
         d="m 1665.72,2436.66 6.64,2.79 c -0.25,0.53 -18.55,44.06 -61.88,87.84 -43.25,43.75 -112.06,87.72 -211.82,87.68 -31.79,0 -66.67,-4.45 -104.81,-14.68 l 1.87,-6.95 4.54,-5.59 0.96,0.77 c 4.97,3.91 28.81,22.12 62.06,39.24 33.23,17.15 75.85,33.08 117.97,33.04 36.77,-0.08 72.98,-11.72 104.45,-45.34 31.44,-33.66 58.07,-90.1 72.92,-179.97 l 7.1,1.17 6.64,2.79 -6.64,-2.79 7.1,1.18 c -15.15,91.56 -42.43,150.79 -76.58,187.44 -34.13,36.69 -75.16,50 -114.99,49.92 -48.78,-0.05 -96.05,-19.24 -131.32,-38.19 -35.26,-18.99 -58.52,-37.9 -58.75,-38.09 l 6.4,-12.54 c 37.03,9.94 70.64,14.19 101.08,14.19 95.39,-0.04 160.1,-41.62 201.6,-83.42 20.69,-20.9 35.47,-41.84 45.03,-57.5 4.77,-7.83 8.25,-14.34 10.53,-18.86 1.13,-2.26 1.96,-4.02 2.5,-5.2 l 0.59,-1.33 0.17,-0.38 13.74,3.96 -7.1,-1.18" /><path
         inkscape:connector-curvature="0"
         id="path1009"
         style="fill:#231f20;fill-opacity:1;fill-rule:nonzero;stroke:none;opacity:1"
         d="m 1532.36,705.129 c -70.12,-131.848 -100.72,-269.309 -74.42,-418.668 1.23,-6.992 11.38,-7.59 16.58,-6.223 175.28,46.5 383.53,1.172 445.14,-188.1091 6.21,4.7422 12.42,9.4731 18.63,14.2031 -238.2,20.758 -476.38,41.508 -714.58,62.258 2.88,-4.09 5.76,-8.18 8.64,-12.27 26.32,59 80.3,103.141 139.07,126.739 3.73,1.5 7.43,5.429 7.85,9.55 13.33,131.039 0.57,276.813 -59.18,395.301 -5.84,11.559 -32.2,0.981 -25.41,-12.488 56.44,-111.922 65.64,-245.063 57.68,-368.434 -1.37,-21.238 -1.23,-9.398 -20.59,-18.539 -25.18,-11.89 -49.2,-29.898 -68.73,-49.578 -22.72,-22.91 -44.13,-49.199 -57.4,-78.941 -2.77,-6.219 2.49,-11.739 8.64,-12.27 238.19,-20.769 476.38,-41.519 714.57,-62.2694 6.98,-0.6093 21.86,4.2813 18.63,14.1992 -65.99,202.7192 -290.87,250.2622 -478.3,200.5512 5.53,-2.071 11.06,-4.141 16.58,-6.219 -25.69,145.848 4.97,279.098 73.32,407.609 7.54,14.188 -20.72,14.899 -26.72,3.598" /><path
         inkscape:connector-curvature="0"
         id="path1011"
         style="fill:#231f20;fill-opacity:1;fill-rule:nonzero;stroke:none;opacity:1"
         d="m 1019.47,1793.75 c 2.66,1.43 -84.095,-52.22 -197.036,-20.74 -112.59,34.75 -153.805,129.26 -152.965,125.74 5.66,7.13 51.551,-80.65 156.933,-112.36 105.469,-30.1 192.468,15.45 193.068,7.36" /><path
         inkscape:connector-curvature="0"
         id="path1013"
         style="fill:#231f20;fill-opacity:1;fill-rule:nonzero;stroke:none;opacity:1"
         d="m 1351.08,1811.36 c -0.28,8.1 91.12,-27.8 192.73,13.51 101.34,42.88 137.5,135.1 143.9,128.63 0.46,3.59 -30.33,-94.82 -138.51,-141.5 -108.89,-43.49 -200.93,0.49 -198.12,-0.64" /><path
         inkscape:connector-curvature="0"
         id="path1015"
         style="fill:#231f20;fill-opacity:1;fill-rule:nonzero;stroke:none;opacity:1"
         d="m 955.719,1795.95 c -85.344,0.01 -162.746,40.43 -219.071,105.35 -56.293,64.91 -91.238,154.21 -91.226,251.2 0,96.95 35.5,183.01 92.336,244.79 56.867,61.78 134.922,99.25 220.461,99.26 v 14.4 c -89.817,0.01 -171.758,-39.43 -231.055,-103.91 -59.328,-64.48 -96.148,-154.05 -96.148,-254.54 0.007,-100.45 36.136,-193.02 94.754,-260.64 58.589,-67.59 139.937,-110.32 229.949,-110.31 v 14.4 0" /></g></g></svg>