<?xml version="1.0" encoding="UTF-8"?>
<svg width="1065.1" height="483.79" version="1.1" viewBox="0 0 1065.0667 483.78668" xml:space="preserve" xmlns="http://www.w3.org/2000/svg" xmlns:cc="http://creativecommons.org/ns#" xmlns:dc="http://purl.org/dc/elements/1.1/" xmlns:rdf="http://www.w3.org/1999/02/22-rdf-syntax-ns#"><metadata><rdf:RDF><cc:Work rdf:about=""><dc:format>image/svg+xml</dc:format><dc:type rdf:resource="http://purl.org/dc/dcmitype/StillImage"/><dc:title/></cc:Work></rdf:RDF></metadata><g transform="matrix(1.3333 0 0 -1.3333 0 483.79)"><g transform="scale(.1)"><path d="m2318.8 2380.3c380.29-240.35 852.63-539.65 1457-923.03 91.68-58.23 140.78-132.76 146.69-208.5 4.95-77.09-35.12-154.79-117.82-215.14l-0.24-0.16c-179.63-127.14-363.43-257.06-551.92-390.38-193-136.52-390.98-276.6-593.93-419.97-100-68.875-218.73-98.817-329.36-88.789-110.08 11.488-210.46 62.453-277.1 151.1-433.14 574.93-764.02 1014.2-1025.2 1361.2-29.738 39.43-27.789 89.92-0.76 138.52 25.94 47.82 75.01 95.81 140.74 133.18 136.2 76.94 270.06 152.29 402.31 225.94 129.98 72.4 258.48 143.11 384.87 212.51 60.16 32.76 129.69 51.97 194.19 56.78 64.76 5.03 127.11-5.77 170.5-33.24zm-663.19 789.6c180.29-90.15 383.74-191.94 619.87-309.9 30.88-15.45 40.44-39.52 32.07-66.46-9.2-27.18-37.66-56.68-85.07-81.47-99.98-52.21-200.83-105.32-302.49-159.21-103.23-54.73-207.5-110.69-312.69-167.27l-0.15-0.09c-50.81-27.35-108.57-43.06-159.36-46.48-50.91-3.2-93.74 5.09-117.26 25.93-181.06 159.76-335.7 296.34-471.66 416.49-15.785 13.96-13.004 34.83 3.242 57.35 16.586 22.14 47.07 45.46 87.289 65.26l0.121 0.06c83.916 40.98 166.97 81.56 249.46 121.32 81.75 39.4 162.67 78.24 243.17 116.61 37.98 18.2 80.62 30.41 119.04 35.36 38.91 4.93 73.21 2.96 94.42-7.5zm-1303.1 457.2c23.093-14.44 47.339-29.52 71.953-44.93 3.41-1.99 1.718-5.73-3.11-10.2-5.14-4.39-13.828-9.59-24.57-14.38-45.957-20.05-91.77-40.26-137.8-60.51-11.285-4.86-22.656-8.39-31.55-10.18-9.325-1.78-16.153-1.75-19.219 0.42-21.481 17.08-42.961 33.72-63.078 49.63-2.383 1.99-0.496 5.71 4.761 10.01 5.153 4.31 14.024 9.19 24.477 13.74 43.703 18.99 87.203 37.88 130.51 56.68 10.285 4.44 20.441 7.86 29.058 9.58 8.711 1.8 15.543 1.94 18.575 0.14zm-20.954-7.99c-16.91-19.53-34.128-39.32-51.39-59.63 40.719 4.43 82.043 9.06 124.44 13.48-0.375 0.08-0.375 0.15-0.375 0.23-24.769 15.6-48.414 30.8-71.304 45.39-0.375 0.21-0.829 0.39-1.372 0.53zm64.547-55.21c-45.945-4.76-90.781-9.6-135.32-14.31-1.605-0.16-3.121-0.36-4.996-0.57 0.808 0.88 1.691 1.74 2.226 2.6 19.024 21.75 37.665 42.94 55.86 63.87-1.207-0.46-2.5-1.04-3.789-1.58-43.414-18.87-87.028-37.84-130.84-56.91-5.344-2.17-9.234-4.52-11.816-6.56-2.672-2.08-3.344-3.78-2.309-4.78 20.684-15.78 42.055-32.25 64.113-49.17 1.383-1.05 4.891-1.03 8.981-0.19 4.531 0.79 9.996 2.49 15.191 4.81 45.906 20.19 91.957 40.32 137.43 60.29 1.84 0.83 3.598 1.67 5.273 2.5zm-32.91-108.21c41.348-29.95 84.82-61.54 131.12-95.01 5.657-4.2 2.864-11.69-6.019-20.32-8.574-8.88-24.09-18.72-43.774-27.64-82.398-37.53-165.86-75.56-250.02-114.04-20.047-9.32-40.621-15.69-57.094-18.37-16.453-2.77-28.793-1.98-33.402 2.92-36.028 39.18-70.332 76.17-102.61 111.17-3.7422 4.23 0.21485 11.34 9.8594 19.61 9.293 8.1 24.254 17.3 42.664 25.44 76.258 33.93 151.93 67.5 226.66 100.75 17.86 7.87 36.207 13.49 50.852 16.32 15.027 2.76 26.832 2.77 31.777-0.83zm-35.953-14.1c-29.793-36.65-59.715-74.82-90.922-114.01 72.055 5.22 145.96 10.71 221.74 16.1 0.089 0.15-0.254 0.36-0.602 0.48-45.195 33.99-87.613 66.06-127.94 96.47-0.692 0.37-1.215 0.66-2.27 0.96zm115.3-115.59c-82.121-5.9-162.22-11.41-240.32-17.03-3.089-0.24-6.085-0.4-9.085-0.59 1.519 1.75 2.714 3.52 4.226 5.27 34.199 42.12 66.93 83.06 99.262 122.26-2.473-0.87-4.598-1.74-6.813-2.74-75.422-33.48-151.45-67.29-228.08-101.45-8.7344-3.96-15.965-8.31-20.516-12.26-4.5821-3.95-6.3789-7.33-4.6094-9.27 33.328-34.52 68.133-70.95 105.29-109.6 2.363-2.27 8.262-2.65 16.235-1.18 7.668 1.31 17.3 4.35 27.027 8.75 83.414 38.18 166.43 75.9 248.4 113.15 3.239 1.51 6.375 3.09 8.977 4.69zm473.91 57.3c89.025-50.83 186.7-106.72 292.58-167.35 13.34-7.68 13.93-21.23 2.9-36.41-11.11-15.22-34.15-32.17-65.7-47.08-66.17-31.52-133.17-63.41-200.2-95.56-67.844-32.52-135.95-65.43-204.75-98.64l-0.117-0.06c-33.016-16.02-67.703-26.54-96.758-30.38-29.121-3.73-52.996-0.76-63.262 8.88-80.558 76.24-155.22 146.27-222.41 209.81-8.086 7.64-3.512 19.92 9.871 33.59 13.383 13.6 35.641 28.63 63.852 41.66l0.101 0.05c58.574 27.05 117.24 53.93 175.1 80.5 57.512 26.4 115.13 52.55 172.03 78.51 27.125 12.31 56.117 20.93 80.941 24.95 24.774 4.05 45.227 3.67 55.817-2.47zm-56.059-21.9c-33.652-59.88-68.984-122.88-105.23-189.73 127.19 5.27 259.19 10.86 396.75 16.09-0.28 0.29-0.66 0.58-1.04 0.87-103.63 62.03-199.56 119.13-286.24 171.1-1.161 0.68-2.602 1.22-4.239 1.67zm274.32-204.67c-149.92-5.38-293.84-10.6-431.98-15.82-5.355-0.18-10.602-0.3-15.492-0.56 1.551 3.07 3.097 5.94 5.097 8.92 40.579 71.9 79.309 139.87 117.04 203.9-3.492-1.26-7.078-2.79-10.378-4.38-57.68-26.21-115.35-52.66-173.64-79.37-58.652-26.87-117.4-54.07-176.76-81.43l-0.101-0.05c-13.438-6.3-24.364-13.34-30.574-20.03-6.45-6.47-8.68-12.36-4.524-15.88 69.684-62.26 146.4-130.8 229.5-205.4 5.113-4.53 16.336-5.61 29.992-3.76 14.129 1.92 30.508 6.7 46.336 14.23l0.113 0.06c67.864 32.76 135.34 65.28 202.27 97.3 66.422 31.78 132.88 63.18 198.5 94.27 5.51 2.59 10.42 5.22 14.6 8zm440.04-18.98c-12.8-46.93-23.87-96.6-36.45-147.55-13.09-53.08-25.88-108.71-40.11-166 107.75-1.7 217.45-3.13 331.9-4.75 116.07-1.63 237.53-3.41 362.37-5.52-0.68 0.57-2.3 1.31-3.12 1.81-231.3 121.55-430.55 226.36-607.07 319.08-2.04 1.16-4.81 2.15-7.52 2.93zm606.99-378.5c-135.79 2.42-269.3 5.3-395.89 7.75-124.67 2.4-244.31 4.59-360.72 6.94-9.36 0.42-17.98 0.62-26.81 0.81 1.52 5.3 2.68 10.49 4.2 15.55 17.48 61.9 32.85 122.19 48.68 178.98 15.33 54.98 29.1 107.85 43.14 158.45-4.98-1.8-10.18-3.9-15.1-6.23-81.33-38.98-163.54-78.39-246.11-118.52-83.07-40.36-167.36-81.74-252.22-123.37l-0.121-0.06c-19.715-9.58-34.254-21.1-42.188-31.67-7.664-10.82-8.64-20.66-0.672-27.15 140.76-117.01 300.44-249.89 487.02-405.2 11.29-9.49 32.1-13.44 55.7-11.32 23.65 2.27 50.31 9.89 74.38 22.63l0.15 0.08c103.63 55.27 206.33 109.98 307.73 163.39 100.18 52.78 200.02 104.6 298.22 155.69 7.72 4.11 14.5 8.63 20.61 13.25zm6.32-434.96c-1.15-103.91-1.59-215.38-1.87-333.48-0.3-126.39 0.02-262.04-0.82-406.45 211.15-34.24 432.31-69.98 666.86-107.8 244.95-39.49 509.38-83.61 784.82-127.74-3.1 2.59-6.77 5.03-10.44 7.47-591.34 399.49-1052.6 710.57-1423.2 959.88-5.14 3.44-10.17 6.12-15.3 8.12zm1486.1-1139.6c-317.33 60.77-604.03 111.6-880.92 160.74-253.33 44.96-499.27 87.99-726.86 126.7-17.59 3.14-34.62 6.55-51.07 9.23-0.27 13.79-0.15 27.64-0.38 41.48 8.34 155.43 13.85 304.13 19.58 437.84 5.5 128.32 10.56 245.53 13.3 357.85-8.14-3.25-15.87-7.06-23.9-11.32-128.67-71.33-259.64-143.91-392.28-218.44-134.55-75.61-271.2-153.36-409.8-232.45-32.08-18.36-55.13-42.51-66.81-66.28-11.54-24.68-11.69-48.65 3.4-66.99 274.41-335.48 621.61-759.75 1074.8-1314 33.42-41.016 82-64.344 135.25-70.371 52.09-4.883 108.09 7.383 153.98 39.375 197.14 137 389.95 270.52 578.05 401 183.6 127.36 363.08 251.7 538.34 373.04l0.22 0.17c14.4 9.69 25.48 20.91 35.15 32.45" fill="#656263"/><path d="m5106.1 2990.1c194.51-122.93 436.09-276.01 745.19-472.1 46.87-29.77 71.99-67.89 75.02-106.64 2.55-39.42-17.96-79.14-60.25-110.02l-0.13-0.08c-91.87-65.02-185.86-131.47-282.28-199.67-98.7-69.81-199.95-141.46-303.75-214.75-51.13-35.24-111.86-50.56-168.45-45.44-56.29 5.89-107.62 31.94-141.72 77.28-221.51 294.04-390.76 518.71-524.32 696.16-15.21 20.16-14.2 46-0.38 70.85 13.26 24.46 38.36 49.01 71.98 68.12 69.66 39.34 138.1 77.87 205.75 115.55 66.48 37.04 132.19 73.19 196.84 108.68 30.77 16.77 66.33 26.6 99.33 29.05 33.09 2.57 64.99-2.94 87.17-16.99zm-339.18 403.81c92.2-46.11 196.28-98.17 317.03-158.49 15.82-7.92 20.7-20.21 16.42-33.99-4.72-13.91-19.27-28.98-43.51-41.68-51.13-26.69-102.71-53.86-154.7-81.42-52.81-27.99-106.12-56.61-159.93-85.55l-0.07-0.06c-25.99-13.96-55.53-22-81.53-23.75-26.01-1.63-47.93 2.61-59.96 13.27-92.59 81.71-171.68 151.55-241.23 213-8.08 7.14-6.65 17.82 1.67 29.33 8.47 11.32 24.07 23.24 44.65 33.39l0.06 0.02c42.9 20.95 85.4 41.73 127.57 62.05 41.81 20.15 83.21 40.02 124.37 59.66 19.44 9.3 41.25 15.53 60.89 18.05 19.91 2.52 37.45 1.54 48.27-3.83zm-666.46 233.83c11.8-7.39 24.2-15.07 36.81-22.97 1.74-1.03 0.88-2.94-1.6-5.23-2.63-2.23-7.07-4.89-12.56-7.34-23.51-10.27-46.97-20.6-70.48-30.96-5.77-2.49-11.61-4.29-16.14-5.18-4.77-0.93-8.27-0.93-9.84 0.2-10.98 8.73-21.96 17.24-32.25 25.37-1.23 1.02-0.25 2.92 2.44 5.14 2.64 2.19 7.17 4.69 12.53 7.01 22.35 9.72 44.58 19.39 66.73 28.99 5.28 2.27 10.45 4.03 14.85 4.9 4.47 0.92 7.95 0.98 9.51 0.07zm-10.72-4.07c-8.64-10-17.47-20.11-26.27-30.52 20.82 2.29 41.95 4.65 63.64 6.89-0.19 0.05-0.19 0.1-0.19 0.14-12.68 7.97-24.75 15.74-36.48 23.2-0.2 0.12-0.41 0.21-0.7 0.29zm33-28.25c-23.47-2.43-46.4-4.91-69.2-7.31-0.82-0.09-1.59-0.18-2.56-0.3 0.42 0.43 0.88 0.9 1.15 1.34 9.72 11.12 19.27 21.94 28.57 32.66-0.61-0.24-1.27-0.54-1.93-0.81-22.22-9.64-44.51-19.35-66.91-29.1-2.75-1.13-4.73-2.32-6.05-3.36-1.36-1.06-1.73-1.94-1.19-2.44 10.56-8.08 21.51-16.51 32.79-25.14 0.7-0.55 2.49-0.55 4.6-0.11 2.31 0.39 5.09 1.28 7.76 2.47 23.49 10.31 47.05 20.6 70.3 30.82 0.93 0.42 1.85 0.84 2.67 1.28zm-16.8-55.33c21.13-15.32 43.35-31.48 67.04-48.6 2.9-2.15 1.46-5.99-3.08-10.39-4.38-4.55-12.31-9.6-22.39-14.15-42.14-19.2-84.83-38.63-127.87-58.32-10.25-4.76-20.76-8.02-29.18-9.38-8.42-1.44-14.73-1.04-17.11 1.47-18.42 20.05-35.95 38.97-52.45 56.88-1.93 2.15 0.09 5.78 5.04 10.02 4.75 4.15 12.39 8.84 21.8 13.01 39.01 17.34 77.7 34.52 115.93 51.53 9.13 4.01 18.51 6.89 26.01 8.34 7.69 1.42 13.72 1.42 16.26-0.41zm-18.4-7.23c-15.23-18.72-30.55-38.26-46.52-58.3 36.86 2.67 74.66 5.47 113.42 8.23 0.05 0.08-0.13 0.2-0.32 0.26-23.1 17.36-44.8 33.78-65.4 49.33-0.38 0.2-0.64 0.33-1.18 0.48zm58.97-59.11c-42.01-3.02-82.95-5.85-122.91-8.72-1.59-0.11-3.13-0.2-4.65-0.29 0.77 0.89 1.38 1.81 2.16 2.7 17.49 21.55 34.23 42.48 50.75 62.51-1.26-0.43-2.33-0.88-3.47-1.39-38.56-17.13-77.44-34.42-116.63-51.88-4.48-2.04-8.18-4.26-10.5-6.27-2.35-2.03-3.27-3.77-2.35-4.74 17.05-17.65 34.85-36.29 53.84-56.05 1.21-1.15 4.23-1.37 8.31-0.61 3.91 0.68 8.84 2.23 13.81 4.47 42.66 19.53 85.12 38.81 127.05 57.87 1.66 0.77 3.26 1.58 4.59 2.4zm242.38 29.3c45.53-26 95.47-54.58 149.63-85.58 6.83-3.93 7.13-10.86 1.49-18.62-5.67-7.79-17.47-16.47-33.62-24.08-33.83-16.12-68.09-32.43-102.38-48.88-34.7-16.65-69.52-33.45-104.72-50.46l-0.07-0.02c-16.87-8.19-34.62-13.58-49.46-15.53-14.91-1.9-27.11-0.4-32.38 4.54-41.2 39-79.36 74.8-113.74 107.31-4.13 3.9-1.78 10.17 5.06 17.18 6.82 6.94 18.22 14.63 32.64 21.3l0.08 0.03c29.94 13.83 59.94 27.57 89.54 41.17 29.42 13.51 58.89 26.85 87.97 40.15 13.87 6.3 28.71 10.69 41.42 12.77 12.65 2.05 23.12 1.87 28.54-1.28zm-28.67-11.21c-17.21-30.61-35.29-62.84-53.82-97.03 65.05 2.72 132.55 5.56 202.9 8.24-0.13 0.14-0.33 0.29-0.54 0.44-52.99 31.72-102.05 60.93-146.38 87.51-0.59 0.35-1.34 0.64-2.16 0.84zm140.31-104.67c-76.68-2.74-150.29-5.41-220.95-8.08-2.73-0.09-5.42-0.14-7.93-0.29 0.81 1.58 1.61 3.04 2.62 4.56 20.76 36.79 40.56 71.53 59.86 104.29-1.78-0.65-3.62-1.44-5.32-2.24-29.51-13.43-59-26.94-88.8-40.6-30-13.75-60.05-27.64-90.41-41.66h-0.04c-6.86-3.23-12.46-6.83-15.65-10.27-3.28-3.28-4.45-6.31-2.31-8.09 35.64-31.88 74.87-66.9 117.37-105.07 2.63-2.3 8.36-2.86 15.36-1.92 7.21 1 15.58 3.43 23.69 7.29l0.05 0.03c34.71 16.74 69.22 33.37 103.44 49.76 33.99 16.25 67.97 32.31 101.54 48.2 2.81 1.34 5.32 2.69 7.48 4.09zm225.05-9.7c-6.57-24.01-12.22-49.4-18.66-75.47-6.68-27.14-13.24-55.58-20.52-84.91 55.11-0.85 111.23-1.57 169.75-2.41 59.37-0.84 121.48-1.73 185.34-2.82-0.36 0.28-1.17 0.68-1.61 0.91-118.28 62.18-220.19 115.79-310.48 163.2-1.03 0.6-2.46 1.11-3.82 1.5zm310.44-193.58c-69.46 1.24-137.74 2.73-202.48 3.97-63.77 1.22-124.96 2.35-184.51 3.55-4.76 0.21-9.18 0.29-13.7 0.41 0.77 2.71 1.36 5.38 2.15 7.95 8.95 31.66 16.8 62.5 24.89 91.54 7.83 28.11 14.9 55.16 22.07 81.03-2.54-0.92-5.21-1.98-7.72-3.17-41.58-19.96-83.64-40.11-125.86-60.63-42.5-20.63-85.62-41.81-129-63.09l-0.06-0.03c-10.09-4.91-17.53-10.8-21.58-16.21-3.93-5.54-4.44-10.54-0.34-13.87 71.98-59.86 153.66-127.8 249.07-207.23 5.79-4.87 16.42-6.89 28.5-5.8 12.08 1.18 25.72 5.05 38.03 11.59l0.08 0.03c53 28.28 105.52 56.24 157.39 83.57 51.22 26.98 102.29 53.5 152.52 79.6 3.95 2.13 7.41 4.42 10.55 6.79zm3.22-222.46c-0.6-53.13-0.81-110.14-0.96-170.55-0.15-64.64 0.01-134.02-0.42-207.86 108-17.53 221.11-35.81 341.06-55.13 125.27-20.21 260.52-42.79 401.38-65.35-1.6 1.34-3.47 2.58-5.34 3.82-302.42 204.32-538.36 363.41-727.89 490.93-2.62 1.75-5.21 3.14-7.83 4.14zm760.05-582.85c-162.28 31.09-308.92 57.07-450.53 82.21-129.56 22.98-255.37 44.99-371.75 64.78-9 1.62-17.71 3.38-26.12 4.73-0.15 7.04-0.08 14.14-0.2 21.21 4.27 79.5 7.1 155.55 10.01 223.95 2.82 65.63 5.4 125.56 6.82 183.01-4.16-1.66-8.14-3.61-12.22-5.79-65.81-36.48-132.81-73.62-200.64-111.73-68.83-38.66-138.7-78.42-209.6-118.87-16.39-9.37-28.18-21.75-34.14-33.89-5.92-12.66-6-24.91 1.73-34.28 140.35-171.57 317.91-388.56 549.68-672.04 17.09-20.98 41.91-32.9 69.14-35.99 26.66-2.5 55.29 3.78 78.75 20.16 100.84 70.05 199.46 138.34 295.65 205.06 93.9 65.14 185.69 128.74 275.33 190.8l0.11 0.07c7.38 4.96 13.05 10.7 17.98 16.61" fill="#f47216"/><path d="m5106.1 1149.7c194.51-122.92 436.09-276.01 745.19-472.09 46.87-29.773 71.99-67.89 75.02-106.64 2.55-39.422-17.96-79.137-60.25-110.02l-0.13-0.09c-91.87-65.019-185.86-131.48-282.28-199.67-98.7-69.804-199.95-141.45-303.75-214.76-51.13-35.23-111.86-50.555-168.45-45.43-56.29 5.8789-107.62 31.934-141.72 77.277-221.51 294.04-390.76 518.71-524.32 696.16-15.21 20.168-14.2 46.008-0.38 70.852 13.26 24.453 38.36 49.004 71.98 68.117 69.66 39.344 138.1 77.867 205.75 115.56 66.48 37.03 132.19 73.19 196.84 108.67 30.77 16.78 66.33 26.6 99.33 29.05 33.09 2.57 64.99-2.94 87.17-16.99zm-339.18 403.8c92.2-46.1 196.28-98.16 317.03-158.47 15.82-7.93 20.7-20.22 16.42-34.01-4.72-13.9-19.27-28.97-43.51-41.66-51.13-26.7-102.71-53.87-154.7-81.43-52.81-27.98-106.12-56.61-159.93-85.54l-0.07-0.06c-25.99-13.97-55.53-22-81.53-23.74-26.01-1.65-47.93 2.59-59.96 13.25-92.59 81.7-171.68 151.56-241.23 213-8.08 7.13-6.65 17.82 1.67 29.33 8.47 11.32 24.07 23.25 44.65 33.39l0.06 0.02c42.9 20.96 85.4 41.73 127.57 62.05 41.81 20.16 83.21 40.02 124.37 59.66 19.44 9.3 41.25 15.52 60.89 18.05 19.91 2.52 37.45 1.54 48.27-3.84zm-666.46 233.84c11.8-7.39 24.2-15.07 36.81-22.97 1.74-1.03 0.88-2.94-1.6-5.23-2.63-2.22-7.07-4.89-12.56-7.33-23.51-10.27-46.97-20.61-70.48-30.97-5.77-2.48-11.61-4.29-16.14-5.19-4.77-0.92-8.27-0.92-9.84 0.21-10.98 8.73-21.96 17.23-32.25 25.38-1.23 1.01-0.25 2.91 2.44 5.13 2.64 2.19 7.17 4.69 12.53 7.01 22.35 9.71 44.58 19.38 66.73 29 5.28 2.26 10.45 4.02 14.85 4.89 4.47 0.92 7.95 0.99 9.51 0.07zm-10.72-4.08c-8.64-9.99-17.47-20.11-26.27-30.51 20.82 2.29 41.95 4.65 63.64 6.9-0.19 0.05-0.19 0.09-0.19 0.12-12.68 7.98-24.75 15.75-36.48 23.21-0.2 0.11-0.41 0.21-0.7 0.28zm33-28.23c-23.47-2.44-46.4-4.92-69.2-7.32-0.82-0.09-1.59-0.17-2.56-0.29 0.42 0.43 0.88 0.89 1.15 1.33 9.72 11.13 19.27 21.94 28.57 32.66-0.61-0.24-1.27-0.54-1.93-0.8-22.22-9.65-44.51-19.36-66.91-29.11-2.75-1.13-4.73-2.32-6.05-3.35-1.36-1.07-1.73-1.95-1.19-2.45 10.56-8.07 21.51-16.51 32.79-25.14 0.7-0.55 2.49-0.55 4.6-0.11 2.31 0.39 5.09 1.29 7.76 2.47 23.49 10.31 47.05 20.6 70.3 30.82 0.93 0.42 1.85 0.85 2.67 1.29zm-16.8-55.34c21.13-15.32 43.35-31.48 67.04-48.6 2.9-2.16 1.46-5.99-3.08-10.39-4.38-4.55-12.31-9.6-22.39-14.15-42.14-19.2-84.83-38.63-127.87-58.31-10.25-4.77-20.76-8.02-29.18-9.39-8.42-1.43-14.73-1.04-17.11 1.48-18.42 20.04-35.95 38.96-52.45 56.87-1.93 2.14 0.09 5.78 5.04 10.02 4.75 4.15 12.39 8.84 21.8 13 39.01 17.35 77.7 34.53 115.93 51.55 9.13 4.01 18.51 6.88 26.01 8.33 7.69 1.41 13.72 1.41 16.26-0.41zm-18.4-7.23c-15.23-18.72-30.55-38.25-46.52-58.3 36.86 2.68 74.66 5.48 113.42 8.23 0.05 0.08-0.13 0.21-0.32 0.26-23.1 17.36-44.8 33.78-65.4 49.34-0.38 0.19-0.64 0.32-1.18 0.47zm58.97-59.11c-42.01-3.01-82.95-5.85-122.91-8.71-1.59-0.12-3.13-0.22-4.65-0.3 0.77 0.9 1.38 1.81 2.16 2.7 17.49 21.55 34.23 42.47 50.75 62.52-1.26-0.44-2.33-0.88-3.47-1.41-38.56-17.11-77.44-34.41-116.63-51.87-4.48-2.04-8.18-4.25-10.5-6.27-2.35-2.02-3.27-3.77-2.35-4.74 17.05-17.65 34.85-36.3 53.84-56.05 1.21-1.15 4.23-1.37 8.31-0.61 3.91 0.68 8.84 2.23 13.81 4.47 42.66 19.53 85.12 38.82 127.05 57.87 1.66 0.77 3.26 1.58 4.59 2.4zm242.38 29.31c45.53-26.01 95.47-54.59 149.63-85.59 6.83-3.92 7.13-10.85 1.49-18.62-5.67-7.8-17.47-16.47-33.62-24.07-33.83-16.13-68.09-32.44-102.38-48.89-34.7-16.64-69.52-33.45-104.72-50.46l-0.07-0.02c-16.87-8.19-34.62-13.58-49.46-15.53-14.91-1.9-27.11-0.4-32.38 4.53-41.2 39.01-79.36 74.81-113.74 107.32-4.13 3.89-1.78 10.17 5.06 17.17 6.82 6.96 18.22 14.65 32.64 21.31l0.08 0.03c29.94 13.83 59.94 27.58 89.54 41.16 29.42 13.51 58.89 26.86 87.97 40.17 13.87 6.29 28.71 10.69 41.42 12.76 12.65 2.06 23.12 1.87 28.54-1.27zm-28.67-11.21c-17.21-30.62-35.29-62.85-53.82-97.03 65.05 2.71 132.55 5.55 202.9 8.24-0.13 0.13-0.33 0.28-0.54 0.43-52.99 31.72-102.05 60.95-146.38 87.5-0.59 0.36-1.34 0.66-2.16 0.86zm140.31-104.68c-76.68-2.73-150.29-5.41-220.95-8.08-2.73-0.09-5.42-0.15-7.93-0.29 0.81 1.58 1.61 3.05 2.62 4.56 20.76 36.79 40.56 71.53 59.86 104.29-1.78-0.64-3.62-1.44-5.32-2.24-29.51-13.43-59-26.94-88.8-40.59-30-13.75-60.05-27.65-90.41-41.67h-0.04c-6.86-3.23-12.46-6.83-15.65-10.26-3.28-3.29-4.45-6.32-2.31-8.11 35.64-31.86 74.87-66.89 117.37-105.06 2.63-2.31 8.36-2.86 15.36-1.92 7.21 1 15.58 3.43 23.69 7.29l0.05 0.03c34.71 16.75 69.22 33.37 103.44 49.76 33.99 16.24 67.97 32.31 101.54 48.2 2.81 1.33 5.32 2.69 7.48 4.09zm225.05-9.7c-6.57-24.01-12.22-49.4-18.66-75.47-6.68-27.14-13.24-55.58-20.52-84.91 55.11-0.85 111.23-1.57 169.75-2.41 59.37-0.84 121.48-1.73 185.34-2.81-0.36 0.27-1.17 0.67-1.61 0.91-118.28 62.17-220.19 115.77-310.48 163.19-1.03 0.6-2.46 1.11-3.82 1.5zm310.44-193.58c-69.46 1.24-137.74 2.73-202.48 3.97-63.77 1.23-124.96 2.35-184.51 3.54-4.76 0.22-9.18 0.3-13.7 0.42 0.77 2.71 1.36 5.38 2.15 7.96 8.95 31.66 16.8 62.5 24.89 91.53 7.83 28.13 14.9 55.17 22.07 81.03-2.54-0.92-5.21-1.98-7.72-3.16-41.58-19.97-83.64-40.11-125.86-60.63-42.5-20.64-85.62-41.81-129-63.1l-0.06-0.03c-10.09-4.91-17.53-10.8-21.58-16.21-3.93-5.54-4.44-10.55-0.34-13.87 71.98-59.86 153.66-127.8 249.07-207.23 5.79-4.87 16.42-6.89 28.5-5.79 12.08 1.17 25.72 5.05 38.03 11.58l0.08 0.02c53 28.29 105.52 56.25 157.39 83.58 51.22 26.99 102.29 53.49 152.52 79.61 3.95 2.12 7.41 4.42 10.55 6.78zm3.22-222.45c-0.6-53.14-0.81-110.15-0.96-170.55-0.15-64.648 0.01-134.02-0.42-207.87 108-17.531 221.11-35.801 341.06-55.125 125.27-20.207 260.52-42.785 401.38-65.344-1.6 1.329-3.47 2.579-5.34 3.817-302.42 204.32-538.36 363.41-727.89 490.91-2.62 1.76-5.21 3.16-7.83 4.16zm760.05-582.86c-162.28 31.082-308.92 57.07-450.53 82.214-129.56 22.973-255.37 44.981-371.75 64.778-9 1.613-17.71 3.367-26.12 4.726-0.15 7.039-0.08 14.141-0.2 21.223 4.27 79.492 7.1 155.54 10.01 223.93 2.82 65.62 5.4 125.57 6.82 183.01-4.16-1.66-8.14-3.61-12.22-5.8-65.81-36.47-132.81-73.6-200.64-111.71-68.83-38.676-138.7-78.422-209.6-118.88-16.39-9.375-28.18-21.75-34.14-33.887-5.92-12.656-6-24.914 1.73-34.277 140.35-171.58 317.91-388.56 549.68-672.04 17.09-20.985 41.91-32.911 69.14-35.996 26.66-2.5 55.29 3.789 78.75 20.167 100.84 70.047 199.46 138.33 295.65 205.06 93.9 65.137 185.69 128.74 275.33 190.79l0.11 0.078c7.38 4.961 13.05 10.699 17.98 16.61" fill="#00adef"/><path d="m7167.6 2990.1c194.49-122.93 436.07-276.01 745.17-472.1 46.88-29.77 71.99-67.89 75.02-106.64 2.55-39.42-17.95-79.14-60.25-110.02l-0.13-0.08c-91.86-65.02-185.86-131.47-282.26-199.67-98.71-69.81-199.96-141.46-303.76-214.75-51.13-35.24-111.87-50.56-168.45-45.44-56.3 5.89-107.63 31.94-141.73 77.28-221.5 294.04-390.75 518.71-524.32 696.16-15.2 20.16-14.2 46-0.38 70.85 13.26 24.46 38.37 49.01 71.99 68.12 69.65 39.34 138.1 77.87 205.74 115.55 66.48 37.04 132.2 73.19 196.85 108.68 30.78 16.77 66.32 26.6 99.32 29.05 33.1 2.57 64.99-2.94 87.19-16.99zm-339.19 403.81c92.19-46.11 196.28-98.17 317.04-158.49 15.8-7.92 20.68-20.21 16.4-33.99-4.71-13.91-19.27-28.98-43.51-41.68-51.12-26.69-102.7-53.86-154.7-81.42-52.81-27.99-106.12-56.61-159.93-85.55l-0.06-0.06c-25.98-13.96-55.53-22-81.53-23.75-26.02-1.63-47.92 2.61-59.96 13.27-92.6 81.71-171.69 151.55-241.23 213-8.07 7.14-6.65 17.82 1.67 29.33 8.47 11.32 24.07 23.24 44.65 33.39l0.07 0.02c42.89 20.95 85.39 41.73 127.55 62.05 41.81 20.15 83.22 40.02 124.38 59.66 19.43 9.3 41.24 15.53 60.89 18.05 19.9 2.52 37.44 1.54 48.27-3.83zm-666.46 233.83c11.79-7.39 24.19-15.07 36.81-22.97 1.73-1.03 0.87-2.94-1.61-5.23-2.63-2.23-7.06-4.89-12.56-7.34-23.5-10.27-46.96-20.6-70.48-30.96-5.76-2.49-11.6-4.29-16.13-5.18-4.78-0.93-8.27-0.93-9.84 0.2-10.98 8.73-21.97 17.24-32.25 25.37-1.24 1.02-0.25 2.92 2.43 5.14 2.64 2.19 7.17 4.69 12.53 7.01 22.35 9.72 44.58 19.39 66.73 28.99 5.28 2.27 10.45 4.03 14.86 4.9 4.47 0.92 7.94 0.98 9.51 0.07zm-10.72-4.07c-8.65-10-17.47-20.11-26.28-30.52 20.83 2.29 41.96 4.65 63.64 6.89-0.19 0.05-0.19 0.1-0.19 0.14-12.68 7.97-24.75 15.74-36.47 23.2-0.19 0.12-0.42 0.21-0.7 0.29zm33.01-28.25c-23.49-2.43-46.42-4.91-69.2-7.31-0.84-0.09-1.6-0.18-2.58-0.3 0.42 0.43 0.89 0.9 1.15 1.34 9.73 11.12 19.27 21.94 28.58 32.66-0.62-0.24-1.27-0.54-1.94-0.81-22.22-9.64-44.51-19.35-66.91-29.1-2.74-1.13-4.73-2.32-6.04-3.36-1.37-1.06-1.73-1.94-1.2-2.44 10.58-8.08 21.52-16.51 32.8-25.14 0.7-0.55 2.49-0.55 4.6-0.11 2.31 0.39 5.09 1.28 7.75 2.47 23.5 10.31 47.05 20.6 70.3 30.82 0.94 0.42 1.85 0.84 2.69 1.28zm-16.82-55.33c21.13-15.32 43.35-31.48 67.05-48.6 2.89-2.15 1.46-5.99-3.08-10.39-4.39-4.55-12.31-9.6-22.39-14.15-42.15-19.2-84.83-38.63-127.88-58.32-10.24-4.76-20.76-8.02-29.18-9.38-8.43-1.44-14.73-1.04-17.1 1.47-18.43 20.05-35.95 38.97-52.46 56.88-1.93 2.15 0.09 5.78 5.04 10.02 4.75 4.15 12.38 8.84 21.8 13.01 39.01 17.34 77.71 34.52 115.94 51.53 9.12 4.01 18.51 6.89 26 8.34 7.71 1.42 13.72 1.42 16.26-0.41zm-18.4-7.23c-15.23-18.72-30.54-38.26-46.51-58.3 36.86 2.67 74.67 5.47 113.42 8.23 0.05 0.08-0.14 0.2-0.33 0.26-23.1 17.36-44.8 33.78-65.39 49.33-0.39 0.2-0.65 0.33-1.19 0.48zm58.97-59.11c-42.01-3.02-82.95-5.85-122.9-8.72-1.59-0.11-3.13-0.2-4.65-0.29 0.77 0.89 1.38 1.81 2.16 2.7 17.49 21.55 34.22 42.48 50.76 62.51-1.27-0.43-2.35-0.88-3.48-1.39-38.57-17.13-77.45-34.42-116.63-51.88-4.48-2.04-8.18-4.26-10.52-6.27-2.34-2.03-3.26-3.77-2.34-4.74 17.05-17.65 34.85-36.29 53.84-56.05 1.21-1.15 4.23-1.37 8.31-0.61 3.9 0.68 8.84 2.23 13.81 4.47 42.66 19.53 85.13 38.81 127.05 57.87 1.66 0.77 3.27 1.58 4.59 2.4zm242.38 29.3c45.54-26 95.48-54.58 149.63-85.58 6.84-3.93 7.13-10.86 1.5-18.62-5.68-7.79-17.48-16.47-33.63-24.08-33.83-16.12-68.09-32.43-102.38-48.88-34.7-16.65-69.51-33.45-104.72-50.46l-0.07-0.02c-16.87-8.19-34.61-13.58-49.46-15.53-14.9-1.9-27.1-0.4-32.37 4.54-41.2 39-79.37 74.8-113.74 107.31-4.12 3.9-1.79 10.17 5.06 17.18 6.81 6.94 18.23 14.63 32.64 21.3l0.07 0.03c29.94 13.83 59.96 27.57 89.54 41.17 29.43 13.51 58.89 26.85 87.97 40.15 13.89 6.3 28.71 10.69 41.43 12.77 12.64 2.05 23.12 1.87 28.53-1.28zm-28.66-11.21c-17.22-30.61-35.29-62.84-53.83-97.03 65.06 2.72 132.56 5.56 202.91 8.24-0.14 0.14-0.34 0.29-0.54 0.44-52.99 31.72-102.06 60.93-146.37 87.51-0.61 0.35-1.35 0.64-2.17 0.84zm140.3-104.67c-76.68-2.74-150.29-5.41-220.94-8.08-2.73-0.09-5.43-0.14-7.93-0.29 0.8 1.58 1.61 3.04 2.61 4.56 20.76 36.79 40.56 71.53 59.87 104.29-1.79-0.65-3.63-1.44-5.33-2.24-29.51-13.43-58.99-26.94-88.79-40.6-30-13.75-60.06-27.64-90.41-41.66h-0.04c-6.87-3.23-12.46-6.83-15.66-10.27-3.28-3.28-4.45-6.31-2.3-8.09 35.63-31.88 74.86-66.9 117.38-105.07 2.62-2.3 8.35-2.86 15.34-1.92 7.22 1 15.6 3.43 23.69 7.29l0.05 0.03c34.72 16.74 69.23 33.37 103.45 49.76 33.98 16.25 67.97 32.31 101.54 48.2 2.8 1.34 5.32 2.69 7.47 4.09zm225.05-9.7c-6.56-24.01-12.22-49.4-18.64-75.47-6.7-27.14-13.25-55.58-20.54-84.91 55.12-0.85 111.23-1.57 169.76-2.41 59.36-0.84 121.48-1.73 185.34-2.82-0.36 0.28-1.17 0.68-1.61 0.91-118.28 62.18-220.2 115.79-310.47 163.2-1.05 0.6-2.47 1.11-3.84 1.5zm310.45-193.58c-69.45 1.24-137.75 2.73-202.49 3.97-63.77 1.22-124.96 2.35-184.5 3.55-4.76 0.21-9.19 0.29-13.7 0.41 0.77 2.71 1.35 5.38 2.14 7.95 8.95 31.66 16.8 62.5 24.89 91.54 7.84 28.11 14.91 55.16 22.09 81.03-2.55-0.92-5.23-1.98-7.74-3.17-41.58-19.96-83.64-40.11-125.86-60.63-42.5-20.63-85.61-41.81-129-63.09l-0.06-0.03c-10.09-4.91-17.53-10.8-21.58-16.21-3.93-5.54-4.43-10.54-0.33-13.87 71.98-59.86 153.65-127.8 249.06-207.23 5.79-4.87 16.42-6.89 28.51-5.8 12.07 1.18 25.72 5.05 38.02 11.59l0.09 0.03c53 28.28 105.51 56.24 157.38 83.57 51.22 26.98 102.3 53.5 152.52 79.6 3.95 2.13 7.42 4.42 10.56 6.79zm3.21-222.46c-0.59-53.13-0.81-110.14-0.96-170.55-0.15-64.64 0.01-134.02-0.41-207.86 108-17.53 221.1-35.81 341.06-55.13 125.26-20.21 260.53-42.79 401.38-65.35-1.6 1.34-3.47 2.58-5.35 3.82-302.42 204.32-538.35 363.41-727.89 490.93-2.61 1.75-5.21 3.14-7.83 4.14zm760.06-582.85c-162.28 31.09-308.93 57.07-450.53 82.21-129.57 22.98-255.37 44.99-371.75 64.78-9.01 1.62-17.72 3.38-26.13 4.73-0.14 7.04-0.07 14.14-0.19 21.21 4.26 79.5 7.1 155.55 10.01 223.95 2.81 65.63 5.4 125.56 6.81 183.01-4.16-1.66-8.13-3.61-12.21-5.79-65.81-36.48-132.81-73.62-200.65-111.73-68.82-38.66-138.7-78.42-209.6-118.87-16.38-9.37-28.18-21.75-34.13-33.89-5.93-12.66-6-24.91 1.72-34.28 140.35-171.57 317.91-388.56 549.68-672.04 17.1-20.98 41.92-32.9 69.15-35.99 26.67-2.5 55.28 3.78 78.76 20.16 100.82 70.05 199.44 138.34 295.63 205.06 93.9 65.14 185.7 128.74 275.34 190.8l0.1 0.07c7.38 4.96 13.05 10.7 17.99 16.61" fill="#99d420"/><path d="m7167.6 1149.7c194.49-122.92 436.07-276.01 745.17-472.09 46.88-29.773 71.99-67.89 75.02-106.64 2.55-39.422-17.95-79.137-60.25-110.02l-0.13-0.09c-91.86-65.019-185.86-131.48-282.26-199.67-98.71-69.804-199.96-141.45-303.76-214.76-51.13-35.23-111.87-50.555-168.45-45.43-56.3 5.8789-107.63 31.934-141.73 77.277-221.5 294.04-390.75 518.71-524.32 696.16-15.2 20.168-14.2 46.008-0.38 70.852 13.26 24.453 38.37 49.004 71.99 68.117 69.65 39.344 138.1 77.867 205.74 115.56 66.48 37.03 132.2 73.19 196.85 108.67 30.78 16.78 66.32 26.6 99.32 29.05 33.1 2.57 64.99-2.94 87.19-16.99zm-339.19 403.8c92.19-46.1 196.28-98.16 317.04-158.47 15.8-7.93 20.68-20.22 16.4-34.01-4.71-13.9-19.27-28.97-43.51-41.66-51.12-26.7-102.7-53.87-154.7-81.43-52.81-27.98-106.12-56.61-159.93-85.54l-0.06-0.06c-25.98-13.97-55.53-22-81.53-23.74-26.02-1.65-47.92 2.59-59.96 13.25-92.6 81.7-171.69 151.56-241.23 213-8.07 7.13-6.65 17.82 1.67 29.33 8.47 11.32 24.07 23.25 44.65 33.39l0.07 0.02c42.89 20.96 85.39 41.73 127.55 62.05 41.81 20.16 83.22 40.02 124.38 59.66 19.43 9.3 41.24 15.52 60.89 18.05 19.9 2.52 37.44 1.54 48.27-3.84zm-666.46 233.84c11.79-7.39 24.19-15.07 36.81-22.97 1.73-1.03 0.87-2.94-1.61-5.23-2.63-2.22-7.06-4.89-12.56-7.33-23.5-10.27-46.96-20.61-70.48-30.97-5.76-2.48-11.6-4.29-16.13-5.19-4.78-0.92-8.27-0.92-9.84 0.21-10.98 8.73-21.97 17.23-32.25 25.38-1.24 1.01-0.25 2.91 2.43 5.13 2.64 2.19 7.17 4.69 12.53 7.01 22.35 9.71 44.58 19.38 66.73 29 5.28 2.26 10.45 4.02 14.86 4.89 4.47 0.92 7.94 0.99 9.51 0.07zm-10.72-4.08c-8.65-9.99-17.47-20.11-26.28-30.51 20.83 2.29 41.96 4.65 63.64 6.9-0.19 0.05-0.19 0.09-0.19 0.12-12.68 7.98-24.75 15.75-36.47 23.21-0.19 0.11-0.42 0.21-0.7 0.28zm33.01-28.23c-23.49-2.44-46.42-4.92-69.2-7.32-0.84-0.09-1.6-0.17-2.58-0.29 0.42 0.43 0.89 0.89 1.15 1.33 9.73 11.13 19.27 21.94 28.58 32.66-0.62-0.24-1.27-0.54-1.94-0.8-22.22-9.65-44.51-19.36-66.91-29.11-2.74-1.13-4.73-2.32-6.04-3.35-1.37-1.07-1.73-1.95-1.2-2.45 10.58-8.07 21.52-16.51 32.8-25.14 0.7-0.55 2.49-0.55 4.6-0.11 2.31 0.39 5.09 1.29 7.75 2.47 23.5 10.31 47.05 20.6 70.3 30.82 0.94 0.42 1.85 0.85 2.69 1.29zm-16.82-55.34c21.13-15.32 43.35-31.48 67.05-48.6 2.89-2.16 1.46-5.99-3.08-10.39-4.39-4.55-12.31-9.6-22.39-14.15-42.15-19.2-84.83-38.63-127.88-58.31-10.24-4.77-20.76-8.02-29.18-9.39-8.43-1.43-14.73-1.04-17.1 1.48-18.43 20.04-35.95 38.96-52.46 56.87-1.93 2.14 0.09 5.78 5.04 10.02 4.75 4.15 12.38 8.84 21.8 13 39.01 17.35 77.71 34.53 115.94 51.55 9.12 4.01 18.51 6.88 26 8.33 7.71 1.41 13.72 1.41 16.26-0.41zm-18.4-7.23c-15.23-18.72-30.54-38.25-46.51-58.3 36.86 2.68 74.67 5.48 113.42 8.23 0.05 0.08-0.14 0.21-0.33 0.26-23.1 17.36-44.8 33.78-65.39 49.34-0.39 0.19-0.65 0.32-1.19 0.47zm58.97-59.11c-42.01-3.01-82.95-5.85-122.9-8.71-1.59-0.12-3.13-0.22-4.65-0.3 0.77 0.9 1.38 1.81 2.16 2.7 17.49 21.55 34.22 42.47 50.76 62.52-1.27-0.44-2.35-0.88-3.48-1.41-38.57-17.11-77.45-34.41-116.63-51.87-4.48-2.04-8.18-4.25-10.52-6.27s-3.26-3.77-2.34-4.74c17.05-17.65 34.85-36.3 53.84-56.05 1.21-1.15 4.23-1.37 8.31-0.61 3.9 0.68 8.84 2.23 13.81 4.47 42.66 19.53 85.13 38.82 127.05 57.87 1.66 0.77 3.27 1.58 4.59 2.4zm242.38 29.31c45.54-26.01 95.48-54.59 149.63-85.59 6.84-3.92 7.13-10.85 1.5-18.62-5.68-7.8-17.48-16.47-33.63-24.07-33.83-16.13-68.09-32.44-102.38-48.89-34.7-16.64-69.51-33.45-104.72-50.46l-0.07-0.02c-16.87-8.19-34.61-13.58-49.46-15.53-14.9-1.9-27.1-0.4-32.37 4.53-41.2 39.01-79.37 74.81-113.74 107.32-4.12 3.89-1.79 10.17 5.06 17.17 6.81 6.96 18.23 14.65 32.64 21.31l0.07 0.03c29.94 13.83 59.96 27.58 89.54 41.16 29.43 13.51 58.89 26.86 87.97 40.17 13.89 6.29 28.71 10.69 41.43 12.76 12.64 2.06 23.12 1.87 28.53-1.27zm-28.66-11.21c-17.22-30.62-35.29-62.85-53.83-97.03 65.06 2.71 132.56 5.55 202.91 8.24-0.14 0.13-0.34 0.28-0.54 0.43-52.99 31.72-102.06 60.95-146.37 87.5-0.61 0.36-1.35 0.66-2.17 0.86zm140.3-104.68c-76.68-2.73-150.29-5.41-220.94-8.08-2.73-0.09-5.43-0.15-7.93-0.29 0.8 1.58 1.61 3.05 2.61 4.56 20.76 36.79 40.56 71.53 59.87 104.29-1.79-0.64-3.63-1.44-5.33-2.24-29.51-13.43-58.99-26.94-88.79-40.59-30-13.75-60.06-27.65-90.41-41.67h-0.04c-6.87-3.23-12.46-6.83-15.66-10.26-3.28-3.29-4.45-6.32-2.3-8.11 35.63-31.86 74.86-66.89 117.38-105.06 2.62-2.31 8.35-2.86 15.34-1.92 7.22 1 15.6 3.43 23.69 7.29l0.05 0.03c34.72 16.75 69.23 33.37 103.45 49.76 33.98 16.24 67.97 32.31 101.54 48.2 2.8 1.33 5.32 2.69 7.47 4.09zm225.05-9.7c-6.56-24.01-12.22-49.4-18.64-75.47-6.7-27.14-13.25-55.58-20.54-84.91 55.12-0.85 111.23-1.57 169.76-2.41 59.36-0.84 121.48-1.73 185.34-2.81-0.36 0.27-1.17 0.67-1.61 0.91-118.28 62.17-220.2 115.77-310.47 163.19-1.05 0.6-2.47 1.11-3.84 1.5zm310.45-193.58c-69.45 1.24-137.75 2.73-202.49 3.97-63.77 1.23-124.96 2.35-184.5 3.54-4.76 0.22-9.19 0.3-13.7 0.42 0.77 2.71 1.35 5.38 2.14 7.96 8.95 31.66 16.8 62.5 24.89 91.53 7.84 28.13 14.91 55.17 22.09 81.03-2.55-0.92-5.23-1.98-7.74-3.16-41.58-19.97-83.64-40.11-125.86-60.63-42.5-20.64-85.61-41.81-129-63.1l-0.06-0.03c-10.09-4.91-17.53-10.8-21.58-16.21-3.93-5.54-4.43-10.55-0.33-13.87 71.98-59.86 153.65-127.8 249.06-207.23 5.79-4.87 16.42-6.89 28.51-5.79 12.07 1.17 25.72 5.05 38.02 11.58l0.09 0.02c53 28.29 105.51 56.25 157.38 83.58 51.22 26.99 102.3 53.49 152.52 79.61 3.95 2.12 7.42 4.42 10.56 6.78zm3.21-222.45c-0.59-53.14-0.81-110.15-0.96-170.55-0.15-64.648 0.01-134.02-0.41-207.87 108-17.531 221.1-35.801 341.06-55.125 125.26-20.207 260.53-42.785 401.38-65.344-1.6 1.329-3.47 2.579-5.35 3.817-302.42 204.32-538.35 363.41-727.89 490.91-2.61 1.76-5.21 3.16-7.83 4.16zm760.06-582.86c-162.28 31.082-308.93 57.07-450.53 82.214-129.57 22.973-255.37 44.981-371.75 64.778-9.01 1.613-17.72 3.367-26.13 4.726-0.14 7.039-0.07 14.141-0.19 21.223 4.26 79.492 7.1 155.54 10.01 223.93 2.81 65.62 5.4 125.57 6.81 183.01-4.16-1.66-8.13-3.61-12.21-5.8-65.81-36.47-132.81-73.6-200.65-111.71-68.82-38.676-138.7-78.422-209.6-118.88-16.38-9.375-28.18-21.75-34.13-33.887-5.93-12.656-6-24.914 1.72-34.277 140.35-171.58 317.91-388.56 549.68-672.04 17.1-20.985 41.92-32.911 69.15-35.996 26.67-2.5 55.28 3.789 78.76 20.167 100.82 70.047 199.44 138.33 295.63 205.06 93.9 65.137 185.7 128.74 275.34 190.79l0.1 0.078c7.38 4.961 13.05 10.699 17.99 16.61" fill="#ed1c24"/></g></g></svg>
