<?xml version="1.0" encoding="UTF-8" standalone="no"?>
<svg
   xmlns:dc="http://purl.org/dc/elements/1.1/"
   xmlns:cc="http://creativecommons.org/ns#"
   xmlns:rdf="http://www.w3.org/1999/02/22-rdf-syntax-ns#"
   xmlns:svg="http://www.w3.org/2000/svg"
   xmlns="http://www.w3.org/2000/svg"
   viewBox="0 0 534.52002 372.38666"
   height="372.38666"
   width="534.52002"
   xml:space="preserve"
   id="svg2"
   version="1.1"><metadata
     id="metadata8"><rdf:RDF><cc:Work
         rdf:about=""><dc:format>image/svg+xml</dc:format><dc:type
           rdf:resource="http://purl.org/dc/dcmitype/StillImage" /><dc:title></dc:title></cc:Work></rdf:RDF></metadata><defs
     id="defs6" /><g
     transform="matrix(1.3333333,0,0,-1.3333333,0,372.38667)"
     id="g10"><g
       transform="scale(0.1)"
       id="g12"><path
         id="path14"
         style="fill:#fff87d;fill-opacity:1;fill-rule:nonzero;stroke:none"
         d="m 780.625,765.25 -35,1605 1590.005,-65 625,-30 -80,-1515 -2100.005,5" /><path
         id="path16"
         style="fill:#deddde;fill-opacity:1;fill-rule:nonzero;stroke:none"
         d="M 2491.11,110.25 C 2491.11,49.3594 2078.99,0 1570.62,0 1062.23,0 650.117,49.3594 650.117,110.25 c 0,60.891 412.113,110.25 920.503,110.25 508.37,0 920.49,-49.359 920.49,-110.25" /><path
         id="path18"
         style="fill:#ffffff;fill-opacity:1;fill-rule:nonzero;stroke:none"
         d="m 1251.7,1994.72 c 0,0 31.25,-124.95 108.42,-183.75 77.17,-58.8 172.72,-99.23 248.06,-93.72 75.34,5.52 163.53,51.46 163.53,51.46 l 62.49,51.45 c 0,0 88.18,-73.52 146.98,-80.86 58.8,-7.34 196.61,18.38 229.7,44.11 33.07,25.73 108.4,112.08 108.4,112.08 l 47.78,163.55 c 0,0 -44.11,93.7 -200.28,143.31 l -99.23,12.87 -93.71,-9.19 -42.26,-11.01 -1.84,-33.09 c 0,0 -88.2,42.27 -137.82,53.29 -49.61,11.03 -187.42,18.37 -205.79,14.7 -18.39,-3.67 -132.3,-45.94 -187.43,-86.36 -55.12,-40.43 -147,-148.84 -147,-148.84" /><path
         id="path20"
         style="fill:#f2d76d;fill-opacity:1;fill-rule:nonzero;stroke:none"
         d="m 1210.63,2355.25 c 0,0 -127.5,-362.5 87.02,-568.18 l 67.98,-58.78 91.87,-29.41 80.85,-3.68 49.61,16.54 -121.27,25.73 c 0,0 -148.84,113.92 -150.67,119.44 -1.84,5.52 -95.39,230.84 -95.39,230.84 l 67.5,260 -77.5,7.5" /><path
         id="path22"
         style="fill:#f2d76d;fill-opacity:1;fill-rule:nonzero;stroke:none"
         d="m 1793.77,1794.43 c 0,0 93.71,-117.59 281.13,-64.31 l -115.77,20.21 -124.93,69.83 -40.43,-25.73" /><path
         id="path24"
         style="fill:#fff87d;fill-opacity:1;fill-rule:nonzero;stroke:none"
         d="m 1400.87,700 52.5,-154 10.51,-157.5 -8.75,-113.75 -127.76,22.75 -110.25,-3.488 -99.75,-29.774 -61.25,-38.476 -49,-40.27 L 959.871,91 l 750.759,28 -26.25,49.012 c 0,0 -82.26,75.238 -84.01,80.488 -1.74,5.242 -36.75,22.75 -36.75,22.75 l 19.26,231 68.25,182 40.25,50.75 -290.51,-35" /><path
         id="path26"
         style="fill:#fff87d;fill-opacity:1;fill-rule:nonzero;stroke:none"
         d="m 1851.62,735.25 c 0,0 61.26,-192.508 63.01,-250.258 1.74,-57.75 3.5,-164.504 3.5,-164.504 l -75.25,-40.246 -71.76,-71.75 -10.49,-24.492 750.75,-71.758 c 0,0 -21.02,48.996 -22.76,54.246 -1.74,5.254 -50.75,80.512 -50.75,80.512 l -101.5,59.492 -110.25,35.008 -99.75,-1.758 -101.5,-19.254 c 0,0 -12.25,134.762 -8.75,168.004 3.51,33.246 43.75,171.5 43.75,171.5 l 43.75,90.996 -252,-15.738" /><path
         id="path28"
         style="fill:#f0d451;fill-opacity:1;fill-rule:nonzero;stroke:none"
         d="m 1431.46,635.25 c 5.24,7 131.16,98.082 209.91,63.09 l 40.25,61.25 -300.16,-3.5 50,-120.84" /><path
         id="path30"
         style="fill:#f0d451;fill-opacity:1;fill-rule:nonzero;stroke:none"
         d="m 1884.7,661.082 c 0,0 89.68,79 185.93,47.5 l 28.33,53.34 -253.34,-5 39.08,-95.84" /><path
         id="path32"
         style="fill:#fffdd1;fill-opacity:1;fill-rule:nonzero;stroke:none"
         d="m 2019.63,309.992 c 0,0 341.25,54.238 467.25,-181.992 l 12.25,5.23 -82.25,113.77 -94.51,64.73 -76.99,19.262 -110.25,8.75 -75.26,-10.504 -35,-8.75 -5.24,-10.496" /><path
         id="path34"
         style="fill:#fffdd1;fill-opacity:1;fill-rule:nonzero;stroke:none"
         d="m 1451.63,262.5 c 0,0 -306.26,71.75 -476.005,-164.4883 l 33.255,78.7383 c 0,0 91,73.5 96.25,73.5 5.25,0 111.99,43.762 111.99,43.762 h 127.75 l 77.01,-14.02 29.75,-17.492" /><path
         id="path36"
         style="fill:#fff87d;fill-opacity:1;fill-rule:nonzero;stroke:none"
         d="m 753.125,1815.25 -87.5,-57.5 -127.5,-87.5 -80,-35 -102.5,-37.5 -57.5,-22.5 -52.5,-27.5 c 0,0 -40,-40 -27.5,-55 12.5,-15 85,-57.5 102.5,-77.5 17.5,-20 97.5,-122.5 97.5,-122.5 l 25,-40 72.5,12.5 67.5,-5 c 0,0 -55,60 -60,67.5 -5,7.5 -27.5,105 -27.5,105 0,0 57.5,72.5 100,80 42.5,7.5 172.5,25 172.5,25 l -15,277.5" /><path
         id="path38"
         style="fill:#fff87d;fill-opacity:1;fill-rule:nonzero;stroke:none"
         d="m 2920.63,1350.25 c 7.5,0 70,-172.5 117.5,-185 47.5,-12.5 100,-5 100,-5 l 92.5,52.5 65,-62.5 c 0,0 -45,-77.5 -62.5,-90 -17.5,-12.5 -120,-100 -170,-100 -50,0 -90,15 -90,15 l -72.5,62.5 20,312.5" /><path
         id="path40"
         style="fill:#f0d451;fill-opacity:1;fill-rule:nonzero;stroke:none"
         d="m 2908.13,1107.75 c 0,0 190,-210 365,52.5 l 22.5,-10 -77.5,-112.5 -72.5,-50 -82.5,-27.5 -70,7.5 -90,57.5 5,82.5" /><path
         id="path42"
         style="fill:#f0d451;fill-opacity:1;fill-rule:nonzero;stroke:none"
         d="m 3203.13,1197.75 c 0,0 70,-62.5 42.5,-132.5 l 50,85 -65,62.5 -27.5,-15" /><path
         id="path44"
         style="fill:#f0d451;fill-opacity:1;fill-rule:nonzero;stroke:none"
         d="m 750.625,1615.25 c 0,0 -182.5,-27.5 -247.5,-120 l -10,-47.5 c 0,0 120,77.5 145,80 25,2.5 120,7.5 120,7.5 l -7.5,80" /><path
         id="path46"
         style="fill:#f0d451;fill-opacity:1;fill-rule:nonzero;stroke:none"
         d="m 703.125,1777.75 c 0,0 25,-150 -30,-237.5 l 95,-2.5 -20,267.5 -45,-27.5" /><path
         id="path48"
         style="fill:#f0d451;fill-opacity:1;fill-rule:nonzero;stroke:none"
         d="m 1760.63,1160.25 c 0,0 -80,-145 -180,-150 -100,-5 -127.5,57.5 -137.5,80 l 120,-45 137.5,45 60,70" /><path
         id="path50"
         style="fill:#fffdd1;fill-opacity:1;fill-rule:nonzero;stroke:none"
         d="m 1113.13,1625.25 c 0,0 182.5,70 242.5,27.5 0,0 -55,55 -90,57.5 -35,2.5 -70,-22.5 -70,-22.5 l -82.5,-62.5" /><path
         id="path52"
         style="fill:#fffbab;fill-opacity:1;fill-rule:nonzero;stroke:none"
         d="m 1248.13,2020.25 c 0,0 80,292.5 230,335 0,0 85,40 125,40 40,0 120,-7.5 120,-7.5 l 100,-42.5 62.5,-37.5 c 0,0 -105,212.5 -320,207.5 0,0 -200,-75 -245,-140 -45,-65 -77.5,-167.5 -77.5,-167.5 l -7.5,-157.5 12.5,-30" /><path
         id="path54"
         style="fill:#fffbab;fill-opacity:1;fill-rule:nonzero;stroke:none"
         d="m 1833.13,2397.75 c 0,0 62.5,70 137.5,77.5 75,7.5 132.5,7.5 170,-7.5 37.5,-15 130,-82.5 130,-82.5 l 75,-145 c 0,0 -130,100 -255,117.5 0,0 -87.5,10 -202.5,-37.5 l -55,77.5" /><path
         id="path56"
         style="fill:#ffffff;fill-opacity:1;fill-rule:nonzero;stroke:none"
         d="m 1248.13,2020.25 c 0,0 60,-137.5 77.5,-167.5 17.5,-30 87.5,-90 87.5,-90 l 122.5,-40 112.5,2.5 87.5,22.5 98.57,72.41 c 0,0 110.04,-79.31 146.98,-80.86 36.95,-1.55 119.45,3.45 119.45,3.45 0,0 125,47.5 145,67.5 20,20 95,127.5 95,127.5 l 35,170 -30,132.5 c 0,0 -120,97.5 -255,117.5 0,0 -130,2.5 -202.5,-37.5 l 7.5,-25 c 0,0 -162.5,132.5 -322.5,100 0,0 -162.5,-62.5 -215,-125 -52.5,-62.5 -85,-170 -85,-170 l -25,-80" /><path
         id="path58"
         style="fill:#ffffff;fill-opacity:1;fill-rule:nonzero;stroke:none"
         d="m 3338.96,1388.58 -68.33,10 -46.67,-16.66 -18.33,-66.67 16.66,-65 43.34,-63.33 46.66,-38.34 51.67,-25 41.67,-16.66 43.33,3.33 30,15 20,21.67 5,50 56.67,-15 c 0,0 73.33,5 81.66,8.33 8.34,3.33 48.34,35 48.34,35 l 26.66,53.33 c 0,0 75,-18.33 125,-5 50,13.34 83.34,33.34 83.34,33.34 l 45,38.33 23.33,40 -35,66.67 40,76.66 -3.33,53.34 -48.34,36.66 -41.66,3.34 c 0,0 -10.01,80 -46.67,100 0,0 -53.33,14.99 -83.33,-8.34 -30,-23.33 -48.34,-61.66 -48.34,-61.66 l -41.66,-41.67 -43.34,-11.67 -53.33,-8.33 -10,5 c 0,0 46.67,63.33 38.33,131.67 -8.33,68.33 -20,91.66 -20,91.66 0,0 -38.33,41.67 -78.33,43.34 -40,1.66 -53.34,-8.34 -75,-28.34 -21.67,-20 -30,-70 -30,-70 l 5,-80 13.33,-48.33 -6.66,-21.67 c 0,0 -18.34,-10 -26.67,-11.66 -8.33,-1.67 -55,-5 -55,-5 l -45,-33.34 -1.67,-63.33 25,-63.33 16.67,-48.34" /><path
         id="path60"
         style="fill:#d6f2fc;fill-opacity:1;fill-rule:nonzero;stroke:none"
         d="m 3323.96,1150.25 c 0,0 116.67,-28.33 148.33,60 l 23.34,-11.67 1.66,-43.33 -15,-36.67 -33.33,-8.33 -61.67,1.67 -63.33,38.33" /><path
         id="path62"
         style="fill:#d6f2fc;fill-opacity:1;fill-rule:nonzero;stroke:none"
         d="m 3495.63,1218.58 c 0,0 163.33,-20 205,65 l 1.66,-26.66 -18.33,-40 -18.33,-18.34 -55,-16.66 -68.34,3.33 -46.66,33.33" /><path
         id="path64"
         style="fill:#d6f2fc;fill-opacity:1;fill-rule:nonzero;stroke:none"
         d="m 3717.29,1291.92 c 0,0 205,-3.33 261.67,88.33 l -8.33,-35 -30,-30 -41.67,-25 -56.67,-16.67 -45,-6.66 -63.33,5 -16.67,20" /><path
         id="path66"
         style="fill:#d6f2fc;fill-opacity:1;fill-rule:nonzero;stroke:none"
         d="m 1290.62,2151.92 c 0,0 -26.67,-333.33 286.67,-428.33 l -88.33,13.33 c 0,0 -121.67,55 -150,95 -28.34,40 -85,185 -85,185 l 36.66,135" /><path
         id="path68"
         style="fill:#d6f2fc;fill-opacity:1;fill-rule:nonzero;stroke:none"
         d="m 1875.62,1883.59 c 0,0 60,-126.67 236.67,-133.34 l -56.66,-10 -96.5,10.08 -124.93,69.83 41.42,63.43" /><path
         id="path70"
         style="fill:#ffffff;fill-opacity:1;fill-rule:nonzero;stroke:none"
         d="m 735.621,1093.58 20,21.67 c 0,0 9.992,30 6.664,35 -3.332,5 -20,41.67 -20,41.67 l -71.664,40 -80,28.33 H 487.285 l -38.332,-5 -30,-16.67 -18.332,-33.33 6.664,-31.67 25,-25 -73.332,-71.66 -38.332,-71.67 c 0,0 -33.336,88.34 -43.336,115 -10,26.67 -61.664,58.33 -61.664,58.33 l -35,8.34 -41.668,-11.67 -25,-23.33 -5,-36.67 c 0,0 -53.328,-6.66 -64.996,-15 -11.6718,-8.33 -31.6718,-56.67 -31.6718,-56.67 L 38.957,995.25 c 0,0 -25.0078,-48.328 -21.6718,-65 3.3359,-16.668 40,-43.328 40,-43.328 l 99.9998,-18.34 120,-38.332 75,-46.668 36.668,-6.66 c 0,0 35,18.328 46.668,36.66 11.664,18.34 96.664,93.34 96.664,93.34 l 93.336,70 63.332,24.998 48.332,25 5,48.33 -6.664,18.33" /><path
         id="path72"
         style="fill:#d6f2fc;fill-opacity:1;fill-rule:nonzero;stroke:none"
         d="m 38.957,903.582 c 0,0 149.996,11.668 219.996,-31.66 53.063,-32.852 113.332,-68.34 133.332,-55 20,13.328 166.664,194.998 285,213.328 0,0 48.328,10 55,41.67 l 6.668,-28.34 -11.668,-21.66 -30,-13.34 -53.332,-21.658 -75,-48.34 -56.668,-45 -48.332,-51.66 -28.332,-28.34 -23.336,-30 -30,-6.66 c 0,0 -58.336,21.66 -60,26.66 -1.664,5 -93.332,51.668 -93.332,51.668 L 150.621,868.582 72.2852,885.25 38.957,903.582" /><path
         id="path74"
         style="fill:#fffdd1;fill-opacity:1;fill-rule:nonzero;stroke:none"
         d="m 2343.96,2273.58 586.67,-30 -63.34,-1483.33 106.67,1523.33 -638.33,21.67 8.33,-31.67" /><path
         id="path76"
         style="fill:#231f20;fill-opacity:1;fill-rule:nonzero;stroke:none"
         d="m 1938.01,2112.32 h -11.03 c 0.01,-106.18 -38.23,-202.14 -99.74,-271.38 -61.55,-69.26 -146.04,-111.73 -239.28,-111.75 -93.24,0.02 -177.73,42.49 -239.28,111.75 -61.51,69.24 -99.75,165.2 -99.74,271.38 -0.01,106.18 38.23,202.13 99.74,271.38 61.55,69.25 146.04,111.72 239.28,111.73 93.24,-0.01 177.73,-42.48 239.28,-111.73 61.51,-69.25 99.75,-165.2 99.74,-271.38 h 11.03 11.02 c -0.01,111.49 -40.12,212.61 -105.3,286.02 -65.15,73.39 -155.68,119.16 -255.77,119.14 -100.08,0.02 -190.62,-45.75 -255.76,-119.14 -65.19,-73.41 -105.31,-174.53 -105.32,-286.02 0.01,-111.5 40.13,-212.62 105.32,-286.03 65.14,-73.4 155.68,-119.16 255.76,-119.15 100.09,-0.01 190.62,45.75 255.77,119.15 65.18,73.41 105.29,174.53 105.3,286.03 h -11.02" /><path
         id="path78"
         style="fill:#231f20;fill-opacity:1;fill-rule:nonzero;stroke:none"
         d="m 1839.56,2396.47 c 55.15,49.72 124.71,79.23 200.42,79.26 88.41,-0.02 168.52,-40.28 226.9,-105.96 58.33,-65.68 94.62,-156.71 94.61,-257.45 0.01,-100.74 -36.28,-191.77 -94.61,-257.45 -58.38,-65.69 -138.49,-105.94 -226.9,-105.96 -79.19,0.02 -151.65,32.29 -207.9,86.22 l -15.27,-15.92 c 59.86,-57.43 137.89,-92.36 223.17,-92.35 95.25,-0.01 181.42,43.54 243.39,113.37 62.01,69.84 100.17,166.04 100.17,272.09 0,106.06 -38.16,202.25 -100.17,272.08 -61.97,69.83 -148.14,113.39 -243.39,113.38 -81.53,0.01 -156.47,-31.93 -215.19,-84.94 l 14.78,-16.38 -0.01,0.01" /><path
         id="path80"
         style="fill:#231f20;fill-opacity:1;fill-rule:nonzero;stroke:none"
         d="m 1356.86,753.84 c 72.44,-152.371 119.03,-312.231 81.68,-481.828 7.73,3.707 15.45,7.429 23.18,11.136 -195.53,61.442 -436.68,20.614 -515.868,-190.2378 -3.289,-8.75 5.203,-13.3282 12.839,-13.0118 250.829,10.5 501.659,20.9926 752.489,31.4926 6.28,0.257 19.09,6.609 15.79,15.031 -16.43,41.859 -46.22,77.68 -79.22,107.488 -6.74,6.09 -67.35,44.07 -67.48,39.59 0.43,15.961 1.43,31.898 2.53,47.82 9.97,144.828 32.91,312.66 123.46,430.981 11.4,14.89 -16.15,20.289 -24.61,9.238 C 1579.8,628.461 1553.9,432.012 1550.54,268.512 c -0.09,-4.641 2.43,-7.321 6.48,-9.16 60.42,-27.391 116,-77.723 140.74,-140.77 5.26,5.008 10.53,10.02 15.78,15.027 -250.83,-10.5 -501.66,-20.98 -752.485,-31.48 4.281,-4.3399 8.558,-8.6681 12.84,-13.0079 72.985,194.3279 290.945,230.3399 471.125,173.7309 9.04,-2.84 20.97,1.117 23.18,11.148 37.67,171.109 -8.91,333.68 -82.14,487.66 -6.27,13.219 -35.2,4.789 -29.2,-7.82" /><path
         id="path82"
         style="fill:#231f20;fill-opacity:1;fill-rule:nonzero;stroke:none"
         d="m 1268.23,2529.91 c 0,0 106.57,253.58 407.93,172.72 0,0 -334.42,271.94 -407.93,-172.72" /><path
         id="path84"
         style="fill:#231f20;fill-opacity:1;fill-rule:nonzero;stroke:none"
         d="m 1268.23,2529.91 7.32,-3.08 0.19,0.43 c 2.15,4.94 23.21,51.13 69.02,95.7 45.89,44.58 116.02,87.6 217.9,87.65 33.57,0 70.62,-4.69 111.45,-15.65 l 7.06,13.83 c -0.26,0.21 -25.9,21.05 -64.77,41.99 -38.89,20.9 -91,42.06 -144.78,42.11 -43.91,0.09 -89.15,-14.59 -126.78,-55.04 -37.65,-40.4 -67.74,-105.71 -84.44,-206.65 l 15.15,-4.37 -7.32,3.08 7.83,-1.3 c 16.37,99.08 45.73,161.3 80.4,198.41 34.68,37.07 74.6,49.9 115.16,49.99 49.53,0.06 99.69,-19.94 137.25,-40.21 18.78,-10.11 34.42,-20.24 45.33,-27.83 5.45,-3.79 9.73,-6.93 12.62,-9.13 1.44,-1.09 2.54,-1.95 3.27,-2.53 l 1.06,-0.84 5.01,6.16 2.06,7.67 c -42.05,11.28 -80.51,16.18 -115.56,16.18 -109.99,0.05 -185.84,-48.43 -233.53,-96.67 -47.78,-48.26 -67.95,-96.25 -68.22,-96.83 l 7.32,-3.07 7.83,-1.3 -7.83,1.3" /><path
         id="path86"
         style="fill:#ffffff;fill-opacity:1;fill-rule:nonzero;stroke:none"
         d="m 2451.56,2183.28 -3.79,-75.7 c 0,0 25.18,-31.99 -0.27,-65.14 l -5.88,-59.04 c 0,0 30.47,-24.79 -0.33,-66.13 l -5.41,-69.3 55.24,-4.75 c 0,0 36.62,18.94 56.4,-0.89 l 81.03,-4.24 c 0,0 32.26,30.92 67.45,1.24 l 71.18,-2.5 c 0,0 44.35,34.87 74.21,-2.02 l 41.49,-2.27 4.05,81.76 c 0,0 -25.99,35.15 3.18,63.58 l 1.23,64.96 c 0,0 -32.28,28.16 5.86,58.01 l 3.77,75.72 -49.46,1.68 c 0,0 -27.95,-24.56 -69.24,2.14 l -62.35,0.92 c 0,0 -35.55,-37.45 -77.35,-1.49 l -78.12,2.71 c 0,0 -26.6,-37.03 -56.38,1.88 l -56.51,-1.13" /><path
         id="path88"
         style="fill:#b2dc23;fill-opacity:1;fill-rule:nonzero;stroke:none"
         d="m 2496.97,2140.57 342.56,-3.99 -4.67,-253.76 -350.45,5.38 12.56,252.37" /><path
         id="path90"
         style="fill:#231f20;fill-opacity:1;fill-rule:nonzero;stroke:none"
         d="m 2834.7,1877.67 0.11,8 -342.56,5.23 10.53,243.75 334.78,-5.1 -10.85,-251.53 7.99,-0.35 0.11,8 -0.11,-8 7.99,-0.35 11.57,267.98 -366.79,5.59 -11.92,-275.74 366.8,-5.6 0.34,7.77 -7.99,0.35" /><path
         id="path92"
         style="fill:#231f20;fill-opacity:1;fill-rule:nonzero;stroke:none"
         d="m 2450.59,2185.78 -0.11,-7.2 56.44,-0.86 0.11,7.2 -6.12,-3.8 c 0.23,-0.35 3.39,-5.45 9.27,-10.77 5.83,-5.25 14.71,-11.04 26.28,-11.08 10.09,-0.04 21.22,4.7 32.03,15.75 l -5.13,5.06 -0.11,-7.2 c 0.01,0 77.55,-1.19 81.62,-1.24 l 0.07,5.81 -2.64,-5.22 c 0.34,-0.14 0.99,-0.53 2.56,-0.59 l 0.08,5.81 -2.64,-5.22 1.42,2.79 -1.68,-2.64 0.26,-0.15 1.42,2.79 -1.68,-2.64 0.02,-0.01 c 0.35,-0.23 1.88,-1.59 3.79,-3.22 5.81,-4.94 16.8,-13.08 32.91,-13.07 12.26,-0.01 26.8,4.72 43.47,17.2 l -4.31,5.77 -0.11,-7.2 67.24,-1.03 0.11,7.2 -4.42,-5.69 c 0.63,-0.37 16.9,-13.29 39.72,-13.44 10.79,-0.04 23.04,3.18 34.57,12.09 l -4.39,5.72 -0.25,-7.2 40.1,-1.43 -2.86,-65.47 7.19,-0.31 -4.9,5.27 c -0.25,-0.25 -4.84,-4.51 -9.56,-11.46 -4.66,-6.94 -9.68,-16.66 -9.73,-28.2 0,-5.33 1.16,-11.01 3.95,-16.49 2.77,-5.5 7.11,-10.75 13.15,-15.55 l 4.49,5.62 -7.2,0.32 -2.72,-62.15 7.2,-0.31 -5.01,5.17 c -0.27,-0.28 -4.51,-4.39 -8.84,-11.3 -4.29,-6.9 -8.8,-16.73 -8.83,-28.46 -0.06,-10.74 4.12,-22.82 14.74,-33.83 l 5.21,4.98 -7.2,0.19 -2.15,-80.58 -0.06,-1.23 7.19,-0.37 0.11,7.19 -40.27,0.63 -0.1,-7.2 5.89,4.14 c -0.32,0.43 -3.86,5.42 -10.8,10.51 -6.92,5.06 -17.46,10.22 -31.09,10.21 -11.69,0.01 -25.35,-3.82 -40.4,-13.76 l 3.97,-6.02 0.1,7.21 c -0.04,0 -17.47,0.25 -35.45,0.53 -17.97,0.27 -36.46,0.55 -38.42,0.58 h -0.04 l -0.07,-5.5 2.17,5.09 c -0.24,0.08 -0.71,0.36 -2.1,0.41 l -0.07,-5.5 2.17,5.09 -0.77,-1.8 0.91,1.74 -0.14,0.06 -0.77,-1.8 0.91,1.74 c -0.12,0.02 -1.83,1.2 -3.88,2.65 -6.37,4.39 -18.02,12.14 -33.57,12.18 -11.41,0.04 -24.43,-4.47 -37.33,-16.17 l 4.82,-5.35 0.08,7.2 -80.27,0.87 -0.08,-7.2 5.32,4.85 c -0.31,0.33 -3.59,3.92 -9.44,7.57 -5.83,3.62 -14.36,7.38 -24.89,7.39 -9.64,0.03 -20.72,-3.31 -31.83,-11.91 l 4.39,-5.71 0.11,7.21 -48.98,0.75 2.83,65.28 -7.2,0.32 4.9,-5.28 c 0.26,0.25 4.85,4.52 9.55,11.46 4.67,6.95 9.68,16.68 9.73,28.21 0.01,5.33 -1.15,11.01 -3.93,16.49 -2.78,5.5 -7.11,10.75 -13.14,15.56 l -4.49,-5.63 7.2,-0.31 2.65,62.13 -7.2,0.31 5,-5.17 c 0.29,0.27 4.54,4.39 8.86,11.3 4.31,6.91 8.83,16.73 8.86,28.47 0.06,10.75 -4.13,22.84 -14.79,33.85 l -5.19,-4.99 7.2,-0.19 2.16,80.66 0.04,1.31 -7.19,0.21 -0.11,-7.2 0.11,7.2 -7.2,0.21 -0.04,-1.32 -2.25,-83.69 2.08,-2.17 c 8.38,-8.83 10.72,-16.65 10.78,-23.88 0.02,-7.86 -3.21,-15.34 -6.67,-20.83 -1.7,-2.74 -3.43,-4.96 -4.71,-6.46 l -1.5,-1.68 -0.38,-0.38 -0.07,-0.08 0.85,-0.87 -0.84,0.88 -0.01,-0.01 0.85,-0.87 -0.84,0.88 -2.07,-2 -2.94,-68.65 2.87,-2.28 c 4.68,-3.75 7.54,-7.38 9.26,-10.8 1.72,-3.43 2.39,-6.69 2.4,-10 0.05,-7.06 -3.43,-14.53 -7.26,-20.14 -1.89,-2.79 -3.81,-5.1 -5.23,-6.68 l -1.68,-1.79 -0.43,-0.42 -0.09,-0.09 -2.17,-2.01 -3.58,-83.03 66.3,-1.02 1.99,1.53 c 9.03,6.91 16.6,8.89 23.04,8.92 7.01,0 12.98,-2.54 17.27,-5.22 2.14,-1.33 3.82,-2.67 4.93,-3.64 l 1.21,-1.12 0.27,-0.27 h 0.01 l 2.11,-2.32 86.22,-0.94 2.09,1.89 c 10.91,9.76 19.95,12.41 27.68,12.46 7.73,0 14.59,-2.93 20.05,-6.16 2.73,-1.62 5.04,-3.27 7,-4.64 1,-0.7 1.88,-1.31 2.87,-1.91 l 1.75,-0.91 c 0.73,-0.28 1.63,-0.68 3.36,-0.73 h -0.04 c 4.03,-0.08 73.91,-1.12 73.92,-1.12 l 2.21,-0.04 1.86,1.22 c 13.21,8.69 23.92,11.38 32.47,11.39 9.94,-0.01 17.4,-3.68 22.6,-7.45 2.57,-1.88 4.53,-3.77 5.8,-5.15 l 1.4,-1.6 0.29,-0.38 0.04,-0.06 2.27,1.65 -2.29,-1.61 0.02,-0.04 2.27,1.65 -2.29,-1.61 2.11,-3.01 50.88,-0.78 0.42,8.26 0.01,0.09 2.22,83.76 -2.07,2.17 c -8.37,8.83 -10.69,16.65 -10.75,23.87 -0.03,7.87 3.19,15.34 6.64,20.83 1.71,2.74 3.45,4.96 4.72,6.46 l 1.49,1.67 0.37,0.39 0.08,0.08 -0.87,0.87 0.86,-0.88 0.01,0.01 -0.87,0.87 0.86,-0.88 2.06,1.99 3,68.67 -2.87,2.28 c -4.69,3.75 -7.54,7.38 -9.28,10.8 -1.72,3.43 -2.38,6.69 -2.39,9.99 -0.05,7.06 3.43,14.53 7.26,20.13 1.89,2.79 3.81,5.1 5.23,6.68 l 1.68,1.79 0.44,0.42 0.09,0.09 2.15,2.01 3.63,82.92 -57.2,2.04 -2.06,-1.58 c -9.05,-6.93 -17.71,-9.08 -25.79,-9.11 -8.5,-0.01 -16.36,2.59 -22.05,5.28 -2.84,1.34 -5.13,2.68 -6.66,3.66 l -1.73,1.15 -0.39,0.29 -0.08,0.06 -0.94,-1.25 0.96,1.23 -0.02,0.02 -0.94,-1.25 0.96,1.23 -1.9,1.47 -72.09,1.11 -1.97,-1.48 c -14.97,-11.16 -26.34,-14.31 -34.85,-14.32 -8.46,0.01 -14.67,3.09 -19.5,6.45 -2.39,1.69 -4.37,3.41 -6.08,4.89 -0.86,0.75 -1.64,1.43 -2.58,2.13 l -1.8,1.12 c -0.78,0.37 -1.84,0.9 -3.74,0.96 -1.98,0.02 -22.41,0.33 -42.3,0.64 -19.9,0.3 -39.25,0.59 -39.29,0.59 l -3.08,0.05 -2.16,-2.19 c -9.08,-9.13 -16.16,-11.42 -21.77,-11.46 -6.42,-0.04 -12.25,3.4 -16.64,7.37 -2.16,1.95 -3.9,3.96 -5.05,5.43 l -1.28,1.74 -0.3,0.43 -0.05,0.09 -1.39,-0.89 1.4,0.87 -0.01,0.02 -1.39,-0.89 1.4,0.87 -2.08,3.34 -67.47,1.04 -0.21,-7.1 7.2,-0.21" /><path
         id="path94"
         style="fill:#00adef;fill-opacity:1;fill-rule:nonzero;stroke:none"
         d="m 1719.31,2102.13 c 0,-67.82 -54.98,-122.81 -122.8,-122.81 -67.82,0 -122.8,54.99 -122.8,122.81 0,67.81 54.98,122.78 122.8,122.78 67.82,0 122.8,-54.97 122.8,-122.78" /><path
         id="path96"
         style="fill:#00adef;fill-opacity:1;fill-rule:nonzero;stroke:none"
         d="m 1719.31,2102.13 h -8.73 c -0.01,-31.53 -12.76,-59.99 -33.42,-80.67 -20.67,-20.65 -49.12,-33.41 -80.65,-33.41 -31.52,0 -59.99,12.76 -80.66,33.41 -20.65,20.68 -33.4,49.14 -33.41,80.67 0.01,31.52 12.76,59.98 33.41,80.64 20.67,20.65 49.14,33.4 80.66,33.41 31.53,-0.01 59.98,-12.76 80.66,-33.41 20.65,-20.66 33.4,-49.12 33.41,-80.64 h 8.73 8.73 c -0.01,72.64 -58.89,131.5 -131.53,131.51 -72.64,-0.01 -131.52,-58.87 -131.53,-131.51 0.01,-72.64 58.88,-131.54 131.53,-131.54 72.65,0 131.52,58.9 131.53,131.54 h -8.73" /><path
         id="path98"
         style="fill:#231f20;fill-opacity:1;fill-rule:nonzero;stroke:none"
         d="m 1655.63,2093.01 c 0,-34.31 -27.82,-62.13 -62.15,-62.13 -34.33,0 -62.16,27.82 -62.16,62.13 0,34.35 27.83,62.16 62.16,62.16 34.33,0 62.15,-27.81 62.15,-62.16" /><path
         id="path100"
         style="fill:#231f20;fill-opacity:1;fill-rule:nonzero;stroke:none"
         d="m 1655.63,2093.01 h -12.13 c -0.01,-13.85 -5.58,-26.27 -14.65,-35.36 -9.09,-9.07 -21.52,-14.64 -35.37,-14.65 -13.86,0.01 -26.29,5.58 -35.38,14.65 -9.07,9.09 -14.65,21.51 -14.65,35.36 0,13.87 5.58,26.29 14.65,35.38 9.09,9.07 21.52,14.65 35.38,14.65 13.86,0 26.29,-5.58 35.37,-14.64 9.07,-9.1 14.64,-21.52 14.65,-35.39 h 12.13 12.12 c 0,41.04 -33.24,74.28 -74.27,74.29 -41.03,-0.01 -74.28,-33.24 -74.29,-74.29 0.01,-41.02 33.26,-74.26 74.29,-74.26 41.03,0 74.26,33.25 74.27,74.26 h -12.12" /><path
         id="path102"
         style="fill:#ffffff;fill-opacity:1;fill-rule:nonzero;stroke:none"
         d="m 1678.37,2130.91 c 0,-17.57 -14.25,-31.81 -31.84,-31.81 -17.58,0 -31.83,14.24 -31.83,31.81 0,17.59 14.25,31.84 31.83,31.84 17.59,0 31.84,-14.25 31.84,-31.84" /><path
         id="path104"
         style="fill:#00adef;fill-opacity:1;fill-rule:nonzero;stroke:none"
         d="m 2212.39,2090.27 c 0,-67.82 -54.97,-122.79 -122.79,-122.79 -67.8,0 -122.78,54.97 -122.78,122.79 0,67.8 54.98,122.79 122.78,122.79 67.82,0 122.79,-54.99 122.79,-122.79" /><path
         id="path106"
         style="fill:#00adef;fill-opacity:1;fill-rule:nonzero;stroke:none"
         d="m 2212.39,2090.27 h -8.73 c -0.01,-31.53 -12.75,-59.98 -33.41,-80.66 -20.66,-20.65 -49.13,-33.4 -80.65,-33.4 -31.51,0 -59.97,12.75 -80.64,33.4 -20.66,20.68 -33.4,49.13 -33.41,80.66 0.01,31.52 12.75,59.98 33.41,80.65 20.67,20.65 49.13,33.41 80.64,33.41 31.52,0 59.99,-12.76 80.65,-33.41 20.66,-20.67 33.4,-49.13 33.41,-80.65 h 8.73 8.73 c -0.01,72.62 -58.87,131.52 -131.52,131.52 -72.63,0 -131.5,-58.89 -131.51,-131.52 0,-72.65 58.88,-131.52 131.51,-131.52 72.65,0 131.52,58.87 131.52,131.52 h -8.73" /><path
         id="path108"
         style="fill:#231f20;fill-opacity:1;fill-rule:nonzero;stroke:none"
         d="m 2148.73,2081.17 c 0,-34.32 -27.83,-62.16 -62.15,-62.16 -34.33,0 -62.16,27.84 -62.16,62.16 0,34.32 27.83,62.17 62.16,62.17 34.32,0 62.15,-27.85 62.15,-62.17" /><path
         id="path110"
         style="fill:#231f20;fill-opacity:1;fill-rule:nonzero;stroke:none"
         d="m 2148.73,2081.17 h -12.13 c 0,-13.85 -5.57,-26.28 -14.65,-35.37 -9.1,-9.08 -21.52,-14.66 -35.37,-14.66 -13.86,0 -26.29,5.58 -35.38,14.66 -9.07,9.09 -14.65,21.52 -14.65,35.37 0,13.85 5.58,26.29 14.65,35.38 9.09,9.08 21.52,14.65 35.38,14.66 13.85,-0.01 26.27,-5.58 35.36,-14.66 9.09,-9.09 14.66,-21.53 14.66,-35.38 h 12.13 12.13 c -0.01,41.03 -33.25,74.28 -74.28,74.29 -41.04,-0.01 -74.28,-33.27 -74.29,-74.29 0.01,-41.03 33.25,-74.28 74.29,-74.29 41.03,0.01 74.27,33.26 74.28,74.29 h -12.13" /><path
         id="path112"
         style="fill:#ffffff;fill-opacity:1;fill-rule:nonzero;stroke:none"
         d="m 2171.47,2119.07 c 0,-17.58 -14.26,-31.84 -31.84,-31.84 -17.58,0 -31.84,14.26 -31.84,31.84 0,17.59 14.26,31.84 31.84,31.84 17.58,0 31.84,-14.25 31.84,-31.84" /><path
         id="path114"
         style="fill:#231f20;fill-opacity:1;fill-rule:nonzero;stroke:none"
         d="m 2329.2,2438.87 c 0,0 -106.57,253.59 -407.93,172.75 0,0 334.43,271.93 407.93,-172.75" /><path
         id="path116"
         style="fill:#231f20;fill-opacity:1;fill-rule:nonzero;stroke:none"
         d="m 2329.2,2438.87 7.31,3.08 c -0.26,0.58 -20.44,48.57 -68.21,96.84 -47.69,48.24 -123.55,96.72 -233.54,96.67 -35.04,0 -73.5,-4.89 -115.55,-16.18 l 2.06,-7.66 5.01,-6.16 1.05,0.84 c 5.48,4.32 31.77,24.39 68.42,43.27 36.63,18.91 83.63,36.46 130.06,36.42 40.55,-0.09 80.48,-12.92 115.17,-49.99 34.65,-37.12 64.02,-99.34 80.39,-198.42 l 7.83,1.29 7.31,3.08 -7.31,-3.08 7.83,1.29 c -16.7,100.95 -46.8,166.26 -84.44,206.67 -37.63,40.44 -82.86,55.13 -126.78,55.03 -53.78,-0.04 -105.89,-21.21 -144.77,-42.1 -38.87,-20.93 -64.52,-41.78 -64.78,-41.99 l 7.07,-13.82 c 40.82,10.95 77.86,15.64 111.43,15.64 105.16,-0.05 176.52,-45.89 222.26,-91.98 22.82,-23.04 39.11,-46.13 49.65,-63.4 5.27,-8.63 9.11,-15.81 11.61,-20.79 1.25,-2.49 2.16,-4.44 2.76,-5.74 l 0.66,-1.45 0.18,-0.43 15.15,4.36 -7.83,-1.29" /><path
         id="path118"
         style="fill:#231f20;fill-opacity:1;fill-rule:nonzero;stroke:none"
         d="m 2087.85,756.379 c -73.54,-138.438 -105.88,-282.777 -78.14,-439.59 1.3,-7.348 11.95,-7.988 17.41,-6.539 183.94,48.82 402.86,1.219 467.39,-197.52 6.53,4.969 13.05,9.95 19.56,14.922 -250.1,21.778 -500.19,43.578 -750.3,65.368 3.03,-4.301 6.05,-8.59 9.07,-12.891 27.58,61.902 84.35,108.402 146.02,133.082 3.8,1.519 7.97,5.73 8.24,10.031 9.4,145.59 -3.23,308.758 -69.81,440.227 -6.14,12.14 -33.83,1.023 -26.67,-13.098 61.76,-121.98 71.43,-268.832 67.93,-403.43 -0.16,-6.332 -0.43,-12.652 -0.73,-18.972 -0.53,-11.367 0.52,0.363 -6.15,-2.309 -30.05,-12.019 -57.12,-31.969 -80.98,-53.461 -26.71,-24.058 -51.15,-55.187 -65.9,-88.277 -2.91,-6.531 2.62,-12.332 9.07,-12.891 250.1,-21.789 500.2,-43.582 750.31,-65.383 7.33,-0.628 22.94,4.504 19.56,14.922 -69.14,212.899 -305.53,262.77 -502.22,210.571 5.8,-2.18 11.62,-4.352 17.42,-6.532 -27.09,153.11 5.29,293.063 76.97,427.981 7.92,14.91 -21.75,15.652 -28.05,3.789" /><path
         id="path120"
         style="fill:#231f20;fill-opacity:1;fill-rule:nonzero;stroke:none"
         d="m 1641.71,1725.06 c 3.12,1.2 -92.51,-58.4 -217.46,-23.61 -124.53,38.48 -169.71,143.07 -168.41,139.39 6.6,8.05 57.47,-88.35 173.24,-123.13 115.86,-33.11 211.79,16.64 212.63,7.35" /><path
         id="path122"
         style="fill:#231f20;fill-opacity:1;fill-rule:nonzero;stroke:none"
         d="m 2007.3,1744.48 c -0.16,9.32 100.58,-29.8 212.19,15.62 111.35,47.06 151.53,148.38 158.96,141.09 0.9,3.8 -32.75,-105.05 -152.41,-156.74 -120.46,-48.06 -221.97,0.88 -218.74,0.03" /><path
         id="path124"
         style="fill:#231f20;fill-opacity:1;fill-rule:nonzero;stroke:none"
         d="m 1571.43,1727.49 c -94.1,0.01 -179.43,44.58 -241.53,116.15 -62.06,71.56 -100.58,170.02 -100.57,276.95 0,106.89 39.14,201.76 101.8,269.88 62.68,68.11 148.74,109.42 243.05,109.43 v 15.88 c -99.02,0 -189.36,-43.48 -254.74,-114.57 -65.4,-71.08 -105.99,-169.83 -105.99,-280.62 0.01,-110.76 39.84,-212.8 104.46,-287.35 64.59,-74.52 154.28,-121.63 253.52,-121.62 v 15.87" /><path
         id="path126"
         style="fill:#231f20;fill-opacity:1;fill-rule:nonzero;stroke:none"
         d="m 2323.48,2300 c 111.08,-4.73 222.16,-9.45 333.24,-14.16 74.44,-3.17 148.88,-6.33 223.31,-9.5 22.51,-0.95 45.02,-1.91 67.53,-2.86 5.92,-0.26 11.82,-0.51 17.73,-0.76 10.59,-0.45 -3.78,2.16 -3.61,4.96 -12.72,-215.03 -25.46,-430.07 -38.19,-645.1 -17.26,-291.37 -34.51,-582.75 -51.76,-874.119 6.44,3.18 12.9,6.348 19.34,9.527 -487.42,0 -974.85,0 -1462.28,0 -209.02,0 -418.05,0 -627.071,0 -22.36,0 -7.114,-6.847 -7.383,3.973 -0.684,27.629 -1.367,55.258 -2.051,82.879 -3.004,121.242 -6.008,242.47 -9.008,363.71 -9.582,386.81 -19.16,773.62 -28.742,1160.43 -6.453,-3.82 -12.91,-7.64 -19.359,-11.46 186.66,-7.94 373.324,-15.87 559.984,-23.81 10.33,-0.43 29.71,14.68 10.9,15.49 -186.66,7.93 -373.322,15.86 -559.986,23.79 -6.465,0.28 -19.566,-3.19 -19.359,-11.46 12.23,-493.73 24.457,-987.46 36.687,-1481.19 1.106,-44.598 2.207,-89.211 3.313,-133.809 0.082,-3.312 6.359,-4.019 8.461,-4.019 487.424,0 974.854,0 1462.284,0 214.24,0 428.48,0 642.72,0 4.9,0 18.93,2.547 19.34,9.539 28.68,484.339 57.36,968.689 86.04,1453.039 1.32,22.32 2.64,44.64 3.96,66.96 0.28,4.82 -4.48,5.78 -8.45,5.94 -215.56,9.16 -431.13,18.32 -646.69,27.48 -10.34,0.44 -29.72,-14.67 -10.9,-15.47" /><path
         id="path128"
         style="fill:#231f20;fill-opacity:1;fill-rule:nonzero;stroke:none"
         d="m 1890.63,1402.75 c 3.52,-1.58 -29.85,-44.52 -107.59,-68.6 -38.48,-11.27 -85.15,-22.99 -139.98,-16.77 -53.89,7.1 -108.74,31.98 -159.03,66.66 -108.75,63.43 -138.75,195.23 -223.35,196.17 -75.01,4.89 -113.49,-41.44 -115.05,-34.96 -1.48,-2.58 30.28,50.55 116.91,50.35 41.98,-2.87 88.55,-32.95 117.02,-77.84 29.19,-43.03 67.83,-82.24 116.93,-115.69 48.22,-33.28 100.01,-57.15 149.34,-64.68 48.78,-6.88 96.15,2.65 132.78,11.62 75.68,19.43 110.42,55.59 112.02,53.74" /><path
         id="path130"
         style="fill:#231f20;fill-opacity:1;fill-rule:nonzero;stroke:none"
         d="m 1363.13,1652.75 c -3.96,-7.48 -51.1,54.51 -129.28,36.09 -74.79,-19.94 -121.54,-71.73 -125.72,-66.09 -3.91,1.6 36.27,62.78 121.17,86.18 94.13,19.94 140.39,-58.74 133.83,-56.18" /><path
         id="path132"
         style="fill:#231f20;fill-opacity:1;fill-rule:nonzero;stroke:none"
         d="m 1765.63,1170.25 c 4.15,3.41 -26.54,-99.36 -143.52,-126.54 -116.06,-19.02 -190.06,51.81 -183.98,54.04 2.7,8.66 79.65,-45.55 178.67,-27.86 99.14,20.8 140.33,109.43 148.83,100.36" /><path
         id="path134"
         style="fill:#231f20;fill-opacity:1;fill-rule:nonzero;stroke:none"
         d="m 1655.63,1065.25 c 2.56,-0.18 -11.66,-37.54 -54.89,-55.12 -43.26,-17.161 -79.84,-0.31 -77.61,2.62 0.64,3.84 35.14,-5.42 72.62,9.83 37.58,14.76 56.01,45.84 59.88,42.67" /><path
         id="path136"
         style="fill:#231f20;fill-opacity:1;fill-rule:nonzero;stroke:none"
         d="m 1898.13,2287.75 c -2.97,-3.38 -34.82,38.38 -107.64,71.94 -71.84,34.77 -188.33,48.06 -299.36,-6 -111.72,-51.51 -173.72,-152.08 -201.89,-225.6 -29.35,-74.92 -32.83,-125.82 -36.11,-125.34 -2.3,-0.19 -4.04,51.98 22.58,130.32 25.16,76.54 88.52,184.54 206.71,239.06 116.03,56.86 242.16,40.49 314.27,0.58 74.55,-38.71 102.69,-84.82 101.44,-84.96" /><path
         id="path138"
         style="fill:#231f20;fill-opacity:1;fill-rule:nonzero;stroke:none"
         d="m 2350.63,2237.75 c -4.22,-7.16 -87.96,74.59 -220.64,106.93 -135.08,32.52 -239.65,-28.23 -239.36,-24.43 -6.82,3.7 100.63,75.49 243.23,41.49 139.29,-34.38 219,-124.24 216.77,-123.99" /><path
         id="path140"
         style="fill:#231f20;fill-opacity:1;fill-rule:nonzero;stroke:none"
         d="m 2910.31,1365.87 c 6.35,-36.11 18.59,-82.17 44.12,-127.9 23.61,-45.09 71.97,-90.13 127.64,-90.06 108.49,6.36 162.78,81.7 162.07,78.59 -2.46,8.13 -65.71,-60.46 -161.14,-60.31 -100.68,8.78 -136.68,143.66 -147.06,203.44 l -25.63,-3.76" /><path
         id="path142"
         style="fill:#231f20;fill-opacity:1;fill-rule:nonzero;stroke:none"
         d="m 2886.35,1038.47 c 24.18,-50.439 70.14,-75.099 129.8,-89.411 61.98,-10.469 122.52,18.863 166.56,52.571 90.55,69.24 124.89,159.52 119.6,160.51 -2.05,1.59 -42.55,-82.67 -131.62,-144.1 -42.57,-30.04 -100.44,-53.431 -149.99,-42.86 -50.42,7.922 -90.8,48.49 -110.83,66.23 0.54,0.06 -16.25,-2.03 -23.52,-2.94" /><path
         id="path144"
         style="fill:#231f20;fill-opacity:1;fill-rule:nonzero;stroke:none"
         d="m 743.949,1823.92 c -56.914,-43.34 -114.547,-85.81 -173.281,-126.65 -86.398,-60.06 -180.648,-81.68 -277.957,-117.36 -51.953,-19.06 -122.402,-59.67 -70.926,-120.43 23.344,-27.54 61.828,-38.95 89.52,-61.48 49.449,-40.25 92.613,-94.23 120.41,-151.47 5.789,-11.93 33.246,-3.72 27.82,7.45 -34.269,70.57 -91.066,143.83 -160.73,182.92 -35.758,20.07 -99.746,61.68 -46.836,101.83 35.008,26.57 85.668,36.45 126.922,49.09 81.445,24.94 150.339,55.56 220.269,104.17 55.348,38.48 109.516,78.76 163.141,119.6 15.054,11.46 -7.578,20.54 -18.352,12.33" /><path
         id="path146"
         style="fill:#231f20;fill-opacity:1;fill-rule:nonzero;stroke:none"
         d="m 578.715,1250.85 c -32.113,26.39 -79.785,83.91 -89.004,144.79 -11.398,60.66 14.328,106.82 17.391,103.88 3.171,-0.57 -14.215,-46.23 0.773,-99.85 12.738,-53.89 57.813,-103.9 88.059,-128.92 4.379,-4.06 -12.805,-23.95 -17.219,-19.9" /><path
         id="path148"
         style="fill:#231f20;fill-opacity:1;fill-rule:nonzero;stroke:none"
         d="m 753.359,1528.24 c -43.296,0.17 -116.031,-5.81 -171.496,-31.65 -56.84,-24.05 -87.945,-66.79 -90.347,-65.55 -4.946,1.92 22.136,52.61 81.101,83.61 57.363,32.74 135.141,42.51 180.485,42.28 7.058,0.24 6.25,-28.48 0.257,-28.69" /><path
         id="path150"
         style="fill:#231f20;fill-opacity:1;fill-rule:nonzero;stroke:none"
         d="M 552.52,1185.23 C 412.816,1195.72 320.625,1053.5 283.738,939.012 c 7.602,2.027 15.203,4.07 22.805,6.109 C 239.707,1018.04 135.41,1064.92 44.5117,1008.2 7.71094,985.238 -17.3008,931.102 14.6563,894.762 27.8672,879.75 55.5898,875.309 73.9141,872.59 c 47.3399,-7.031 95.0549,-9.219 141.1519,-23.059 54.657,-16.422 126.891,-99.851 190.102,-75.359 22.035,8.527 30.359,27.418 44.891,44.988 24.593,29.762 54.175,55.641 83.55,80.5 31.844,26.949 65.946,51.289 101.442,73.16 28.308,17.45 60.726,22.059 88.605,37.26 40.668,22.17 35.41,71.56 5.387,102.54 -6.449,6.65 -28.941,-2.4 -21.836,-9.73 14.465,-14.92 21.941,-34.45 22.445,-55.16 0.641,-26.43 -32.316,-29 -50.254,-36.24 -44.101,-17.779 -83.824,-44.439 -121.953,-72.529 -40.476,-29.82 -78.636,-63.262 -113.3,-99.66 -11.114,-11.672 -21.274,-24.172 -30.668,-37.242 -26.02,-36.227 -87.047,9.121 -113.926,24.863 -50.93,29.816 -94.805,45.668 -153.598,52.949 -56.1092,6.961 -161.8514,13.16 -107.785,98.371 59.8281,94.268 192.586,16.02 246.539,-42.851 5.863,-6.403 20.359,-1.461 22.805,6.109 31.965,99.22 111.703,238.13 236.218,228.78 10.059,-0.76 24.817,13.75 8.79,14.95" /><path
         id="path152"
         style="fill:#231f20;fill-opacity:1;fill-rule:nonzero;stroke:none"
         d="m 24.4727,984.379 h 2.5 c 3.5234,0 13.3437,1.75 13.3437,6.961 0,11.05 -12.4492,22.84 -15.6289,35.2 -17.13281,66.62 58.2188,83.8 109.4685,76.36 77.012,-11.18 128.715,-80.2 149.313,-150.228 2.156,-7.352 21.437,-2.063 19.312,5.168 -27.504,93.55 -103.23,163.77 -204.406,160 -36.9609,-1.38 -64.8789,-10.19 -85.9687,-41.92 -8.5938,-12.93 -9.83208,-29.34 -8.75005,-44.25 0.95703,-13.23 17.27735,-33.272 17.27735,-42.51 4.4492,2.32 8.8945,4.649 13.3437,6.969 h -2.5 c -7.7382,0 -20.375,-11.75 -7.3046,-11.75" /><path
         id="path154"
         style="fill:#231f20;fill-opacity:1;fill-rule:nonzero;stroke:none"
         d="m 115.281,1111.47 c 7.324,24.43 -2.976,36.1 26.328,55.95 37.637,25.49 84.567,2.05 107.539,-28.44 19.172,-25.44 35.723,-53.38 44.969,-83.81 1.332,-4.4 14.274,-52.86 13.77,-53.35 -7.989,-8 11.019,-7.582 15.476,-3.129 11.973,11.979 -13.402,73.209 -18.082,86.649 -12.195,35.04 -44.484,81.07 -79.515,95.41 -23.411,9.59 -61.52,10.23 -84.364,-1.58 -15.086,-7.8 -25.91,-14.89 -35.507,-28.77 -9.7231,-14.06 -5.657,-27.14 -9.9262,-41.37 -2.0391,-6.8 17.3672,-4.05 19.3122,2.44" /><path
         id="path156"
         style="fill:#231f20;fill-opacity:1;fill-rule:nonzero;stroke:none"
         d="m 438.98,1154.67 -0.14,-0.39 0.152,0.39 h -0.012 l -0.14,-0.39 0.152,0.39 c -0.656,0.25 -6.199,2.55 -12.66,8.15 -6.465,5.62 -13.883,14.43 -18.777,28.26 -0.582,1.65 -0.856,3.29 -0.86,5.06 -0.031,4.73 2.211,10.82 7.707,17.47 8.164,9.95 23.313,20.43 43.672,28.1 20.36,7.7 45.871,12.74 74.774,12.73 25.898,0 54.519,-4.02 84.718,-13.71 65.446,-20.97 98.532,-41.17 115.305,-56.85 8.406,-7.86 12.817,-14.51 15.559,-19.99 2.746,-5.55 3.742,-9.82 5.207,-14.3 0.918,-2.69 1.824,-7.68 1.801,-13.14 0.027,-7.54 -1.633,-16 -5.641,-22.5 -4.082,-6.48 -9.895,-11.53 -21.137,-13.89 l 3.93,-19.61 c 16.226,3.13 27.824,12.29 34.281,23.09 6.535,10.79 8.551,22.68 8.567,32.91 -0.012,7.52 -1.067,14.14 -2.825,19.47 -1.035,3.02 -2.539,9.37 -6.273,16.87 -5.625,11.39 -16.43,25.39 -38.074,40.15 -21.68,14.8 -54.278,30.69 -104.582,46.83 -32.176,10.33 -62.868,14.67 -90.836,14.67 -41.637,-0.02 -77.184,-9.57 -102.95,-23.68 -12.882,-7.08 -23.359,-15.29 -30.91,-24.41 -7.504,-9.09 -12.265,-19.34 -12.293,-30.21 0,-3.95 0.66,-7.92 2,-11.72 6.543,-18.58 17.203,-30.78 26.266,-38.16 9.078,-7.41 16.527,-10.14 17.309,-10.43 l 6.71,18.84" /><path
         id="path158"
         style="fill:#231f20;fill-opacity:1;fill-rule:nonzero;stroke:none"
         d="m 3357.07,1379.12 c -19.89,28.37 -30.2,64.95 -42.71,97.06 -21.99,56.41 -19.18,106.03 49.49,118.06 33.77,5.93 82.78,-6.06 77.55,41.1 -3.86,34.71 -26.28,75.46 -22.3,109.65 7.2,61.65 37.56,138.45 124.2,107.02 86.33,-31.32 81.43,-193.26 28.27,-251.2 -7.82,-8.52 11.02,-8.62 15.61,-3.61 60.48,65.91 55.79,200.99 -14.68,256.41 -60.28,47.41 -161.28,-8.41 -168.87,-78.37 -5.55,-51.14 6.09,-94.5 18.45,-145.07 6.82,-27.92 -39.51,-22.4 -55.76,-24.62 -15.6,-2.14 -30.52,-6.43 -45.13,-12.17 -24.95,-9.81 -42.19,-33.46 -40.22,-60.71 3.71,-51.49 28.3,-118.62 58.21,-161.28 3.96,-5.66 22.66,0.94 17.89,7.73" /><path
         id="path160"
         style="fill:#231f20;fill-opacity:1;fill-rule:nonzero;stroke:none"
         d="m 3596.1,1583.02 c 20.61,3.34 39.51,-1.65 59.9,6.98 26.63,11.28 50.64,24.66 72.33,43.94 22.11,19.65 35.94,47.54 56.76,68.58 42.07,42.49 89.96,5.79 102.33,-34.48 4.92,-15.99 5.17,-33.7 5.55,-50.26 0.17,-8.09 28.05,-2.82 27.81,7.45 -1.74,77.2 -37.79,120.12 -116.89,104 -24.96,-5.09 -44.01,-24.71 -59.69,-43.24 -16.1,-19.02 -28.27,-39.52 -47.14,-56.29 -27.38,-24.34 -62.69,-26.66 -96.91,-32.21 -12.86,-2.09 -23.33,-17.6 -4.05,-14.47" /><path
         id="path162"
         style="fill:#231f20;fill-opacity:1;fill-rule:nonzero;stroke:none"
         d="m 3659.45,1493.9 c 55.52,-21.85 109.51,16.93 152.92,47.05 46.42,32.17 96,108.94 156.61,46.29 35.3,-36.49 3.42,-105.11 -29.37,-130.23 -12.26,-9.4 15.68,-8.37 22.03,-3.51 60.61,46.45 70.07,148.03 -14.3,172.13 -28.8,8.23 -57.61,-1.94 -82.11,-16.6 -50.73,-30.37 -111.7,-130.67 -183.43,-102.42 -7.68,3.02 -33.11,-8.47 -22.35,-12.71" /><path
         id="path164"
         style="fill:#231f20;fill-opacity:1;fill-rule:nonzero;stroke:none"
         d="m 3434.22,1259.03 c 42.9,-120.74 284.89,-110.59 290.31,27.45 0.26,6.55 -27.43,2.22 -27.81,-7.45 -4.83,-122.8 -199.1,-112.68 -234.69,-12.55 -2.97,8.38 -30.51,0.13 -27.81,-7.45" /><path
         id="path166"
         style="fill:#231f20;fill-opacity:1;fill-rule:nonzero;stroke:none"
         d="m 3689.43,1406.47 c 70.38,-35.04 157.76,51.15 230.57,45.92 37.06,-2.66 55.02,-34.77 53.76,-67.83 -1,-25.97 -24.56,-47.1 -42.93,-62.19 -45.78,-37.59 -153.66,-71.22 -208.48,-30.66 -7.31,5.41 -32.49,-5.58 -25.95,-10.41 39.31,-29.1 103.83,-21.01 149.01,-11.53 56.19,11.81 114.72,42.77 146.36,91.75 31.46,48.71 -6.95,94.19 -54.4,104.72 -27.94,6.2 -61.26,-3.15 -87.72,-11.06 -38.86,-11.62 -96.45,-56.75 -137.83,-36.15 -7.28,3.62 -32.98,-7.28 -22.39,-12.56" /><path
         id="path168"
         style="fill:#231f20;fill-opacity:1;fill-rule:nonzero;stroke:none"
         d="m 3570.1,1586.07 c 62.25,-25.3 90.53,-112.26 52.39,-170.29 -6.81,-10.36 11.2,-13.75 16.27,-6.05 43.25,65.82 13.98,160.62 -57.61,189.71 -8.46,3.44 -22.53,-8.71 -11.05,-13.37" /><path
         id="path170"
         style="fill:#231f20;fill-opacity:1;fill-rule:nonzero;stroke:none"
         d="m 3338.13,1386.5 c -0.16,-6.89 -38.69,20.25 -89.74,2.3 -54.55,-24.82 -36.04,-126.11 22.37,-187.3 57.5,-63.15 143.53,-97.69 193.91,-77.33 49.49,27.08 25.35,79.97 33.46,76.08 1.16,0.29 5.25,-8.36 7.32,-25.61 2.97,-15.52 -1.65,-49.48 -33.59,-65.11 -63.07,-28.62 -154.81,8.26 -218.32,76.61 -62.71,64.27 -86.59,184.76 -11.89,217.52 66.47,16.77 97.55,-19.32 96.48,-17.16" /><path
         id="path172"
         style="fill:#231f20;fill-opacity:1;fill-rule:nonzero;stroke:none"
         d="m 3424.38,1276.5 c -0.65,-2.76 -26.04,5.79 -45,30.56 -18.87,24.21 -25.4,48.5 -22.5,49.44 2.91,1.17 13.72,-19.96 31.29,-42.46 17.43,-22.79 37.56,-34.3 36.21,-37.54" /></g></g></svg>