<?xml version="1.0" standalone="no"?>
<!DOCTYPE svg PUBLIC "-//W3C//DTD SVG 20010904//EN"
 "http://www.w3.org/TR/2001/REC-SVG-20010904/DTD/svg10.dtd">
<svg version="1.0" xmlns="http://www.w3.org/2000/svg"
 width="402.000000pt" height="281.000000pt" viewBox="0 0 402.000000 281.000000"
 preserveAspectRatio="xMidYMid meet">
<metadata>
Created by potrace 1.15, written by Peter Selinger 2001-2017
</metadata>
<g transform="translate(0.000000,281.000000) scale(0.100000,-0.100000)"
fill="#000000" stroke="none">
<path d="M1443 2800 c-70 -16 -119 -70 -152 -167 -36 -106 -26 -119 31 -43 45
60 116 106 185 120 51 11 131 8 168 -6 9 -4 15 0 15 9 0 19 -130 84 -180 90
-19 2 -50 1 -67 -3z"/>
<path d="M1999 2673 c-41 -21 -72 -42 -69 -48 3 -5 12 -9 20 -7 8 2 49 4 90 4
113 2 204 -44 262 -133 17 -27 35 -46 39 -43 19 12 -25 145 -67 199 -58 77
-158 87 -275 28z"/>
<path d="M1499 2516 c-62 -16 -129 -57 -171 -104 l-36 -40 -272 12 c-149 6
-275 9 -279 6 -5 -3 -5 -129 -1 -280 5 -151 5 -278 1 -281 -3 -4 -44 -35 -91
-69 -93 -69 -180 -113 -307 -154 -148 -49 -173 -110 -69 -171 48 -28 130 -111
147 -149 9 -20 8 -27 -10 -45 -25 -25 -25 -28 -8 -61 12 -23 10 -29 -29 -77
l-42 -51 -17 43 c-22 58 -75 105 -119 105 -36 0 -86 -32 -86 -56 0 -8 -9 -14
-19 -14 -27 0 -81 -48 -81 -72 0 -10 5 -29 11 -40 8 -14 8 -23 0 -31 -16 -16
-14 -72 3 -86 8 -7 57 -19 108 -27 75 -12 106 -23 159 -55 92 -55 111 -53 184
22 68 69 163 139 215 159 19 7 45 22 57 33 l22 20 3 -144 3 -144 297 -3 297
-2 31 -82 c49 -127 70 -263 54 -345 -6 -29 -7 -30 -42 -22 -118 27 -275 -3
-359 -69 -45 -37 -112 -136 -99 -149 7 -7 776 24 784 32 18 17 -70 125 -119
145 l-30 13 6 71 c12 129 43 258 80 333 l36 73 63 0 64 0 16 -41 c27 -68 44
-157 52 -269 l6 -106 -25 -11 c-55 -25 -151 -132 -134 -149 9 -9 762 -72 775
-65 19 11 -31 102 -80 147 -22 20 -66 48 -97 63 -51 24 -67 26 -176 26 -68 0
-123 4 -127 10 -11 15 -10 113 3 181 6 32 24 94 41 137 l29 77 393 0 393 0 7
53 c3 28 6 82 6 120 0 61 9 83 25 57 3 -5 30 -17 58 -25 47 -14 58 -14 104 0
57 17 146 90 183 150 l21 35 39 -20 c22 -11 59 -20 84 -20 36 0 48 5 65 26 12
15 21 33 21 41 0 12 9 13 39 8 57 -9 114 10 150 50 26 30 37 35 74 35 142 0
278 113 214 177 -14 14 -13 19 4 47 27 44 25 91 -6 121 -13 14 -33 25 -45 25
-14 0 -20 6 -20 24 0 13 -9 35 -21 50 -17 21 -29 26 -67 26 -43 0 -50 -4 -98
-55 -34 -37 -64 -59 -89 -66 -20 -6 -39 -9 -41 -6 -2 2 3 20 11 40 42 101 -10
227 -94 227 -46 0 -98 -32 -112 -68 -6 -15 -8 -51 -5 -82 13 -113 15 -103 -31
-111 -58 -11 -82 -25 -89 -56 -6 -24 4 -86 21 -125 6 -15 2 -18 -29 -18 -70 0
-101 -62 -72 -144 17 -47 17 -50 -1 -60 -36 -22 -79 -34 -117 -35 -33 -1 -45
5 -77 39 -26 27 -44 60 -55 98 -16 54 -16 79 10 515 15 252 26 460 24 462 -2
3 -150 11 -328 19 l-323 14 -26 34 c-44 56 -84 89 -141 117 -100 48 -244 32
-321 -35 -14 -13 -23 -10 -68 21 -91 61 -191 79 -292 51z m221 -42 c51 -23
140 -97 140 -116 0 -5 -17 3 -37 16 -53 35 -122 50 -201 43 -158 -12 -291
-122 -342 -284 l-19 -58 0 45 c-1 56 22 146 50 202 31 61 110 133 171 157 77
29 168 28 238 -5z m440 -15 c24 -11 59 -31 76 -44 30 -23 94 -109 94 -127 0
-4 -19 6 -42 22 -97 68 -237 89 -336 52 l-48 -19 -23 35 c-26 39 -27 39 54 78
65 31 160 33 225 3z m-372 -89 c111 -49 142 -104 142 -250 0 -163 -82 -296
-220 -357 -55 -25 -174 -23 -232 4 -74 34 -140 103 -178 184 l-32 71 16 62
c33 121 104 215 205 269 92 51 208 57 299 17z m-572 -16 l62 -6 -25 -55 c-48
-104 -40 -260 18 -375 34 -66 126 -151 189 -176 64 -24 36 -30 -34 -6 -27 9
-70 37 -102 66 -30 28 -57 49 -59 46 -10 -9 68 -89 111 -114 59 -34 144 -41
246 -20 96 20 119 29 173 66 l44 30 48 -30 c75 -47 218 -64 317 -39 57 14 133
74 164 129 l25 45 -54 -56 c-30 -31 -73 -66 -96 -78 -58 -29 -63 -26 -17 7 90
65 149 163 164 272 9 64 -2 171 -21 214 -7 14 -10 28 -8 29 4 4 601 -21 605
-25 1 -2 -18 -331 -42 -733 -24 -401 -44 -738 -44 -747 0 -17 -56 -18 -1034
-18 l-1035 0 -5 53 c-4 47 -37 1372 -36 1491 l0 49 193 -7 c105 -4 220 -9 253
-12z m958 -14 c77 -26 163 -76 178 -103 7 -13 12 -61 12 -112 0 -112 -25 -182
-91 -255 -68 -75 -130 -104 -223 -104 -62 0 -84 4 -127 27 -28 14 -54 31 -58
37 -3 5 5 25 19 42 41 54 68 136 73 224 6 80 4 89 -40 231 -4 13 76 31 139 32
36 1 84 -7 118 -19z m1375 -481 c42 -15 65 -60 65 -129 1 -40 -6 -66 -21 -93
l-22 -37 23 -16 c14 -8 32 -31 41 -51 14 -30 15 -42 6 -73 -13 -45 -14 -50 -3
-50 11 0 32 46 32 69 0 15 8 19 34 19 41 0 74 17 150 76 32 25 67 46 77 46 28
0 59 -36 59 -68 0 -46 -23 -68 -79 -75 -27 -3 -68 -15 -90 -26 -22 -12 -58
-21 -81 -21 -22 0 -40 -4 -40 -10 0 -18 76 -10 138 15 72 29 99 31 124 8 60
-54 -40 -152 -157 -153 -27 0 -56 4 -64 9 -21 13 -41 2 -41 -23 0 -29 -38 -64
-78 -72 -42 -9 -115 19 -136 52 -17 24 -46 33 -46 13 0 -6 14 -24 30 -41 17
-16 30 -37 30 -45 0 -26 -31 -53 -59 -53 -36 1 -110 36 -144 68 -60 57 -86
152 -51 186 18 19 67 21 94 4 22 -14 38 -4 22 14 -5 7 -20 41 -31 75 -30 89
-14 123 58 123 15 0 36 6 46 14 18 13 18 18 6 79 -15 78 -4 125 36 157 30 23
30 23 72 9z m-2799 -174 c0 -104 -2 -115 -18 -115 -38 0 -135 -31 -170 -55
-26 -18 -38 -21 -43 -13 -12 19 -24 -20 -23 -73 0 -31 9 -61 27 -92 l27 -45
-42 -7 c-32 -6 -43 -4 -50 8 -24 44 -78 105 -118 133 -131 94 -126 115 38 165
98 30 196 81 287 148 44 33 81 60 83 60 1 1 2 -51 2 -114z m3125 20 c25 -24
35 -75 15 -75 -5 0 -35 -23 -66 -50 -88 -80 -136 -87 -172 -26 l-19 33 36 13
c20 7 62 39 93 71 32 33 65 59 73 59 9 0 27 -11 40 -25z m-3115 -341 l0 -151
-52 26 c-29 14 -67 31 -85 37 -36 13 -88 80 -103 132 -11 43 1 61 65 92 50 24
157 41 167 25 4 -5 8 -78 8 -161z m2253 -178 c46 -36 114 -35 181 0 l49 26 29
-29 29 -30 -49 -54 c-90 -98 -185 -132 -265 -94 -59 28 -60 32 -52 162 l7 118
19 -37 c10 -20 34 -48 52 -62z m-2341 46 c59 -26 88 -55 88 -88 0 -20 -4 -25
-16 -20 -27 10 -33 -3 -18 -34 9 -16 13 -34 10 -39 -3 -5 -34 -22 -69 -39 -70
-33 -188 -123 -230 -177 -15 -19 -34 -35 -42 -35 -7 0 -49 18 -92 40 -50 26
-102 44 -143 51 -96 14 -120 26 -120 58 0 33 31 68 66 77 37 9 96 -11 149 -51
25 -19 47 -35 50 -35 3 0 19 29 36 64 17 35 44 80 60 99 33 40 102 77 142 77
15 0 27 5 27 10 0 15 -46 12 -87 -5 -32 -14 -39 -14 -51 -1 -20 20 -8 44 30
62 44 19 149 13 210 -14z m-423 -75 c20 -17 61 -107 61 -136 0 -21 -3 -19 -30
18 -33 45 -78 77 -123 87 -34 7 -33 33 2 50 25 13 61 5 90 -19z m-60 -62 c30
-15 81 -70 81 -86 0 -5 -10 -3 -22 5 -54 34 -125 38 -189 12 -36 -15 -32 55 4
72 32 16 94 14 126 -3z m1481 -340 c0 -3 -14 -32 -30 -65 -40 -78 -69 -202
-77 -321 -6 -94 -5 -97 17 -109 34 -18 110 -91 110 -105 0 -9 -88 -15 -340
-25 -187 -7 -343 -10 -347 -7 -12 12 50 87 96 116 66 42 125 54 234 48 50 -3
104 -9 119 -12 25 -7 27 -5 34 40 13 89 -1 223 -34 320 -17 50 -33 98 -37 108
-7 16 3 17 124 17 72 0 131 -2 131 -5z m394 -51 c-14 -31 -31 -84 -39 -118
-17 -69 -20 -252 -5 -261 5 -3 42 -2 82 3 131 17 255 -17 326 -87 30 -31 68
-90 60 -95 -5 -4 -682 56 -687 60 -11 10 40 62 88 89 l52 30 -5 135 c-4 124
-19 209 -51 283 -7 16 2 17 98 17 l106 0 -25 -56z"/>
<path d="M1554 2230 c-40 -16 -74 -68 -74 -113 0 -121 132 -177 217 -92 28 28
33 40 33 79 0 26 -7 60 -15 75 -25 48 -105 74 -161 51z"/>
<path d="M2450 2138 c0 -40 -2 -90 -6 -111 -4 -24 -2 -43 6 -53 10 -11 10 -18
2 -26 -7 -7 -12 -33 -12 -59 l0 -48 201 3 c110 1 203 -2 205 -6 3 -4 16 -8 28
-8 20 0 24 6 30 46 3 25 2 53 -3 63 -6 10 -6 23 0 34 5 9 9 43 8 74 -1 32 2
77 6 99 7 38 5 42 -16 46 -13 2 -60 3 -104 2 -146 -4 -265 0 -313 10 l-34 8 2
-74z m65 42 c4 -7 30 -8 69 -4 40 4 70 2 82 -4 15 -9 -3 -11 -78 -12 l-98 0 0
-94 c0 -51 -3 -114 -6 -140 l-7 -46 186 0 c148 0 186 3 190 14 3 7 7 69 8 137
l3 124 -85 5 c-106 6 -75 20 36 16 l80 -3 -3 -34 c-13 -156 -14 -198 -7 -234
7 -39 -6 -60 -31 -48 -11 5 -104 9 -207 8 l-189 -1 6 40 c8 54 8 65 0 104 -4
19 -2 38 5 46 7 8 9 35 5 75 -6 57 -6 61 14 61 11 0 24 -5 27 -10z m294 -46
c30 -6 31 -8 31 -59 0 -29 -3 -80 -6 -114 l-7 -61 -136 0 c-191 0 -181 -5
-181 95 0 45 3 97 6 114 l7 31 127 0 c70 0 142 -3 159 -6z"/>
<path d="M1195 1704 c-34 -17 -75 -53 -75 -65 0 -5 22 6 49 22 64 40 115 46
164 21 43 -23 49 -13 11 17 -33 26 -105 28 -149 5z"/>
<path d="M1214 1599 c-17 -5 -39 -18 -49 -29 l-19 -21 45 20 c80 37 90 33 203
-82 106 -109 166 -147 253 -162 74 -12 207 27 244 71 8 9 10 15 4 13 -5 -3
-32 -16 -60 -29 -33 -15 -75 -25 -123 -28 -68 -4 -77 -2 -147 32 -60 30 -90
53 -151 121 -93 101 -125 116 -200 94z"/>
<path d="M1734 1149 c-63 -66 -145 -85 -234 -54 -50 18 -50 18 -50 6 0 -17 86
-51 131 -51 32 0 40 -3 29 -10 -8 -5 -30 -10 -48 -10 -20 0 -31 -4 -27 -10 3
-5 21 -10 39 -10 39 0 160 88 189 138 24 41 10 41 -29 1z"/>
<path d="M2043 2215 c-67 -29 -92 -118 -53 -183 21 -34 72 -62 112 -62 60 0
128 69 128 130 0 39 -33 92 -71 112 -40 21 -72 22 -116 3z"/>
</g>
</svg>
