<?xml version="1.0" standalone="no"?>
<!DOCTYPE svg PUBLIC "-//W3C//DTD SVG 20010904//EN"
 "http://www.w3.org/TR/2001/REC-SVG-20010904/DTD/svg10.dtd">
<svg version="1.0" xmlns="http://www.w3.org/2000/svg"
 width="381.000000pt" height="267.000000pt" viewBox="0 0 381.000000 267.000000"
 preserveAspectRatio="xMidYMid meet">
<metadata>
Created by potrace 1.15, written by Peter Selinger 2001-2017
</metadata>
<g transform="translate(0.000000,267.000000) scale(0.100000,-0.100000)"
fill="#000000" stroke="none">
<path d="M1460 2649 c-55 -34 -95 -97 -116 -186 -15 -64 -4 -76 26 -28 32 53
106 112 161 130 43 14 121 19 194 12 44 -4 24 20 -44 56 -88 45 -163 51 -221
16z"/>
<path d="M2128 2597 c-48 -18 -128 -66 -128 -76 0 -5 38 -6 84 -4 132 9 223
-32 288 -128 18 -27 37 -49 42 -49 15 0 -4 83 -33 146 -38 82 -84 117 -159
121 -32 2 -73 -3 -94 -10z"/>
<path d="M1595 2451 c-105 -26 -205 -123 -235 -226 l-12 -40 -235 3 c-130 1
-240 -1 -244 -5 -4 -4 -3 -168 2 -363 8 -312 7 -362 -7 -410 -48 -165 -131
-236 -237 -201 -34 12 -35 13 -25 48 18 67 -10 113 -69 113 -32 0 -35 2 -28
23 4 12 9 52 12 88 6 83 -12 109 -79 109 -67 0 -69 4 -66 112 4 116 -9 138
-76 138 -51 0 -96 -27 -126 -74 -19 -31 -22 -48 -18 -105 l3 -68 -48 -17 c-57
-20 -91 -65 -81 -108 3 -17 -1 -36 -12 -53 -16 -24 -16 -29 0 -67 15 -39 15
-43 -1 -60 -25 -28 -6 -67 51 -106 34 -23 60 -32 88 -32 25 0 50 -8 65 -20 28
-22 73 -26 104 -10 16 9 19 7 19 -8 0 -53 83 -69 145 -27 l37 26 38 -34 c49
-45 97 -60 180 -55 54 3 74 9 103 31 20 15 38 27 40 27 2 0 7 -106 10 -236 3
-130 8 -238 9 -240 2 -1 143 6 313 16 170 10 310 18 311 17 1 -1 13 -33 28
-71 37 -92 60 -216 51 -281 l-6 -51 -66 10 c-77 11 -183 -3 -241 -33 -63 -32
-154 -144 -138 -169 6 -10 689 19 701 29 6 7 4 20 -7 40 l-18 30 33 -5 c70
-12 658 -58 664 -53 22 22 -49 126 -115 168 -65 41 -112 52 -224 51 l-98 0 0
70 c0 79 20 167 56 249 l25 55 365 21 c202 12 368 24 371 27 3 3 8 75 11 161
3 85 7 155 9 155 3 0 17 -9 32 -19 39 -28 108 -44 160 -36 60 8 128 41 147 71
l16 23 36 -24 c53 -36 116 -35 140 2 15 25 22 28 60 25 29 -2 53 3 70 14 15
10 42 19 61 21 98 10 194 118 135 151 -16 9 -16 11 0 33 20 29 21 69 2 94 -8
12 -12 33 -9 56 7 47 -26 83 -90 101 -42 11 -44 13 -36 35 50 132 -106 288
-198 197 -24 -24 -25 -29 -22 -122 l4 -97 -50 -8 c-27 -5 -60 -13 -72 -17 -31
-13 -39 -67 -21 -141 l15 -59 -38 0 c-54 0 -74 -31 -66 -105 l5 -54 -31 -7
c-43 -9 -93 -7 -117 6 -33 18 -77 86 -100 154 -21 63 -21 64 -5 405 8 188 15
359 15 381 l0 40 -132 0 c-226 0 -448 12 -448 24 0 25 -51 117 -86 155 -20 23
-57 54 -81 68 -83 48 -229 41 -302 -16 -23 -18 -24 -18 -73 15 -27 18 -66 38
-86 44 -42 11 -122 12 -167 1z m200 -45 c65 -31 117 -86 152 -161 25 -53 28
-72 28 -155 -1 -81 -4 -103 -27 -152 -74 -160 -243 -227 -390 -155 -64 32
-115 87 -150 163 -19 41 -23 65 -22 149 0 118 18 167 86 241 85 93 215 121
323 70z m399 -15 c58 -25 113 -83 145 -150 22 -48 26 -69 26 -151 0 -85 -3
-101 -30 -154 -56 -110 -162 -174 -270 -163 -50 5 -127 36 -140 57 -3 5 5 26
19 47 80 121 84 276 10 411 -19 34 -34 64 -34 67 0 2 15 13 33 24 71 44 160
48 241 12z m-988 -231 l131 0 5 -82 c11 -208 151 -351 341 -349 72 1 119 16
179 58 l37 25 27 -21 c31 -24 114 -51 159 -51 131 0 261 109 299 250 14 52 15
53 17 20 3 -56 -1 -191 -7 -241 l-6 -47 166 -1 c91 -1 173 -1 181 -1 35 1 52
0 88 -6 l38 -6 0 78 c-1 44 -1 96 0 117 0 20 0 43 0 50 0 6 2 35 5 64 l6 51
-191 0 c-105 -1 -194 2 -198 5 -3 4 -21 7 -39 7 -23 0 -34 -5 -37 -17 -3 -10
-5 4 -6 31 l-1 49 260 -5 c143 -3 262 -7 264 -9 4 -4 -53 -1382 -58 -1386 -3
-3 -1918 -114 -1921 -111 -3 3 -35 1353 -35 1472 l0 69 83 -6 c45 -4 141 -7
213 -7z m1269 -110 c3 -5 0 -10 -8 -10 -15 0 -27 -100 -27 -222 l0 -58 86 0
c51 0 83 -4 79 -9 -3 -6 -48 -9 -101 -8 l-96 1 7 31 c6 25 11 96 14 180 1 11
-2 39 -5 63 -6 40 -5 42 19 42 14 0 29 -4 32 -10z m370 -40 c-3 -19 -6 -45 -5
-57 0 -13 0 -38 0 -55 -1 -18 0 -63 0 -100 1 -38 -3 -68 -9 -68 -20 0 -42 13
-33 19 6 4 14 68 18 144 l7 137 -71 0 c-39 0 -74 4 -77 10 -3 6 29 8 85 7 l92
-2 -7 -35z m-49 -37 c-3 -21 -6 -73 -6 -115 l0 -78 -166 0 -167 0 7 46 c3 26
6 78 6 115 l0 69 166 0 167 0 -7 -37z m-2465 -175 c7 -14 10 -52 7 -110 -7
-109 -1 -119 76 -126 51 -4 59 -8 67 -31 13 -32 -3 -133 -27 -168 -20 -31 -12
-39 25 -24 78 33 118 -11 87 -93 -50 -130 -173 -208 -208 -131 -8 18 -7 28 6
46 20 29 20 39 1 39 -8 0 -15 -5 -15 -10 0 -18 -48 -60 -68 -60 -10 0 -27 6
-37 14 -17 13 -18 17 -6 40 11 19 12 32 4 49 -8 18 -7 27 8 45 14 19 16 28 8
50 -8 20 -7 28 2 31 21 7 59 49 59 65 0 21 -47 74 -82 92 -18 10 -28 21 -24
29 3 8 -4 34 -14 57 -36 79 -18 161 42 198 43 26 74 25 89 -2z m3242 -36 c28
-25 57 -87 57 -120 0 -16 -11 -50 -24 -76 l-24 -47 43 6 c50 8 100 -13 117
-50 25 -55 -76 -142 -151 -131 -87 13 -83 63 11 126 65 43 61 64 -5 30 -110
-57 -138 -128 -65 -166 22 -12 27 -19 19 -27 -18 -18 -13 -55 10 -70 13 -9 16
-17 10 -22 -14 -8 -14 -50 -1 -75 7 -13 6 -21 -5 -30 -27 -23 -80 3 -110 53
-7 12 -14 14 -24 8 -12 -8 -12 -13 3 -36 23 -34 14 -73 -18 -81 -66 -16 -186
117 -186 206 0 57 35 75 95 48 35 -16 41 -5 20 38 -20 43 -31 152 -16 173 5 9
30 15 60 17 79 3 84 12 76 116 -6 74 -4 92 10 114 14 22 22 25 48 20 17 -3 39
-14 50 -24z m-3384 -206 c10 -12 9 -13 -7 -9 -33 8 -35 -15 -2 -32 47 -24 100
-75 100 -96 0 -12 -13 -26 -35 -36 -29 -14 -40 -15 -77 -4 -23 7 -57 28 -75
46 -54 54 -40 113 33 135 42 12 50 12 63 -4z m-100 -166 c21 -17 55 -33 77
-37 47 -7 64 -19 64 -45 0 -26 -36 -37 -85 -26 -52 11 -105 65 -105 108 0 16
3 30 6 30 3 0 22 -14 43 -30z m3676 -30 c16 -50 -58 -120 -126 -120 -31 0 -69
19 -69 35 0 20 18 36 48 41 41 7 107 38 117 54 10 16 23 12 30 -10z m-2884
-119 c2 -108 -9 -130 -81 -168 -69 -37 -155 -29 -231 22 l-38 25 27 40 c21 33
31 40 47 35 38 -12 104 -17 130 -11 37 9 99 69 120 116 10 22 20 39 21 37 2
-2 4 -45 5 -96z m-714 9 c39 0 60 -29 43 -60 -19 -35 -92 -21 -142 28 -26 24
-35 51 -22 64 3 4 24 -2 47 -13 23 -10 56 -19 74 -19z m2805 -15 c51 -84 134
-110 230 -70 24 10 76 -68 58 -89 -24 -30 -95 -56 -153 -56 -69 0 -103 12
-144 53 -32 30 -33 33 -33 119 0 48 3 88 8 88 4 0 19 -20 34 -45z m793 5 c4
-6 -1 -22 -10 -36 -51 -79 -180 -86 -161 -9 5 19 13 25 34 26 15 0 43 7 62 14
43 17 67 18 75 5z m-1640 -587 c-53 -123 -58 -148 -59 -268 l-1 -120 35 5 c19
3 71 5 115 5 104 -1 168 -28 230 -97 46 -52 54 -68 33 -68 -35 0 -604 53 -607
56 -7 7 51 65 92 90 36 24 37 26 37 83 0 82 -18 206 -39 268 l-18 52 46 4
c123 10 144 8 136 -10z m-196 -60 c23 -69 41 -227 33 -282 -2 -18 -12 -33 -22
-36 -19 -6 -103 -91 -113 -115 -6 -12 -8 -12 -13 -2 -3 7 -24 24 -46 38 l-40
26 7 66 c15 150 55 294 96 346 13 17 30 26 48 26 26 0 30 -6 50 -67z m-158 -5
c-36 -80 -61 -189 -68 -299 l-6 -86 36 -22 c35 -21 91 -80 84 -87 -2 -2 -113
-8 -248 -14 -134 -5 -274 -12 -311 -14 l-68 -5 15 29 c23 44 94 99 149 115 58
18 165 19 220 4 27 -7 42 -7 49 0 6 6 12 45 15 88 4 89 -14 190 -51 282 l-24
60 61 4 c33 2 87 4 118 5 l57 2 -28 -62z"/>
<path d="M1594 2106 c-118 -53 -84 -226 44 -226 43 0 95 39 109 83 32 95 -63
183 -153 143z"/>
<path d="M2075 2088 c-105 -82 -28 -240 101 -206 96 25 112 168 24 213 -42 21
-92 19 -125 -7z"/>
<path d="M1310 1781 c0 -29 -46 -78 -87 -91 -19 -7 -55 -10 -79 -7 -24 2 -44
1 -44 -4 0 -8 62 -29 86 -29 6 0 17 -34 24 -76 35 -219 142 -400 275 -464 35
-17 72 -25 131 -28 72 -4 87 -2 123 19 23 13 52 39 63 58 21 33 24 69 15 185
-2 27 1 29 71 47 78 20 128 45 175 87 43 41 31 47 -15 8 -51 -44 -128 -74
-230 -89 -91 -13 -162 -2 -244 38 -63 31 -167 125 -228 206 -44 59 -45 61 -31
89 17 33 20 70 5 70 -5 0 -10 -9 -10 -19z m84 -239 c78 -81 145 -128 220 -153
l50 -17 -45 -7 c-88 -13 -225 30 -326 103 -34 26 -43 39 -52 82 -17 80 -14
109 12 120 18 7 26 3 47 -23 14 -18 56 -65 94 -105z m150 -286 c18 -7 49 -28
70 -46 44 -40 57 -34 21 9 -23 26 -24 32 -11 37 30 12 87 -7 123 -40 33 -30
34 -34 22 -54 -37 -59 -165 -73 -262 -29 -29 13 -73 43 -98 67 l-44 43 35 13
c47 17 103 17 144 0z"/>
<path d="M1701 1033 c-1 -7 -17 -30 -36 -52 -57 -62 -154 -78 -236 -37 -37 18
-53 21 -44 6 10 -17 66 -43 120 -56 l50 -12 -50 -1 c-36 -1 -46 -4 -35 -11 21
-13 77 -12 103 2 74 39 147 127 134 160 -4 10 -6 10 -6 1z"/>
</g>
</svg>
