<?xml version="1.0" encoding="UTF-8"?>
<svg width="32.923mm" height="8.2748mm" version="1.1" viewBox="0 0 32.923 8.2748" xmlns="http://www.w3.org/2000/svg">
 <g transform="translate(-40.291 -133.21)">
  <g fill="#515f77" stroke-width=".26458" aria-label="LOADING">
   <path d="m40.359 141.23q0-0.93698-0.01129-2.1336-0.01129-1.0273-0.02258-2.4384t-0.03387-3.1609q0.21449 0.0113 0.508 0.0113 0.25964 0 0.63218 0t0.89182-0.0113q-0.01129 0.38382-0.01129 1.1628 0 0.66605 0.01129 1.8062 0.01129 1.1289 0.04516 2.9125 0.33867 0.0226 0.63218 0.0339 0.3048 0 0.53058 0h0.48542q-0.01129 0.42897-0.01129 0.76764t0 0.58702v0.508q-0.16933 0-0.42898 0-0.24836-0.0113-0.54187-0.0113-0.28222-0.0113-0.59831-0.0113-0.3048-0.0113-0.59831-0.0113-0.69991-0.0113-1.4788-0.0113z"/>
   <path d="m46.71 139.94q0.07902 0 0.13547-0.079 0.06773-0.079 0.1016-0.33866 0.04516-0.25965 0.05644-0.76765 0.02258-0.508 0.02258-1.3772 0-0.82409-0.02258-1.3208-0.01129-0.49671-0.05644-0.75636-0.03387-0.25964-0.1016-0.33867-0.06773-0.0903-0.15804-0.0903-0.11289 0-0.18062 0.1016-0.06773 0.0903-0.1016 0.37254-0.03387 0.28222-0.04515 0.79022-0.01129 0.508-0.01129 1.3208 0 0.82409 0.02258 1.3208 0.02258 0.48542 0.05644 0.74507 0.04516 0.25964 0.11289 0.33866 0.06773 0.079 0.16933 0.079zm-0.02258 1.5466q-0.69991 0-1.1853-0.25964-0.48542-0.25965-0.79022-0.76765t-0.45156-1.2531q-0.13547-0.74507-0.13547-1.7272 0-0.93698 0.11289-1.7046 0.11289-0.77893 0.39511-1.3321 0.29351-0.56445 0.77893-0.86925 0.49671-0.31609 1.2644-0.31609 0.77893 0 1.2756 0.29351 0.508 0.28223 0.79022 0.82409 0.29351 0.54187 0.39511 1.3208 0.11289 0.77894 0.11289 1.7724-0.01129 1.1063-0.16933 1.874-0.15804 0.76765-0.47413 1.2418-0.3048 0.47413-0.79022 0.68862-0.47413 0.21449-1.1289 0.21449z"/>
   <path d="m51.921 135.06q-0.05644 0.46285-0.14676 1.3547-0.09031 0.88053-0.19191 2.111 0.13547 0.0113 0.25964 0.0113 0.12418-0.0113 0.21449-0.0113h0.21449q-0.06773-0.7112-0.13547-1.3434-0.05644-0.63218-0.11289-1.1063-0.05644-0.55315-0.1016-1.016zm-2.5513 6.0396q0.14676-0.90311 0.32738-2.0884 0.15804-1.0047 0.36124-2.4158 0.2032-1.4224 0.44027-3.206 0.6096-0.0226 1.1289-0.0339 0.53058-0.0113 0.92569-0.0113h0.83538q0.14676 1.1289 0.34996 2.4384 0.16933 1.1289 0.39511 2.5852 0.23707 1.4563 0.51929 3.0706-0.25964-0.0113-0.58702-0.0113-0.28222 0-0.67733 0-0.39511 0.0113-0.89182 0.0226-0.01129-0.11289-0.02258-0.29352-0.01129-0.15804-0.03387-0.39511-0.01129-0.23706-0.03387-0.57573-0.15804-0.0113-0.4064-0.0113-0.24836 0-0.54187 0l-0.06773 0.94827q-0.19191 0-0.48542-0.0113-0.24836-0.0113-0.63218-0.0113-0.37253 0-0.90311 0z"/>
   <path d="m54.887 141.32q0.01129-1.445 0.01129-2.8448t0-2.5287v-2.4948q0.4064-0.0677 0.77893-0.1016 0.38382-0.0451 0.7112-0.0451 0.93698 0 1.5804 0.24835 0.64347 0.24836 1.0386 0.77894 0.4064 0.51929 0.58702 1.3321 0.18062 0.80151 0.18062 1.9078 0 1.0612-0.21449 1.8062-0.21449 0.73378-0.63218 1.1966-0.41769 0.46285-1.0386 0.67734-0.6096 0.2032-1.4111 0.2032-0.7112 0-1.5917-0.13547zm2.0772-1.4901q0.16933 0.0113 0.28222-0.0339 0.11289-0.0565 0.18062-0.29351 0.07902-0.23707 0.11289-0.7112 0.03387-0.48542 0.03387-1.3208 0-0.7112-0.03387-1.1853-0.03387-0.48542-0.11289-0.76764-0.07902-0.29351-0.21449-0.4064-0.12418-0.11289-0.31609-0.0903 0 0.90311 0.01129 1.7724 0.01129 0.85796 0.02258 1.5353 0.01129 0.79023 0.03387 1.5014z"/>
   <path d="m60.215 141.29v-2.2804q0-1.0612-0.01129-2.4836t-0.03387-3.0819h0.51929q0.25964 0 0.63218 0 0.38382 0 0.89182-0.0113 0 1.1176 0.01129 2.4045 0.01129 1.095 0.01129 2.5061 0.01129 1.4111 0.03387 2.9464h-0.508z"/>
   <path d="m62.815 141.07q0.01129-0.83537 0.01129-1.953 0-0.95956-0.01129-2.3029-0.01129-1.3547-0.03387-3.0706 0.24836-0.0113 0.54187-0.0339 0.25964-0.0226 0.6096-0.0226 0.34996-0.0113 0.76764-0.0339 0.14676 0.44027 0.34996 1.016 0.16933 0.49671 0.41769 1.2079 0.24836 0.7112 0.57573 1.6143-0.03387-0.68863-0.1016-1.7385-0.06773-1.0612-0.19191-2.54 0.21449 0.0113 0.49671 0.0226 0.23707 0.0113 0.57573 0.0226 0.33867 0 0.76764-0.0113 0.01129 0.92569 0.04515 2.1336 0.02258 1.0499 0.05644 2.54 0.04516 1.4788 0.1016 3.3754-0.18062 0.0226-0.44027 0.0565-0.22578 0.0226-0.57573 0.0564-0.33867 0.0452-0.8128 0.079-0.16933-0.47413-0.38382-1.0837-0.19191-0.51929-0.45156-1.2192-0.25964-0.7112-0.57573-1.5692 0.02258 0.58703 0.05644 1.4337 0.03387 0.84667 0.11289 2.0546-0.22578 0-0.51929-0.0113-0.24836-0.0113-0.6096-0.0113-0.34996-0.0113-0.77893-0.0113z"/>
   <path d="m70.676 141.48q-0.57573 0-1.0499-0.19191-0.46284-0.18062-0.80151-0.63218-0.32738-0.46284-0.508-1.2418-0.18062-0.79023-0.18062-1.9981 0-1.095 0.15804-1.874 0.15804-0.79022 0.47413-1.2869 0.32738-0.508 0.8128-0.74506 0.49671-0.23707 1.1628-0.23707 0.65476 0 1.1176 0.25965 0.46284 0.24835 0.75636 0.68862 0.29351 0.44026 0.4064 1.0386 0.12418 0.59831 0.09031 1.2869-0.48542-0.0113-0.89182-0.0113-0.36124 0-0.69991 0-0.32738 0-0.47413-0.0113 0.01129-0.90311-0.07902-1.2418-0.09031-0.33866-0.27093-0.33866-0.11289 0-0.19191 0.1016-0.06773 0.1016-0.11289 0.38382-0.04516 0.27093-0.06773 0.75635-0.01129 0.48543-0.01129 1.2531 0 0.80151 0.02258 1.2982 0.03387 0.48543 0.09031 0.76765 0.05644 0.27093 0.13547 0.37253 0.09031 0.0903 0.21449 0.0903 0.18062 0 0.25964-0.25964 0.09031-0.27094 0.07902-0.97085-0.06773 0.0113-0.13547 0.0113-0.05644 0.0113-0.14676 0.0113-0.09031 0-0.19191 0.0113v-0.44027q0-0.21449 0-0.51929 0-0.31608-0.01129-0.7112 0.46284 0.0113 0.9144 0.0113h1.6595q0.04516 1.366-0.12418 2.2239-0.15804 0.84667-0.48542 1.3321-0.32738 0.47414-0.82409 0.64347-0.48542 0.16933-1.095 0.16933z"/>
  </g>
 </g>
</svg>
